<svg width="80" height="80" viewBox="0 0 80 80" fill="none" xmlns="http://www.w3.org/2000/svg">
  <path d="M14 11C14 7.68629 16.6863 5 20 5H46L66 25V69C66 72.3137 63.3137 75 60 75H20C16.6863 75 14 72.3137 14 69V11Z"
        fill="#29DFD4"/>
  <path d="M46 25H66L46 5V25Z" fill="#01CABE"/>
  <path
      d="M50 35C51.6569 35 53 36.3431 53 38V56C53 57.6569 51.6569 59 50 59H30C28.3431 59 27 57.6569 27 56V38C27 36.3431 28.3431 35 30 35H50ZM47.3443 47.4909L40.0181 53.6305L35.2593 49.8502L29.1667 54.8116V55.8182C29.1667 56.3705 29.6144 56.8182 30.1667 56.8182H49.8333C50.3856 56.8182 50.8333 56.3705 50.8333 55.8182V50.4051L47.3443 47.4909ZM50.8333 38.1818C50.8333 37.6295 50.3856 37.1818 49.8333 37.1818H30.1667C29.6144 37.1818 29.1667 37.6295 29.1667 38.1818V52.0058L35.2427 47.0582L39.9812 50.8225L47.3428 44.6553L50.8333 47.5702V38.1818ZM36.0278 38.6364C36.8897 38.6364 37.7164 38.9812 38.3259 39.5949C38.9354 40.2087 39.2778 41.0411 39.2778 41.9091C39.2778 42.7771 38.9354 43.6095 38.3259 44.2233C37.7164 44.837 36.8897 45.1818 36.0278 45.1818C35.1658 45.1818 34.3392 44.837 33.7297 44.2233C33.1202 43.6095 32.7778 42.7771 32.7778 41.9091C32.7778 41.0411 33.1202 40.2087 33.7297 39.5949C34.3392 38.9812 35.1658 38.6364 36.0278 38.6364ZM36.0278 40.8182C35.7405 40.8182 35.4649 40.9331 35.2617 41.1377C35.0586 41.3423 34.9444 41.6198 34.9444 41.9091C34.9444 42.1984 35.0586 42.4759 35.2617 42.6805C35.4649 42.8851 35.7405 43 36.0278 43C36.3151 43 36.5906 42.8851 36.7938 42.6805C36.997 42.4759 37.1111 42.1984 37.1111 41.9091C37.1111 41.6198 36.997 41.3423 36.7938 41.1377C36.5906 40.9331 36.3151 40.8182 36.0278 40.8182Z"
      fill="white"/>
  <path d="M35.5 48.5L28.5 53.5V56.5L29.5 58H50.5L52 56.5V49.5L47.5 46L40 52L35.5 48.5Z" fill="white"/>
</svg>
