<svg width="80" height="80" viewBox="0 0 80 80" fill="none" xmlns="http://www.w3.org/2000/svg">
  <path d="M14 11C14 7.68629 16.6863 5 20 5H46L66 25V69C66 72.3137 63.3137 75 60 75H20C16.6863 75 14 72.3137 14 69V11Z"
        fill="#FF6464"/>
  <path d="M46 25H66L46 5V25Z" fill="#FF4242"/>
  <path
      d="M29.5657 42.13C30.8137 42.142 31.7737 42.442 32.4457 43.03C33.1297 43.606 33.4717 44.44 33.4717 45.532C33.4717 45.832 33.4597 46.066 33.4357 46.234L33.3277 47.152C33.1597 48.472 32.6557 49.486 31.8157 50.194C30.9757 50.89 29.8537 51.244 28.4497 51.256H24.7777L24.2377 55.648H22.1137L23.7697 42.13H29.5657ZM28.7377 49.276C29.4817 49.264 30.0517 49.102 30.4477 48.79C30.8437 48.466 31.0897 47.956 31.1857 47.26L31.3297 46.162C31.3417 46.078 31.3477 45.964 31.3477 45.82C31.3477 45.232 31.1857 44.806 30.8617 44.542C30.5497 44.266 30.0577 44.122 29.3857 44.11H25.6597L25.0117 49.276H28.7377ZM41.5489 42.13C43.1329 42.142 44.2969 42.49 45.0409 43.174C45.7849 43.846 46.1569 44.908 46.1569 46.36C46.1569 46.732 46.1269 47.188 46.0669 47.728L45.7969 50.05C45.5329 52.006 44.9329 53.428 43.9969 54.316C43.0609 55.192 41.6869 55.636 39.8749 55.648H34.3129L35.9689 42.13H41.5489ZM40.1449 53.668C41.2369 53.668 42.0529 53.392 42.5929 52.84C43.1329 52.288 43.4809 51.394 43.6369 50.158L43.9609 47.62C44.0089 47.14 44.0329 46.804 44.0329 46.612C44.0329 45.736 43.8229 45.1 43.4029 44.704C42.9949 44.308 42.3169 44.11 41.3689 44.11H37.8589L36.6709 53.668H40.1449ZM49.1173 42.13H57.9733L57.7393 44.11H51.0073L50.5033 48.124H56.6053L56.3713 50.104H50.2693L49.5853 55.648H47.4613L49.1173 42.13Z"
      fill="white"/>
</svg>
