<svg width="80" height="80" viewBox="0 0 80 80" fill="none" xmlns="http://www.w3.org/2000/svg">
  <path d="M14 11C14 7.68629 16.6863 5 20 5H46L66 25V69C66 72.3137 63.3137 75 60 75H20C16.6863 75 14 72.3137 14 69V11Z"
        fill="#C03917"/>
  <path d="M46 25H66L46 5V25Z" fill="#96280C"/>
  <path
          d="M42.6677 36.98C44.6091 36.9987 46.1024 37.4653 47.1477 38.38C48.2117 39.276 48.7437 40.5733 48.7437 42.272C48.7437 42.7387 48.7251 43.1027 48.6877 43.364L48.5197 44.792C48.2584 46.8453 47.4744 48.4227 46.1677 49.524C44.8611 50.6067 43.1157 51.1573 40.9317 51.176H35.2197L34.3797 58.008H31.0757L33.6517 36.98H42.6677ZM41.3797 48.096C42.5371 48.0773 43.4237 47.8253 44.0397 47.34C44.6557 46.836 45.0384 46.0427 45.1877 44.96L45.4117 43.252C45.4304 43.1213 45.4397 42.944 45.4397 42.72C45.4397 41.8053 45.1877 41.1427 44.6837 40.732C44.1984 40.3027 43.4331 40.0787 42.3877 40.06H36.5917L35.5837 48.096H41.3797Z"
          fill="white"/>
</svg>
