<svg width="80" height="80" viewBox="0 0 80 80" fill="none" xmlns="http://www.w3.org/2000/svg">
  <path d="M14 11C14 7.68629 16.6863 5 20 5H46L66 25V69C66 72.3137 63.3137 75 60 75H20C16.6863 75 14 72.3137 14 69V11Z"
        fill="#FA9E3B"/>
  <path d="M46 25H66L46 5V25Z" fill="#C87E2B"/>
  <path
          d="M23.257 44.11L23.491 42.13H34.165L33.931 44.11H29.593L28.207 55.648H26.083L27.469 44.11H23.257ZM35.7633 55.648H33.1172L38.9493 48.718L35.1513 42.13H37.6533L40.4613 47.134L44.4393 42.13H47.0133L41.5233 48.862L45.5553 55.648H43.0173L40.0293 50.446L35.7633 55.648ZM47.6028 44.11L47.8368 42.13H58.5108L58.2768 44.11H53.9388L52.5528 55.648H50.4288L51.8148 44.11H47.6028Z"
          fill="white"/>
</svg>
