<svg width="80" height="80" viewBox="0 0 80 80" fill="none" xmlns="http://www.w3.org/2000/svg">
  <path d="M14 11C14 7.68629 16.6863 5 20 5H46L66 25V69C66 72.3137 63.3137 75 60 75H20C16.6863 75 14 72.3137 14 69V11Z"
        fill="#722ED1"/>
  <path
          d="M26.6665 39.6666C26.6665 38.9302 27.2635 38.3333 27.9998 38.3333H46.6665C47.4029 38.3333 47.9998 38.9302 47.9998 39.6666V45.6666L53.3332 41.6666V56.9999L47.9998 52.9999V58.3333C47.9998 59.0697 47.4029 59.6666 46.6665 59.6666H27.9998C27.2635 59.6666 26.6665 59.0697 26.6665 58.3333V39.6666Z"
          stroke="white" stroke-width="2" stroke-linecap="round" stroke-linejoin="round"/>
  <path
          d="M35.3333 50.3334C37.1743 50.3334 38.6667 48.841 38.6667 47.0001C38.6667 45.1591 37.1743 43.6667 35.3333 43.6667C33.4924 43.6667 32 45.1591 32 47.0001C32 48.841 33.4924 50.3334 35.3333 50.3334Z"
          fill="white" stroke="white" stroke-width="2" stroke-linecap="round" stroke-linejoin="round"/>
  <path d="M46 25H66L46 5V25Z" fill="#5417A9"/>
</svg>
