<svg width="80" height="80" viewBox="0 0 80 80" fill="none" xmlns="http://www.w3.org/2000/svg">
  <path d="M14 11C14 7.68629 16.6863 5 20 5H46L66 25V69C66 72.3137 63.3137 75 60 75H20C16.6863 75 14 72.3137 14 69V11Z"
        fill="#2F55E3"/>
  <path d="M46 25H66L46 5V25Z" fill="#193BB9"/>
  <path
          d="M29.8526 58.008C29.386 58.008 28.994 57.8587 28.6766 57.56C28.378 57.28 28.1913 56.832 28.1166 56.216L26.0726 36.98H29.5726L31.3366 54.928H32.0926L38.0846 38.688H42.5086L44.4966 54.956H45.2526L51.4406 37.008H55.0526L48.2206 56.496C47.866 57.4853 47.2406 57.9987 46.3446 58.036H43.0406C42.574 58.036 42.182 57.8867 41.8646 57.588C41.566 57.308 41.3793 56.86 41.3046 56.244L39.8486 42.972L35.0326 56.468C34.6593 57.4947 34.006 58.008 33.0726 58.008H29.8526Z"
          fill="white"/>
</svg>
