<svg class="force-icon force-icon-Other_Toolset c-m-sidebar-prefix-icon" width="1em" height="1em" viewBox="0 0 48 48"
     fill="currentColor" xmlns="http://www.w3.org/2000/svg">
  <path opacity=".5" fill="#5E6673"
        d="M3.99951 15.8989V8.00024C3.99951 6.89567 4.89495 6.00024 5.99951 6.00024H42C43.1046 6.00024 44 6.89567 44 8.00024V15.8989C44 17.0035 43.1046 17.8989 42 17.8989H5.99951C4.89494 17.8989 3.99951 17.0035 3.99951 15.8989Z"></path>
  <path fill-rule="evenodd" clip-rule="evenodd" fill="#5E6673"
        d="M6.45166 40.0003V17.8989H41.5484V40.0003C41.5484 41.1048 40.653 42.0003 39.5484 42.0003H8.45166C7.34709 42.0003 6.45166 41.1048 6.45166 40.0003ZM29 28.1265C29.5523 28.1265 30 27.6788 30 27.1265V25.1265C30 24.5742 29.5523 24.1265 29 24.1265H19C18.4477 24.1265 18 24.5742 18 25.1265V27.1265C18 27.6788 18.4477 28.1265 19 28.1265H29Z"></path>
</svg>
