<svg width="20" height="20" fill="none" xmlns="http://www.w3.org/2000/svg">
  <g opacity=".5" fill="#5E6673">
    <path d="M4.688 5.5c0-.23.186-.417.416-.417h1.25c.23 0 .417.186.417.416v3.636c0 .23-.187.417-.417.417h-1.25a.417.417 0 0 1-.417-.417V5.5ZM4.688 11.814c0-.23.186-.416.416-.416h9.792c.23 0 .417.186.417.416v3.334c0 .23-.187.416-.417.416H5.104a.417.417 0 0 1-.417-.416v-3.334ZM8.438 5.083a.417.417 0 0 0-.417.416v3.636c0 .23.187.417.417.417h1.25c.23 0 .416-.187.416-.417V5.5a.417.417 0 0 0-.416-.416h-1.25Z"></path>
  </g>
  <path fill-rule="evenodd" clip-rule="evenodd"
        d="M17.5 17.667V6.834a.666.666 0 0 0-.2-.477l-4.606-4.5a.667.667 0 0 0-.466-.19H3.167a.667.667 0 0 0-.667.666v15.334c0 .368.298.666.667.666h13.666a.667.667 0 0 0 .667-.666ZM4.687 5.499c0-.23.187-.416.417-.416h1.25c.23 0 .417.186.417.416v3.636c0 .23-.187.417-.417.417h-1.25a.417.417 0 0 1-.417-.417V5.5Zm.417 5.899a.417.417 0 0 0-.417.417v3.333c0 .23.187.417.417.417h9.792c.23 0 .417-.187.417-.417v-3.333a.417.417 0 0 0-.417-.417H5.104Zm2.917-5.899c0-.23.186-.416.416-.416h1.25c.23 0 .417.186.417.416v3.636c0 .23-.187.417-.417.417h-1.25a.417.417 0 0 1-.416-.417V5.5Zm3.75-.416a.417.417 0 0 0-.417.416v3.636c0 .23.187.417.417.417h1.25c.23 0 .416-.187.416-.417V5.5a.417.417 0 0 0-.416-.416h-1.25Z"
        fill="#5E6673"></path>
</svg>
