<svg width="20" height="20" fill="none" xmlns="http://www.w3.org/2000/svg" class="c-m-sidebar-prefix-icon">
  <path d="M2.918 3.333c0-.23.187-.417.417-.417H8.75c.23 0 .417.187.417.417v7.5c0 .23-.187.417-.417.417H3.335a.417.417 0 01-.417-.417v-7.5z"
        fill="#737A87"></path>
  <path opacity="0.5"
        d="M10.832 3.333c0-.23.187-.417.417-.417h5.416c.23 0 .417.187.417.417v3.333c0 .23-.187.417-.417.417H11.25a.417.417 0 01-.417-.417V3.333z"
        fill="#737A87"></path>
  <path d="M10.832 9.167c0-.23.187-.417.417-.417h5.416c.23 0 .417.187.417.417v7.5c0 .23-.187.416-.417.416H11.25a.417.417 0 01-.417-.416v-7.5z"
        fill="#737A87"></path>
  <path opacity="0.5"
        d="M2.918 13.333c0-.23.187-.417.417-.417H8.75c.23 0 .417.187.417.417v3.333c0 .23-.187.417-.417.417H3.335a.417.417 0 01-.417-.416v-3.334z"
        fill="#737A87"></path>
</svg>
