<svg class="force-icon force-icon-Other_Application c-m-sidebar-prefix-icon" width="1em" height="1em"
     viewBox="0 0 48 48" fill="currentColor" xmlns="http://www.w3.org/2000/svg">
  <path d="M6 8.04271C6 6.89999 6.92636 5.97363 8.06908 5.97363H20.0288C21.1715 5.97363 22.0979 6.89999 22.0979 8.04271V20.0098C22.0979 21.1525 21.1715 22.0789 20.0288 22.0789H8.06908C6.92636 22.0789 6 21.1525 6 20.0098V8.04271zM6 27.9638C6 26.8211 6.92636 25.8947 8.06908 25.8947H20.0288C21.1715 25.8947 22.0979 26.8211 22.0979 27.9638V39.9309C22.0979 41.0736 21.1715 42 20.0288 42H8.06908C6.92636 42 6 41.0736 6 39.9309V27.9638zM25.9111 27.9638C25.9111 26.8211 26.8375 25.8947 27.9802 25.8947H39.9311C41.0738 25.8947 42.0002 26.8211 42.0002 27.9638V39.9309C42.0002 41.0736 41.0738 42 39.9311 42H27.9802C26.8375 42 25.9111 41.0736 25.9111 39.9309V27.9638z" fill="#5E6673"></path>
  <path opacity=".5" fill="#5E6673"
        d="M25.9111 8.04271C25.9111 6.89999 26.8375 5.97363 27.9802 5.97363H39.9311C41.0738 5.97363 42.0002 6.89999 42.0002 8.04271V20.0098C42.0002 21.1525 41.0738 22.0789 39.9311 22.0789H27.9802C26.8375 22.0789 25.9111 21.1525 25.9111 20.0098V8.04271Z"></path>
</svg>
