<svg xmlns="http://www.w3.org/2000/svg" width="20" height="20" fill="none">
  <path opacity=".5" d="M5.417 2.5h9.166v4.373c0 .382-.31.691-.691.691H6.108a.692.692 0 0 1-.691-.691V2.5Z"
        fill="#5E6673"/>
  <path fill-rule="evenodd" clip-rule="evenodd"
        d="M2.083 3.333c0-.46.373-.833.834-.833h2.5v4.373c0 .382.31.691.691.691h7.784c.382 0 .691-.31.691-.691V2.5h2.5c.46 0 .834.373.834.833v13.334c0 .46-.373.833-.834.833H2.917a.833.833 0 0 1-.834-.833V3.333Zm5.633 8.334a.216.216 0 0 0-.216.216v1.234c0 .12.097.216.216.216h4.568c.12 0 .216-.096.216-.216v-1.234a.216.216 0 0 0-.216-.216H7.716Z"
        fill="#5E6673"/>
</svg>
