<svg class="force-icon force-icon-Other_ElasticScaling c-m-sidebar-prefix-icon" width="1em" height="1em"
     viewBox="0 0 49 48" fill="currentColor" xmlns="http://www.w3.org/2000/svg">
  <path opacity=".5" fill-rule="evenodd" clip-rule="evenodd"
        d="M6.75928 20.6562H17.5698V29.1895C17.5698 30.294 18.4653 31.1895 19.5698 31.1895H28.1313V42.0014C28.1313 43.1059 27.2359 44.0014 26.1313 44.0014H6.75928C5.65471 44.0014 4.75928 43.1059 4.75928 42.0014V22.6562C4.75928 21.5517 5.65471 20.6562 6.75928 20.6562ZM16.3417 39.9761C16.697 39.9741 16.8735 39.5445 16.6223 39.2932L14.5567 37.2276C14.4005 37.0714 14.4005 36.8181 14.5567 36.6619L17.0747 34.1439C17.2309 33.9877 17.2309 33.7345 17.0747 33.5783L15.1878 31.6914C15.0316 31.5352 14.7783 31.5352 14.6221 31.6914L12.1041 34.2094C11.9479 34.3656 11.6947 34.3656 11.5385 34.2094L9.4755 32.1464C9.22428 31.8952 8.79465 32.0718 8.79266 32.427L8.75245 39.6141C8.7512 39.8367 8.93202 40.0175 9.15468 40.0163L16.3417 39.9761Z"></path>
  <path fill-rule="evenodd" clip-rule="evenodd"
        d="M19.5698 4C18.4653 4 17.5698 4.89543 17.5698 6V29.1895C17.5698 30.294 18.4653 31.1895 19.5698 31.1895H42.7593C43.8638 31.1895 44.7593 30.294 44.7593 29.1895V6C44.7593 4.89543 43.8638 4 42.7593 4H19.5698ZM28.2733 8.04192C27.918 8.0439 27.7415 8.47353 27.9927 8.72475L31.7981 12.5301C31.9543 12.6863 31.9543 12.9396 31.7981 13.0958L27.8965 16.9974C27.7402 17.1537 27.7402 17.4069 27.8965 17.5631L31.1969 20.8636C31.3531 21.0198 31.6064 21.0198 31.7626 20.8636L35.6642 16.9619C35.8204 16.8057 36.0737 16.8057 36.2299 16.9619L40.0395 20.7716C40.2908 21.0228 40.7204 20.8463 40.7224 20.491L40.7902 8.37636C40.7914 8.1537 40.6106 7.97288 40.3879 7.97413L28.2733 8.04192Z"></path>
</svg>
