<svg width="20" height="20" fill="none" xmlns="http://www.w3.org/2000/svg">
  <path fill-rule="evenodd" clip-rule="evenodd"
        d="M9.241 2.029a1.254 1.254 0 0 1 1.255 0l5.96 3.441c.388.224.627.638.627 1.087v6.882c0 .448-.239.863-.627 1.087l-5.96 3.441a1.254 1.254 0 0 1-1.255 0l-5.96-3.441a1.254 1.254 0 0 1-.628-1.087V6.557c0-.449.24-.863.628-1.087L9.24 2.03Zm1.4 6.122v-.743a.641.641 0 1 0-1.283 0v.743H7.785v-.743a2.215 2.215 0 1 1 4.43 0v.743H10.64Zm-4.575.594c0-.328.266-.594.594-.594h6.68c.327 0 .593.266.593.594v4.796a.594.594 0 0 1-.594.594H6.66a.594.594 0 0 1-.594-.594V8.745Z"
        fill="#5E6673"></path>
  <path d="M6.066 8.744c0-.328.266-.593.594-.593h6.68c.327 0 .593.265.593.593v4.796a.594.594 0 0 1-.594.594H6.66a.594.594 0 0 1-.594-.594V8.744Z"
        fill="#B7BAC0"></path>
  <path d="M10.983 11.142a.983.983 0 1 1-1.966 0 .983.983 0 0 1 1.966 0Z" fill="#5E6673"></path>
</svg>
