<svg class="force-icon force-icon-Monitor_Measure c-m-sidebar-prefix-icon" width="1em" height="1em" viewBox="0 0 49 48"
     fill="currentColor" xmlns="http://www.w3.org/2000/svg">
  <path opacity=".5" fill="#5E6673"
        d="M14.7598 37V41C14.7598 42.1046 15.6552 43 16.7598 43H32.7598C33.8644 43 34.7598 42.1046 34.7598 41V37H14.7598Z"></path>
  <rect fill="#5E6673" opacity=".5" x="13.26" y="16.015" width="5" height="11.036" rx="1"></rect>
  <rect fill="#5E6673" opacity=".5" x="22.26" y="12.948" width="5" height="14.103" rx="1"></rect>
  <path fill-rule="evenodd" clip-rule="evenodd" fill="#5E6673"
        d="M6.75928 5C5.65471 5 4.75928 5.89543 4.75928 7V35C4.75928 36.1046 5.65471 37 6.75928 37H42.7595C43.8641 37 44.7595 36.1046 44.7595 35V7C44.7595 5.89543 43.8641 5 42.7595 5H6.75928ZM14.2598 16.0151C13.7075 16.0151 13.2598 16.4629 13.2598 17.0151V26.0512C13.2598 26.6035 13.7075 27.0512 14.2598 27.0512H17.2598C17.8121 27.0512 18.2598 26.6035 18.2598 26.0512V17.0151C18.2598 16.4629 17.8121 16.0151 17.2598 16.0151H14.2598ZM22.2598 13.9482C22.2598 13.396 22.7075 12.9482 23.2598 12.9482H26.2598C26.812 12.9482 27.2598 13.396 27.2598 13.9482V26.0515C27.2598 26.6038 26.812 27.0515 26.2598 27.0515H23.2598C22.7075 27.0515 22.2598 26.6038 22.2598 26.0515V13.9482ZM32.2598 16.015C31.7075 16.015 31.2598 16.4627 31.2598 17.015V26.0508C31.2598 26.6031 31.7075 27.0508 32.2598 27.0508H35.2598C35.812 27.0508 36.2598 26.6031 36.2598 26.0508V17.015C36.2598 16.4627 35.812 16.015 35.2598 16.015H32.2598Z"></path>
</svg>
