<svg class="force-icon force-icon-Hexagon_Instance c-m-sidebar-prefix-icon" width="1em" height="1em" viewBox="0 0 49 48"
     fill="currentColor" xmlns="http://www.w3.org/2000/svg">
  <path opacity=".5"
        d="M7.11777 33.113C7.13753 33.8054 7.51471 34.4401 8.11695 34.7878L23.7595 43.819C24.0752 44.0012 24.4282 44.0905 24.7806 44.0868L24.7799 25.0245C24.7799 24.4722 24.3922 23.8006 23.9139 23.5245L7.39036 13.9839C7.2193 14.2765 7.12258 14.6124 7.11719 14.9623L7.11777 33.113Z"></path>
  <path fill="#5E6673"
        d="M23.7592 4.20569C24.378 3.84843 25.1404 3.84843 25.7592 4.20569L41.4017 13.2369C42.0205 13.5942 42.4017 14.2544 42.4017 14.969V33.0314C42.4017 33.7459 42.0205 34.4062 41.4017 34.7634L25.7592 43.7946C25.456 43.9697 25.1183 44.059 24.7799 44.0625L24.7793 25.0002C24.7793 24.448 24.3916 23.7764 23.9133 23.5002L7.38998 13.9598C7.56243 13.6647 7.81047 13.4137 8.1167 13.2369L23.7592 4.20569zM7.1167 18.6399L7.11716 33.0744C7.11686 33.0601 7.1167 33.0457 7.1167 33.0314V18.6399z"></path>
</svg>
