<svg class="force-icon force-icon-Doc_Sync c-m-sidebar-prefix-icon" width="1em" height="1em" viewBox="0 0 49 48"
     fill="currentColor" xmlns="http://www.w3.org/2000/svg">
  <path opacity=".5" fill="#5E6673"
        d="M14.0521 27.2582L12.1855 27.2582L15.8768 22.8364L19.568 27.2582L17.6931 27.2582C17.6932 28.6463 18.1048 30.0033 18.876 31.1575C19.6473 32.3118 20.7435 33.2114 22.026 33.7426C23.3085 34.2739 24.7198 34.4129 26.0813 34.1421C27.1165 33.9362 28.0875 33.5004 28.925 32.8719C29.364 32.5424 29.9897 32.5358 30.3778 32.9239L31.5469 34.093C31.9351 34.4812 31.9378 35.1145 31.5152 35.4648C30.1559 36.5916 28.5335 37.3667 26.7916 37.7132C24.7238 38.1245 22.5805 37.9134 20.6326 37.1066C18.6848 36.2997 17.0199 34.9334 15.8486 33.1804C15.0496 31.9846 14.5047 30.6454 14.239 29.2457C14.1153 28.5936 14.0521 27.9283 14.0521 27.2582Z"></path>
  <path fill-rule="evenodd" clip-rule="evenodd"
        fill="#5E6673"
        d="M42.7591 42.4001V16.4016C42.7591 15.9709 42.5855 15.5584 42.2774 15.2573L31.2255 4.45574C30.9265 4.16358 30.5251 4 30.1071 4H8.35928C7.47562 4 6.75928 4.71634 6.75928 5.6V42.4001C6.75928 43.2837 7.47562 44.0001 8.35927 44.0001H41.1591C42.0428 44.0001 42.7591 43.2837 42.7591 42.4001ZM35.4657 27.214H37.3328L33.6416 31.6358L29.9504 27.214H31.8247C31.8246 25.8259 31.413 24.4689 30.6418 23.3147C29.8705 22.1604 28.7743 21.2608 27.4918 20.7296C26.2093 20.1983 24.798 20.0593 23.4365 20.3301C22.4013 20.5361 21.4303 20.9718 20.5928 21.6003C20.1538 21.9298 19.5281 21.9364 19.14 21.5483L17.9709 20.3792C17.5827 19.9911 17.58 19.3577 18.0026 19.0074C19.3619 17.8806 20.9843 17.1055 22.7262 16.759C24.794 16.3477 26.9373 16.5588 28.8852 17.3656C30.833 18.1725 32.4979 19.5388 33.6692 21.2918C34.4682 22.4876 35.0131 23.8268 35.2788 25.2265C35.4025 25.8787 35.4657 26.544 35.4657 27.214ZM12.1855 27.2582H14.0521C14.0521 27.9283 14.1153 28.5936 14.239 29.2457C14.5047 30.6454 15.0496 31.9846 15.8486 33.1804C17.0199 34.9334 18.6848 36.2997 20.6326 37.1066C22.5805 37.9134 24.7238 38.1245 26.7916 37.7132C28.5335 37.3667 30.1559 36.5916 31.5152 35.4648C31.9378 35.1145 31.9351 34.4812 31.5469 34.093L30.3778 32.9239C29.9897 32.5358 29.364 32.5424 28.925 32.8719C28.0875 33.5004 27.1165 33.9362 26.0813 34.1421C24.7198 34.4129 23.3085 34.2739 22.026 33.7426C20.7435 33.2114 19.6473 32.3118 18.876 31.1575C18.1048 30.0033 17.6932 28.6463 17.6931 27.2582H19.568L15.8768 22.8364L12.1855 27.2582Z"></path>
</svg>
