<svg class="force-icon force-icon-Doc_Case c-m-sidebar-prefix-icon" width="1em" height="1em" viewBox="0 0 49 48"
     fill="currentColor" xmlns="http://www.w3.org/2000/svg">
  <path fill-rule="evenodd" clip-rule="evenodd"
        d="M42.7591 16.4013V42.3998C42.7591 43.2835 42.0428 43.9998 41.1591 43.9998H7.7157C6.83204 43.9998 6.75928 43.2835 6.75928 42.3998V5.59975C6.75928 4.7161 7.47562 3.99976 8.35928 3.99976H30.1071C30.5251 3.99976 30.9265 4.16333 31.2255 4.4555L42.2774 15.2571C42.5855 15.5581 42.7591 15.9706 42.7591 16.4013ZM21.6714 18.521C21.6714 20.0016 20.867 21.2942 19.6714 21.9859V24.0618H22.6714V28.0618H19.6714V30.5212H22.6714V34.5212H18.6714C17.0145 34.5212 15.6714 33.1781 15.6714 31.5212V21.9859C14.4758 21.2942 13.6714 20.0016 13.6714 18.521C13.6714 16.3119 15.4622 14.521 17.6714 14.521C19.8805 14.521 21.6714 16.3119 21.6714 18.521ZM34.6225 28.0618H26.6225V24.0618H34.6225V28.0618ZM34.6225 34.5212H26.6225V30.5212H34.6225V34.5212ZM34.6225 21.5212H26.6225V17.5212H34.6225V21.5212Z"></path>
</svg>
