<svg class="force-icon force-icon-OverlapRect_Config c-m-sidebar-prefix-icon" width="1em" height="1em"
     viewBox="0 0 48 48" fill="currentColor" xmlns="http://www.w3.org/2000/svg">
  <path opacity=".5" fill="#5E6673"
        d="M14.232 5.02808C12.9993 5.02808 12 6.02737 12 7.26006V10H36C37.1046 10 38 10.8954 38 12V36.2759H40.7683C42.0009 36.2759 43.0002 35.2766 43.0002 34.0439V7.26006C43.0002 6.02737 42.0009 5.02808 40.7683 5.02808H14.232Z"></path>
  <path fill="#5E6673" d="M15.1118 24.6663C15.1118 24.114 15.5595 23.6663 16.1118 23.6663 16.6641 23.6663 17.1118 24.114 17.1118 24.6663 17.1118 25.1495 16.769 25.5527 16.3134 25.6459 16.2483 25.6593 16.1809 25.6663 16.1118 25.6663 15.6286 25.6663 15.2254 25.3235 15.1321 24.8678 15.1188 24.8027 15.1118 24.7353 15.1118 24.6663zM26.8765 29.5662C26.8765 30.1184 26.4287 30.5662 25.8765 30.5662 25.3242 30.5662 24.8765 30.1184 24.8765 29.5662 24.8765 29.0829 25.2192 28.6797 25.6749 28.5865 25.74 28.5732 25.8074 28.5662 25.8765 28.5662 26.3597 28.5662 26.7629 28.9089 26.8561 29.3646 26.8695 29.4297 26.8765 29.4971 26.8765 29.5662z"></path>
  <path fill="#5E6673" d="M15.1118 24.6663C15.1118 24.114 15.5595 23.6663 16.1118 23.6663 16.6641 23.6663 17.1118 24.114 17.1118 24.6663 17.1118 25.1495 16.769 25.5527 16.3134 25.6459 16.2483 25.6593 16.1809 25.6663 16.1118 25.6663 15.6286 25.6663 15.2254 25.3235 15.1321 24.8678 15.1188 24.8027 15.1118 24.7353 15.1118 24.6663zM26.8765 29.5662C26.8765 30.1184 26.4287 30.5662 25.8765 30.5662 25.3242 30.5662 24.8765 30.1184 24.8765 29.5662 24.8765 29.0829 25.2192 28.6797 25.6749 28.5865 25.74 28.5732 25.8074 28.5662 25.8765 28.5662 26.3597 28.5662 26.7629 28.9089 26.8561 29.3646 26.8695 29.4297 26.8765 29.4971 26.8765 29.5662z"></path>
  <path fill="#5E6673" fill-rule="evenodd" clip-rule="evenodd"
        d="M5 12C5 10.8954 5.89543 10 7 10H36.082C37.1866 10 38.082 10.8954 38.082 12V41.0001C38.082 42.1047 37.1866 43.0001 36.082 43.0001H7C5.89543 43.0001 5 42.1047 5 41.0001V12ZM14.0239 19.1162V21.2537C12.877 21.957 12.1118 23.2223 12.1118 24.6663C12.1118 26.1102 12.877 27.3755 14.0239 28.0788V35.1162C14.0239 35.6685 14.4716 36.1162 15.0239 36.1162H17.0239C17.5762 36.1162 18.0239 35.6685 18.0239 35.1162V28.1805C19.2678 27.5023 20.1118 26.1828 20.1118 24.6663C20.1118 23.1497 19.2678 21.8303 18.0239 21.152V19.1162C18.0239 18.5639 17.5762 18.1162 17.0239 18.1162H15.0239C14.4716 18.1162 14.0239 18.5639 14.0239 19.1162ZM27.9644 35.1162V32.9787C29.1113 32.2754 29.8765 31.0101 29.8765 29.5662C29.8765 28.1222 29.1113 26.8569 27.9644 26.1536V19.1162C27.9644 18.5639 27.5166 18.1162 26.9644 18.1162H24.9644C24.4121 18.1162 23.9644 18.5639 23.9644 19.1162V26.0519C22.7205 26.7302 21.8765 28.0496 21.8765 29.5662C21.8765 31.0827 22.7205 32.4022 23.9644 33.0804V35.1162C23.9644 35.6685 24.4121 36.1162 24.9644 36.1162H26.9644C27.5166 36.1162 27.9644 35.6685 27.9644 35.1162Z"></path>
</svg>
