<svg width="20" height="20" fill="none" xmlns="http://www.w3.org/2000/svg">
  <path d="M5.417 2.083a.833.833 0 0 0-.833.834V4.4l3.779-.84a.759.759 0 0 1 .33 0l5.709 1.269a.758.758 0 0 1 .594.74v7.721c0 .806-.32 1.567-.87 2.127h2.958c.46 0 .833-.373.833-.834V2.917a.833.833 0 0 0-.834-.834H5.418Z"
        fill="#5E6673" fill-opacity=".5"></path>
  <path d="M10.847 9.807a1.198 1.198 0 1 1-1.694-1.694 1.198 1.198 0 0 1 1.694 1.694Z" fill="#5E6673"></path>
  <path fill-rule="evenodd" clip-rule="evenodd"
        d="M14.996 13.29V5.57a.758.758 0 0 0-.594-.74l-5.71-1.27a.758.758 0 0 0-.33 0L2.654 4.83a.758.758 0 0 0-.594.74v7.721c0 1.074.567 2.067 1.492 2.613l4.59 2.709c.239.14.534.14.772 0l4.59-2.71a3.033 3.033 0 0 0 1.493-2.612ZM8.764 11.36a2.699 2.699 0 0 0 3.143-4.306 2.698 2.698 0 0 0-4.233 3.275l-2.938 2.937a.417.417 0 0 0 0 .59l1.32 1.32a.417.417 0 0 0 .589 0l.47-.472a.417.417 0 0 0 0-.59l-.552-.553.435-.435.554.555a.417.417 0 0 0 .59 0l.47-.472a.417.417 0 0 0 0-.589l-.554-.555.706-.705Z"
        fill="#5E6673"></path>
</svg>
