<svg class="force-icon force-icon-VerticalRect_Certificate c-m-sidebar-prefix-icon" width="1em" height="1em"
     viewBox="0 0 49 48" fill="currentColor" xmlns="http://www.w3.org/2000/svg">
  <path fill-rule="evenodd" clip-rule="evenodd" fill="#5E6673"
        d="M42.7806 16.4016V42.4001C42.7806 43.2837 42.0642 44.0001 41.1806 44.0001H8.38076C7.4971 44.0001 6.78076 43.2837 6.78076 42.4001V5.6C6.78076 4.71634 7.49711 4 8.38076 4H30.1286C30.5466 4 30.948 4.16358 31.247 4.45574L42.2989 15.2573C42.6069 15.5584 42.7806 15.9709 42.7806 16.4016ZM24.7806 17.4698C22.9923 17.4698 21.5425 18.9196 21.5425 20.708V22.0067H28.0188V20.708C28.0188 18.9196 26.569 17.4698 24.7806 17.4698ZM18.5425 20.708V22.0067H16.9898C16.5154 22.0067 16.1299 22.3907 16.1299 22.8666V33.9235C16.1299 34.3979 16.5139 34.7834 16.9898 34.7834H32.5721C33.0465 34.7834 33.432 34.3994 33.432 33.9235V22.8666C33.432 22.3922 33.0465 22.0067 32.5721 22.0067H31.0188V20.708C31.0188 17.2628 28.2259 14.4698 24.7806 14.4698C21.3354 14.4698 18.5425 17.2628 18.5425 20.708ZM25.3931 28.9116L25.6823 31.6585H23.8781L24.1673 28.9116C23.4504 28.6586 22.9324 27.9809 22.9324 27.1767C22.9324 26.1557 23.7591 25.3289 24.7802 25.3289C25.8012 25.3289 26.628 26.1557 26.628 27.1767C26.628 27.9809 26.1115 28.6586 25.3931 28.9116Z"></path>
</svg>
