<svg class="force-icon force-icon-Other_Service c-m-sidebar-prefix-icon" width="1em" height="1em" viewBox="0 0 49 48"
     fill="currentColor" xmlns="http://www.w3.org/2000/svg">
  <path opacity=".5"
        d="M26.7593 13C26.7593 8.02943 30.7887 4 35.7593 4C40.7298 4 44.7592 8.02944 44.7592 13C44.7592 17.9706 40.7298 22 35.7592 22H28.3568C27.4745 22 26.7593 21.2848 26.7593 20.4025V13Z"></path>
  <path d="M4.75928 13C4.75928 8.02944 8.78871 4 13.7593 4 18.7298 4 22.7592 8.02943 22.7592 13V20.4025C22.7592 21.2848 22.044 22 21.1617 22H13.7593C8.78872 22 4.75928 17.9706 4.75928 13zM26.7593 27.5975C26.7593 26.7152 27.4745 26 28.3568 26H35.7593C40.7299 26 44.7593 30.0295 44.7593 35 44.7593 39.9706 40.7299 44.0001 35.7593 44.0001 30.7887 44.0001 26.7593 39.9706 26.7593 35V27.5975zM4.75928 34.9998C4.75928 30.0292 8.78872 25.9998 13.7593 25.9998H21.1618C22.044 25.9998 22.7593 26.715 22.7593 27.5973V34.9998C22.7593 39.9704 18.7298 43.9998 13.7593 43.9998 8.78871 43.9998 4.75928 39.9704 4.75928 34.9998z"></path>
</svg>
