<svg class="force-icon force-icon-safety c-m-sidebar-prefix-icon" width="1em" height="1em" viewBox="0 0 20 20"
     fill="currentColor" xmlns="http://www.w3.org/2000/svg">
  <path fill="#5E6673" fill-rule="evenodd" clip-rule="evenodd"
        d="M10.309 1.2605C10.1041 1.17084 9.87111 1.17098 9.66638 1.26089L2.83664 4.26C2.54592 4.38766 2.35818 4.67476 2.3584 4.99228C2.35867 5.38957 2.35917 5.85335 2.35966 6.30816C2.36034 6.94605 2.361 7.56628 2.361 7.96062C2.361 10.8853 3.0317 13.0879 4.86651 15.3542C6.71066 17.6316 9.0594 18.539 9.7726 18.7734C9.91281 18.8194 10.0623 18.8172 10.2025 18.771C11.9861 18.1833 13.8117 16.9712 15.1093 15.3751C16.5416 13.6133 17.6409 11.4427 17.6409 8.1216C17.6409 7.80027 17.6414 5.92366 17.6416 4.993C17.6417 4.67507 17.4535 4.38772 17.1623 4.26024L10.309 1.2605ZM12.4131 7.37175C12.5694 7.2155 12.8227 7.2155 12.979 7.37175L13.5603 7.95313C13.7166 8.10937 13.7166 8.3627 13.5603 8.51894L9.49231 12.587C9.40868 12.6706 9.29724 12.7095 9.18776 12.7036C9.09251 12.6986 8.9987 12.6597 8.92595 12.5869L6.43962 10.1006C6.28338 9.94436 6.28338 9.69104 6.43962 9.53479L7.021 8.95341C7.17725 8.79717 7.43057 8.79717 7.58682 8.95341L9.20914 10.5757L12.4131 7.37175Z"></path>
  <path fill="#5E6673" fill-rule="evenodd" clip-rule="evenodd"
        d="M10.309 1.2605C10.1041 1.17084 9.87111 1.17098 9.66638 1.26089L2.83664 4.26C2.54592 4.38766 2.35818 4.67476 2.3584 4.99228C2.35867 5.38957 2.35917 5.85335 2.35966 6.30816C2.36034 6.94605 2.361 7.56628 2.361 7.96062C2.361 10.8853 3.0317 13.0879 4.86651 15.3542C6.71066 17.6316 9.0594 18.539 9.7726 18.7734C9.91281 18.8194 10.0623 18.8172 10.2025 18.771C11.9861 18.1833 13.8117 16.9712 15.1093 15.3751C16.5416 13.6133 17.6409 11.4427 17.6409 8.1216C17.6409 7.80027 17.6414 5.92366 17.6416 4.993C17.6417 4.67507 17.4535 4.38772 17.1623 4.26024L10.309 1.2605ZM12.4131 7.37175C12.5694 7.2155 12.8227 7.2155 12.979 7.37175L13.5603 7.95313C13.7166 8.10937 13.7166 8.3627 13.5603 8.51894L9.49231 12.587C9.40868 12.6706 9.29724 12.7095 9.18776 12.7036C9.09251 12.6986 8.9987 12.6597 8.92595 12.5869L6.43962 10.1006C6.28338 9.94436 6.28338 9.69104 6.43962 9.53479L7.021 8.95341C7.17725 8.79717 7.43057 8.79717 7.58682 8.95341L9.20914 10.5757L12.4131 7.37175Z"></path>
</svg>
