<svg width="20" height="20" viewBox="0 1 20 21" fill="currentcolor" xmlns="http://www.w3.org/2000/svg"
     style="color: currentcolor;">
  <path opacity="0.8"
        d="M5.83331 16.3191V17.9858C5.83331 18.446 6.20641 18.8191 6.66665 18.8191H13.3333C13.7936 18.8191 14.1667 18.446 14.1667 17.9858V16.3191H5.83331Z"
        fill="#5E6673"></path>
  <path fill-rule="evenodd" clip-rule="evenodd"
        d="M1.66644 3.81917C1.66644 3.35894 2.03954 2.98584 2.49978 2.98584H17.4999C17.9601 2.98584 18.3332 3.35894 18.3332 3.81917V15.4858C18.3332 15.9461 17.9601 16.3192 17.4999 16.3192H2.49978C2.03954 16.3192 1.66644 15.9461 1.66644 15.4858V3.81917Z"
        fill="#5E6673"></path>
  <path d="M6.80696 11.1846C6.80696 11.0911 6.79019 11.0037 6.75664 10.9222C6.7255 10.8407 6.67159 10.7641 6.59491 10.6922C6.51584 10.6227 6.41282 10.5592 6.28583 10.5017C6.16124 10.4418 6.0055 10.3867 5.81861 10.3364C5.52869 10.2573 5.27352 10.1615 5.05308 10.0489C4.83505 9.93625 4.65654 9.81286 4.51758 9.67868C4.37861 9.5445 4.27318 9.39595 4.2013 9.23302C4.13182 9.07009 4.09708 8.89279 4.09708 8.70111C4.09708 8.48068 4.1438 8.28061 4.23724 8.10091C4.33069 7.92121 4.46007 7.76787 4.6254 7.64088C4.79072 7.51389 4.986 7.41685 5.21122 7.34976C5.43644 7.28028 5.68084 7.24554 5.9444 7.24554C6.21754 7.24554 6.46673 7.28507 6.69195 7.36414C6.91957 7.44321 7.11485 7.55342 7.27777 7.69479C7.4407 7.83855 7.56769 8.00866 7.65874 8.20514C7.74979 8.40161 7.79531 8.61725 7.79531 8.85206H6.81055C6.80576 8.73465 6.7842 8.62683 6.74586 8.5286C6.70992 8.43036 6.65601 8.3453 6.58413 8.27342C6.50985 8.20394 6.41761 8.15003 6.30739 8.11169C6.19957 8.07096 6.07258 8.05059 5.92643 8.05059C5.79225 8.05059 5.67245 8.06737 5.56703 8.10091C5.464 8.13206 5.37654 8.17638 5.30466 8.23389C5.23278 8.29379 5.17768 8.36447 5.13934 8.44593C5.1034 8.525 5.08543 8.61126 5.08543 8.7047C5.08543 8.80294 5.10939 8.89159 5.15731 8.97066C5.20763 9.04973 5.27951 9.12041 5.37295 9.18271C5.46639 9.2474 5.57901 9.3061 5.71079 9.35881C5.84496 9.41153 5.99591 9.46064 6.16363 9.50617C6.34333 9.55648 6.51465 9.61758 6.67758 9.68946C6.8405 9.76134 6.99025 9.844 7.12683 9.93745C7.33288 10.0908 7.49701 10.2693 7.61921 10.473C7.7414 10.6766 7.8025 10.9114 7.8025 11.1774C7.8025 11.4074 7.75578 11.6123 7.66233 11.792C7.57129 11.9693 7.4443 12.119 7.28137 12.2412C7.11844 12.3658 6.92436 12.4604 6.69914 12.5251C6.47391 12.5874 6.22832 12.6186 5.96237 12.6186C5.7012 12.6186 5.44243 12.5802 5.18606 12.5036C4.93209 12.4245 4.71045 12.3095 4.52117 12.1585C4.34147 12.01 4.19891 11.8351 4.09348 11.6338C3.99045 11.4326 3.93894 11.1965 3.93894 10.9258H4.93089C4.93568 11.0839 4.96323 11.2193 5.01355 11.3319C5.06387 11.4445 5.13455 11.5368 5.2256 11.6087C5.31425 11.6805 5.42087 11.7333 5.54546 11.7668C5.67245 11.8003 5.81142 11.8171 5.96237 11.8171C6.09654 11.8171 6.21515 11.8015 6.31817 11.7704C6.4236 11.7392 6.51225 11.6961 6.58413 11.641C6.65601 11.5859 6.71112 11.52 6.74946 11.4433C6.78779 11.3643 6.80696 11.278 6.80696 11.1846ZM8.28062 12.5503V7.31742H9.63556C9.87756 7.31742 10.104 7.34737 10.3148 7.40727C10.5257 7.46477 10.7174 7.54743 10.8899 7.65525C11.0408 7.74391 11.175 7.85292 11.2924 7.98231C11.4122 8.1093 11.5164 8.24826 11.6051 8.39921C11.7081 8.58371 11.7872 8.78737 11.8423 9.01019C11.8998 9.23302 11.9285 9.47023 11.9285 9.72181V10.1531C11.9285 10.3951 11.9022 10.6239 11.8495 10.8395C11.7968 11.0552 11.7225 11.2529 11.6266 11.4326C11.5356 11.5931 11.429 11.7416 11.3068 11.8782C11.1846 12.0124 11.0504 12.125 10.9042 12.2161C10.7341 12.3239 10.546 12.4065 10.34 12.464C10.1363 12.5215 9.91829 12.5503 9.68588 12.5503H8.28062ZM9.29773 8.13685V11.738H9.68588C9.81047 11.738 9.92668 11.7225 10.0345 11.6913C10.1423 11.6602 10.2406 11.6147 10.3292 11.5548C10.4203 11.4925 10.5017 11.4134 10.5736 11.3175C10.6479 11.2193 10.7114 11.1055 10.7641 10.9761C10.8072 10.8635 10.8396 10.7389 10.8611 10.6023C10.8851 10.4634 10.8971 10.3136 10.8971 10.1531V9.71462C10.8971 9.56367 10.8851 9.42111 10.8611 9.28693C10.8396 9.15036 10.8072 9.02577 10.7641 8.91316C10.7114 8.77898 10.6419 8.65918 10.5556 8.55376C10.4718 8.44833 10.3735 8.36207 10.2609 8.29499C10.1747 8.24467 10.0788 8.20633 9.9734 8.17998C9.87037 8.15123 9.75776 8.13685 9.63556 8.13685H9.29773ZM14.0743 10.4011L13.5208 11.0085V12.5503H12.5073V7.31742H13.5208V9.71462L13.9952 9.07489L15.2675 7.31742H16.5038L14.7428 9.63196L16.5685 12.5503H15.3681L14.0743 10.4011Z"
        fill="white"></path>
  <path d="M6.75664 10.9222L6.67878 10.952L6.67959 10.9539L6.75664 10.9222ZM6.59491 10.6922L6.65194 10.6314L6.64992 10.6296L6.59491 10.6922ZM6.28583 10.5017L6.24971 10.5768L6.25145 10.5776L6.28583 10.5017ZM5.81861 10.3364L5.79668 10.4168L5.79694 10.4169L5.81861 10.3364ZM5.05308 10.0489L5.01484 10.1229L5.01517 10.1231L5.05308 10.0489ZM4.51758 9.67868L4.45969 9.73863L4.51758 9.67868ZM4.2013 9.23302L4.12464 9.26572L4.12506 9.26666L4.2013 9.23302ZM5.21122 7.34976L5.23501 7.42963L5.23579 7.42939L5.21122 7.34976ZM6.69195 7.36414L6.66435 7.44277L6.66461 7.44286L6.69195 7.36414ZM7.27777 7.69479L7.33291 7.6323L7.33239 7.63184L7.27777 7.69479ZM7.79531 8.85206V8.93539H7.87865V8.85206H7.79531ZM6.81055 8.85206L6.72729 8.85546L6.73055 8.93539H6.81055V8.85206ZM6.74586 8.5286L6.66758 8.55724L6.66823 8.55889L6.74586 8.5286ZM6.58413 8.27342L6.64309 8.21446L6.64106 8.21257L6.58413 8.27342ZM6.30739 8.11169L6.27793 8.18968L6.28002 8.1904L6.30739 8.11169ZM5.56703 8.10091L5.59115 8.18069L5.59229 8.18032L5.56703 8.10091ZM5.30466 8.23389L5.2526 8.1688L5.25132 8.16987L5.30466 8.23389ZM5.13934 8.44594L5.06393 8.41045L5.06348 8.41145L5.13934 8.44594ZM5.15731 8.97066L5.08603 9.01386L5.087 9.0154L5.15731 8.97066ZM5.37295 9.18271L5.42039 9.11418L5.41918 9.11337L5.37295 9.18271ZM5.71079 9.35881L5.67984 9.43619L5.68032 9.43638L5.71079 9.35881ZM6.16363 9.50617L6.1861 9.42592L6.18546 9.42574L6.16363 9.50617ZM7.12683 9.93745L7.17662 9.87054L7.17388 9.86867L7.12683 9.93745ZM7.66233 11.792L7.5884 11.7535L7.5882 11.7539L7.66233 11.792ZM7.28137 12.2412L7.23137 12.1745L7.23075 12.175L7.28137 12.2412ZM6.69914 12.5251L6.72136 12.6055L6.72215 12.6052L6.69914 12.5251ZM5.18606 12.5036L5.16129 12.5831L5.16218 12.5834L5.18606 12.5036ZM4.52117 12.1585L4.46807 12.2228L4.46921 12.2237L4.52117 12.1585ZM4.09348 11.6338L4.0193 11.6718L4.01966 11.6725L4.09348 11.6338ZM3.93894 10.9258V10.8425H3.85561V10.9258H3.93894ZM4.93089 10.9258L5.01418 10.9233L5.01173 10.8425H4.93089V10.9258ZM5.2256 11.6087L5.27808 11.5439L5.27723 11.5433L5.2256 11.6087ZM5.54546 11.7668L5.5238 11.8473L5.52418 11.8474L5.54546 11.7668ZM6.31817 11.7704L6.29456 11.6905L6.29406 11.6906L6.31817 11.7704ZM6.58413 11.641L6.53343 11.5749L6.58413 11.641ZM6.74946 11.4433L6.824 11.4806L6.82444 11.4797L6.74946 11.4433ZM6.89029 11.1846C6.89029 11.0809 6.87164 10.9826 6.8337 10.8905L6.67959 10.9539C6.70874 11.0247 6.72363 11.1013 6.72363 11.1846H6.89029ZM6.83448 10.8924C6.79799 10.797 6.73593 10.7102 6.65191 10.6314L6.53792 10.753C6.60724 10.818 6.653 10.8845 6.67881 10.952L6.83448 10.8924ZM6.64992 10.6296C6.56304 10.5532 6.45241 10.4857 6.3202 10.4258L6.25145 10.5776C6.37322 10.6328 6.46865 10.6922 6.5399 10.7548L6.64992 10.6296ZM6.32194 10.4266C6.19128 10.3638 6.03032 10.3071 5.84027 10.2559L5.79694 10.4169C5.98067 10.4663 6.13119 10.5198 6.24972 10.5768L6.32194 10.4266ZM5.84053 10.256C5.55501 10.1781 5.30538 10.0842 5.091 9.97465L5.01517 10.1231C5.24165 10.2388 5.50237 10.3365 5.79668 10.4168L5.84053 10.256ZM5.09132 9.97482C4.87864 9.86497 4.70727 9.746 4.57546 9.61873L4.45969 9.73863C4.60582 9.87971 4.79145 10.0075 5.01484 10.1229L5.09132 9.97482ZM4.57546 9.61873C4.44359 9.49141 4.34471 9.35163 4.27755 9.19939L4.12506 9.26666C4.20166 9.44028 4.31362 9.59759 4.45969 9.73863L4.57546 9.61873ZM4.27796 9.20033C4.21323 9.04856 4.18041 8.88249 4.18041 8.70111H4.01374C4.01374 8.90309 4.05041 9.09163 4.12465 9.26571L4.27796 9.20033ZM4.18041 8.70111C4.18041 8.49285 4.22444 8.30615 4.31118 8.13936L4.16331 8.06246C4.06316 8.25507 4.01374 8.4685 4.01374 8.70111H4.18041ZM4.31118 8.13936C4.39884 7.97077 4.52019 7.82676 4.67616 7.70696L4.57463 7.57479C4.39995 7.70897 4.26253 7.87165 4.16331 8.06246L4.31118 8.13936ZM4.67616 7.70696C4.83245 7.58692 5.01831 7.49418 5.23501 7.42963L5.18743 7.2699C4.95368 7.33952 4.74899 7.44086 4.57463 7.57479L4.67616 7.70696ZM5.23579 7.42939C5.45218 7.36263 5.68819 7.32887 5.9444 7.32887V7.1622C5.67348 7.1622 5.42071 7.19792 5.18665 7.27013L5.23579 7.42939ZM5.9444 7.32887C6.20948 7.32887 6.44917 7.36723 6.66435 7.44277L6.71956 7.28551C6.48428 7.20291 6.22561 7.1622 5.9444 7.1622V7.32887ZM6.66461 7.44286C6.88339 7.51885 7.06912 7.62408 7.22316 7.75773L7.33239 7.63184C7.16057 7.48277 6.95576 7.36756 6.7193 7.28542L6.66461 7.44286ZM7.22264 7.75727C7.37695 7.89343 7.49695 8.05421 7.58313 8.24017L7.73435 8.1701C7.63843 7.96312 7.50446 7.78367 7.33291 7.6323L7.22264 7.75727ZM7.58313 8.24017C7.66867 8.42476 7.71198 8.62832 7.71198 8.85206H7.87865C7.87865 8.60618 7.8309 8.37845 7.73435 8.1701L7.58313 8.24017ZM7.79531 8.76872H6.81055V8.93539H7.79531V8.76872ZM6.89382 8.84866C6.88869 8.72308 6.86554 8.60605 6.82349 8.4983L6.66823 8.55889C6.70285 8.64761 6.72283 8.74622 6.72729 8.85546L6.89382 8.84866ZM6.82412 8.49997C6.78414 8.39069 6.72376 8.2952 6.64306 8.2145L6.52521 8.33235C6.58826 8.3954 6.6357 8.47004 6.6676 8.55723L6.82412 8.49997ZM6.64106 8.21257C6.55712 8.13405 6.45436 8.07458 6.33477 8.03298L6.28002 8.1904C6.38085 8.22547 6.46259 8.27383 6.5272 8.33428L6.64106 8.21257ZM6.33684 8.03374C6.21747 7.98864 6.08006 7.96726 5.92643 7.96726V8.13393C6.0651 8.13393 6.18168 8.15328 6.27794 8.18965L6.33684 8.03374ZM5.92643 7.96726C5.78544 7.96726 5.65688 7.98487 5.54176 8.0215L5.59229 8.18032C5.68802 8.14986 5.79907 8.13393 5.92643 8.13393V7.96726ZM5.54291 8.02114C5.43141 8.05485 5.33406 8.10366 5.25261 8.16882L5.35672 8.29896C5.41903 8.24911 5.49659 8.20926 5.59114 8.18068L5.54291 8.02114ZM5.25132 8.16987C5.17047 8.23724 5.10766 8.31755 5.06394 8.41045L5.21474 8.48142C5.24769 8.4114 5.2951 8.35033 5.35801 8.29791L5.25132 8.16987ZM5.06348 8.41145C5.02225 8.50215 5.0021 8.60028 5.0021 8.7047H5.16876C5.16876 8.62224 5.18455 8.54785 5.2152 8.48042L5.06348 8.41145ZM5.0021 8.7047C5.0021 8.81718 5.02973 8.92094 5.08604 9.01385L5.22858 8.92747C5.18905 8.86225 5.16876 8.7887 5.16876 8.7047H5.0021ZM5.087 9.0154C5.14466 9.106 5.22551 9.18457 5.32673 9.25204L5.41918 9.11337C5.3335 9.05625 5.2706 8.99346 5.22761 8.92592L5.087 9.0154ZM5.32552 9.25122C5.42519 9.32023 5.54362 9.3817 5.67984 9.43619L5.74174 9.28144C5.6144 9.2305 5.5076 9.17457 5.42038 9.11419L5.32552 9.25122ZM5.68032 9.43638C5.81782 9.4904 5.97172 9.54043 6.1418 9.58659L6.18546 9.42574C6.0201 9.38086 5.8721 9.33265 5.74126 9.28125L5.68032 9.43638ZM6.14116 9.58641C6.31723 9.63571 6.4848 9.6955 6.64394 9.76571L6.71121 9.61322C6.54449 9.53967 6.36943 9.47725 6.1861 9.42592L6.14116 9.58641ZM6.64394 9.76571C6.80253 9.83567 6.94774 9.91589 7.07977 10.0062L7.17388 9.86867C7.03277 9.77212 6.87848 9.68701 6.71121 9.61322L6.64394 9.76571ZM7.07708 10.0043C7.27512 10.1517 7.43159 10.3222 7.54775 10.5158L7.69066 10.4301C7.56242 10.2164 7.39065 10.0299 7.17658 9.8706L7.07708 10.0043ZM7.54775 10.5158C7.66127 10.705 7.71917 10.9247 7.71917 11.1774H7.88583C7.88583 10.8982 7.82153 10.6482 7.69066 10.4301L7.54775 10.5158ZM7.71917 11.1774C7.71917 11.3958 7.67488 11.5872 7.5884 11.7535L7.73627 11.8304C7.83668 11.6373 7.88583 11.419 7.88583 11.1774H7.71917ZM7.5882 11.7539C7.50306 11.9197 7.38442 12.0598 7.23137 12.1745L7.33137 12.3079C7.50418 12.1783 7.63952 12.0188 7.73646 11.83L7.5882 11.7539ZM7.23075 12.175C7.07717 12.2925 6.89278 12.3828 6.67613 12.445L6.72215 12.6052C6.95595 12.5381 7.15971 12.4391 7.33199 12.3074L7.23075 12.175ZM6.67692 12.4448C6.45985 12.5049 6.22183 12.5352 5.96237 12.5352V12.7019C6.23482 12.7019 6.48798 12.67 6.72135 12.6055L6.67692 12.4448ZM5.96237 12.5352C5.70949 12.5352 5.45876 12.4981 5.20994 12.4237L5.16218 12.5834C5.42611 12.6623 5.69292 12.7019 5.96237 12.7019V12.5352ZM5.21083 12.424C4.96576 12.3477 4.75356 12.2373 4.57313 12.0934L4.46921 12.2237C4.66735 12.3817 4.89841 12.5013 5.16129 12.5831L5.21083 12.424ZM4.57427 12.0943C4.40287 11.9526 4.26745 11.7863 4.1673 11.5952L4.01966 11.6725C4.13036 11.8838 4.28006 12.0674 4.46807 12.2228L4.57427 12.0943ZM4.16766 11.5958C4.07173 11.4084 4.02227 11.1859 4.02227 10.9258H3.85561C3.85561 11.2072 3.90918 11.4567 4.0193 11.6718L4.16766 11.5958ZM3.93894 11.0091H4.93089V10.8425H3.93894V11.0091ZM4.84759 10.9283C4.85262 11.0944 4.88166 11.241 4.93747 11.3659L5.08963 11.2979C5.04481 11.1976 5.01873 11.0735 5.01418 10.9233L4.84759 10.9283ZM4.93747 11.3659C4.99292 11.49 5.07168 11.5933 5.17396 11.6741L5.27723 11.5433C5.19742 11.4802 5.13481 11.399 5.08963 11.2979L4.93747 11.3659ZM5.17311 11.6734C5.27194 11.7535 5.38941 11.8111 5.5238 11.8473L5.56713 11.6863C5.45233 11.6554 5.35656 11.6076 5.27808 11.5439L5.17311 11.6734ZM5.52418 11.8474C5.65906 11.883 5.80528 11.9004 5.96237 11.9004V11.7338C5.81756 11.7338 5.68585 11.7177 5.56675 11.6862L5.52418 11.8474ZM5.96237 11.9004C6.10279 11.9004 6.22979 11.8842 6.34229 11.8502L6.29406 11.6906C6.2005 11.7189 6.0903 11.7338 5.96237 11.7338V11.9004ZM6.34179 11.8503C6.45498 11.8169 6.55332 11.7696 6.63483 11.7071L6.53343 11.5749C6.47118 11.6226 6.39222 11.6616 6.29456 11.6905L6.34179 11.8503ZM6.63483 11.7071C6.71616 11.6448 6.77968 11.5692 6.82399 11.4806L6.67492 11.4061C6.64256 11.4708 6.59586 11.527 6.53343 11.5749L6.63483 11.7071ZM6.82444 11.4797C6.86862 11.3886 6.89029 11.2898 6.89029 11.1846H6.72363C6.72363 11.2662 6.70697 11.34 6.67447 11.407L6.82444 11.4797ZM8.28062 12.5503H8.19729V12.6336H8.28062V12.5503ZM8.28062 7.31742V7.23408H8.19729V7.31742H8.28062ZM10.3148 7.40727L10.2921 7.48743L10.2929 7.48766L10.3148 7.40727ZM10.8899 7.65525L10.8457 7.72595L10.8477 7.72711L10.8899 7.65525ZM11.2924 7.98231L11.2307 8.03832L11.2318 8.03949L11.2924 7.98231ZM11.6051 8.39921L11.6779 8.35857L11.6769 8.35701L11.6051 8.39921ZM11.8423 9.01019L11.7614 9.0302L11.7616 9.03102L11.8423 9.01019ZM11.6266 11.4326L11.6992 11.4737L11.7002 11.4718L11.6266 11.4326ZM11.3068 11.8782L11.3684 11.9343L11.3689 11.9338L11.3068 11.8782ZM10.9042 12.2161L10.8602 12.1453L10.8596 12.1457L10.9042 12.2161ZM10.34 12.464L10.3176 12.3838L10.3173 12.3838L10.34 12.464ZM9.29773 8.13685V8.05352H9.21439V8.13685H9.29773ZM9.29773 11.738H9.21439V11.8214H9.29773V11.738ZM10.3292 11.5548L10.3759 11.6238L10.3763 11.6235L10.3292 11.5548ZM10.5736 11.3175L10.5071 11.2673L10.5069 11.2675L10.5736 11.3175ZM10.7641 10.9761L10.8413 11.0076L10.8419 11.0059L10.7641 10.9761ZM10.8611 10.6023L10.779 10.5882L10.7788 10.5893L10.8611 10.6023ZM10.8611 9.28693L10.7788 9.29993L10.7791 9.30158L10.8611 9.28693ZM10.7641 8.91316L10.8419 8.88335L10.8416 8.88269L10.7641 8.91316ZM10.5556 8.55376L10.4904 8.60564L10.4911 8.60652L10.5556 8.55376ZM10.2609 8.29499L10.3036 8.22339L10.3029 8.22301L10.2609 8.29499ZM9.9734 8.17998L9.95099 8.26027L9.95319 8.26082L9.9734 8.17998ZM8.36396 12.5503V7.31742H8.19729V12.5503H8.36396ZM8.28062 7.40075H9.63556V7.23408H8.28062V7.40075ZM9.63556 7.40075C9.87065 7.40075 10.0893 7.42984 10.2921 7.48743L10.3376 7.32711C10.1186 7.26489 9.88447 7.23408 9.63556 7.23408V7.40075ZM10.2929 7.48766C10.4965 7.54319 10.6806 7.62272 10.8457 7.72592L10.934 7.58459C10.7541 7.47215 10.5549 7.38636 10.3368 7.32687L10.2929 7.48766ZM10.8477 7.72711C10.9914 7.8115 11.119 7.91518 11.2307 8.03831L11.3541 7.92631C11.231 7.79067 11.0903 7.67631 10.9321 7.5834L10.8477 7.72711ZM11.2318 8.03949C11.3473 8.16191 11.4477 8.29585 11.5332 8.44141L11.6769 8.35701C11.5851 8.20068 11.4771 8.05668 11.353 7.92512L11.2318 8.03949ZM11.5323 8.43984C11.6314 8.61732 11.7079 8.81396 11.7614 9.0302L11.9232 8.99019C11.8664 8.76077 11.7848 8.55009 11.6778 8.35858L11.5323 8.43984ZM11.7616 9.03102C11.8172 9.24644 11.8452 9.4766 11.8452 9.72181H12.0119C12.0119 9.46385 11.9824 9.2196 11.923 8.98937L11.7616 9.03102ZM11.8452 9.72181V10.1531H12.0119V9.72181H11.8452ZM11.8452 10.1531C11.8452 10.389 11.8195 10.6111 11.7685 10.8198L11.9304 10.8593C11.9849 10.6367 12.0119 10.4012 12.0119 10.1531H11.8452ZM11.7685 10.8198C11.7173 11.0292 11.6454 11.2203 11.5531 11.3933L11.7002 11.4718C11.7996 11.2854 11.8762 11.0811 11.9304 10.8593L11.7685 10.8198ZM11.5542 11.3914C11.466 11.5468 11.3629 11.6905 11.2447 11.8226L11.3689 11.9338C11.4951 11.7927 11.6052 11.6393 11.6991 11.4737L11.5542 11.3914ZM11.2452 11.8221C11.1278 11.9509 10.9995 12.0585 10.8602 12.1453L10.9483 12.2868C11.1013 12.1915 11.2413 12.0739 11.3684 11.9343L11.2452 11.8221ZM10.8596 12.1457C10.6968 12.2489 10.5163 12.3283 10.3176 12.3838L10.3624 12.5443C10.5758 12.4847 10.7714 12.3989 10.9489 12.2864L10.8596 12.1457ZM10.3173 12.3838C10.1217 12.4391 9.91138 12.467 9.68588 12.467V12.6336C9.9252 12.6336 10.1509 12.604 10.3626 12.5442L10.3173 12.3838ZM9.68588 12.467H8.28062V12.6336H9.68588V12.467ZM9.21439 8.13685V11.738H9.38106V8.13685H9.21439ZM9.29773 11.8214H9.68588V11.6547H9.29773V11.8214ZM9.68588 11.8214C9.81745 11.8214 9.94151 11.8049 10.0576 11.7714L10.0114 11.6113C9.91184 11.64 9.8035 11.6547 9.68588 11.6547V11.8214ZM10.0576 11.7714C10.1734 11.7379 10.2796 11.6888 10.3759 11.6238L10.2826 11.4857C10.2015 11.5405 10.1112 11.5824 10.0114 11.6113L10.0576 11.7714ZM10.3763 11.6235C10.4755 11.5557 10.5634 11.4701 10.6403 11.3675L10.5069 11.2675C10.4401 11.3567 10.3651 11.4292 10.2822 11.486L10.3763 11.6235ZM10.6401 11.3678C10.7193 11.2631 10.7862 11.1428 10.8413 11.0076L10.6869 10.9447C10.6366 11.0682 10.5765 11.1755 10.5071 11.2673L10.6401 11.3678ZM10.8419 11.0059C10.8874 10.8872 10.9211 10.7568 10.9434 10.6153L10.7788 10.5893C10.758 10.721 10.727 10.8399 10.6863 10.9463L10.8419 11.0059ZM10.9432 10.6165C10.9681 10.4723 10.9804 10.3177 10.9804 10.1531H10.8137C10.8137 10.3095 10.8021 10.4545 10.779 10.5882L10.9432 10.6165ZM10.9804 10.1531V9.71462H10.8137V10.1531H10.9804ZM10.9804 9.71462C10.9804 9.55928 10.9681 9.41178 10.9432 9.27228L10.7791 9.30158C10.8021 9.43044 10.8137 9.56807 10.8137 9.71462H10.9804ZM10.9434 9.27394C10.9211 9.13244 10.8874 9.00212 10.8419 8.88335L10.6863 8.94296C10.727 9.04942 10.758 9.16828 10.7788 9.29993L10.9434 9.27394ZM10.8416 8.88269C10.7859 8.74091 10.7122 8.6135 10.6201 8.50099L10.4911 8.60652C10.5716 8.70486 10.6368 8.81705 10.6865 8.94363L10.8416 8.88269ZM10.6208 8.50188C10.5309 8.38879 10.4251 8.29578 10.3036 8.22339L10.2183 8.36658C10.322 8.42837 10.4126 8.50787 10.4904 8.60563L10.6208 8.50188ZM10.3029 8.22301C10.2093 8.16839 10.106 8.12723 9.99361 8.09913L9.95319 8.26082C10.0516 8.28544 10.1401 8.32095 10.2189 8.36697L10.3029 8.22301ZM9.9958 8.09971C9.88453 8.06866 9.76428 8.05352 9.63556 8.05352V8.22018C9.75124 8.22018 9.85622 8.23379 9.951 8.26024L9.9958 8.09971ZM9.63556 8.05352H9.29773V8.22018H9.63556V8.05352ZM14.0743 10.4011L14.1457 10.3581L14.088 10.2623L14.0127 10.3449L14.0743 10.4011ZM13.5208 11.0085L13.4592 10.9523L13.4375 10.9762V11.0085H13.5208ZM13.5208 12.5503V12.6336H13.6041V12.5503H13.5208ZM12.5073 12.5503H12.424V12.6336H12.5073V12.5503ZM12.5073 7.31742V7.23408H12.424V7.31742H12.5073ZM13.5208 7.31742H13.6041V7.23408H13.5208V7.31742ZM13.5208 9.71462H13.4375V9.96689L13.5877 9.76426L13.5208 9.71462ZM13.9952 9.07489L14.0622 9.12453L14.0627 9.12375L13.9952 9.07489ZM15.2675 7.31742V7.23408H15.2249L15.2 7.26855L15.2675 7.31742ZM16.5038 7.31742L16.5702 7.36788L16.672 7.23408H16.5038V7.31742ZM14.7428 9.63196L14.6764 9.5815L14.6416 9.62733L14.6721 9.67616L14.7428 9.63196ZM16.5685 12.5503V12.6336H16.719L16.6392 12.5061L16.5685 12.5503ZM15.3681 12.5503L15.2967 12.5933L15.321 12.6336H15.3681V12.5503ZM14.0127 10.3449L13.4592 10.9523L13.5824 11.0646L14.1359 10.4572L14.0127 10.3449ZM13.4375 11.0085V12.5503H13.6041V11.0085H13.4375ZM13.5208 12.467H12.5073V12.6336H13.5208V12.467ZM12.5906 12.5503V7.31742H12.424V12.5503H12.5906ZM12.5073 7.40075H13.5208V7.23408H12.5073V7.40075ZM13.4375 7.31742V9.71462H13.6041V7.31742H13.4375ZM13.5877 9.76426L14.0622 9.12452L13.9283 9.02525L13.4539 9.66498L13.5877 9.76426ZM14.0627 9.12375L15.335 7.36628L15.2 7.26855L13.9277 9.02602L14.0627 9.12375ZM15.2675 7.40075H16.5038V7.23408H15.2675V7.40075ZM16.4375 7.26696L14.6764 9.5815L14.8091 9.68242L16.5702 7.36788L16.4375 7.26696ZM14.6721 9.67616L16.4979 12.5945L16.6392 12.5061L14.8134 9.58776L14.6721 9.67616ZM16.5685 12.467H15.3681V12.6336H16.5685V12.467ZM15.4395 12.5073L14.1457 10.3581L14.0029 10.4441L15.2967 12.5933L15.4395 12.5073Z"
        fill="#5E6673"></path>
</svg>
