<svg class="force-icon force-icon-House_Dashboard c-m-sidebar-prefix-icon" width="1em" height="1em" viewBox="0 0 48 48"
     fill="currentColor" xmlns="http://www.w3.org/2000/svg">
  <path opacity=".5" fill-rule="evenodd" clip-rule="evenodd" fill="#5E6673"
        d="M25.0853 4.96743C24.4174 4.56424 23.5811 4.56424 22.9132 4.96744L5.014 15.7725C4.38375 16.1529 3.99854 16.8354 3.99854 17.5716V23.6595C3.99854 24.4558 4.86827 24.9467 5.54996 24.5352L22.9133 14.0536C23.5812 13.6504 24.4175 13.6504 25.0854 14.0536L42.4487 24.5352C43.1304 24.9467 44.0002 24.4558 44.0002 23.6595V17.5716C44.0002 16.8355 43.6149 16.1529 42.9847 15.7725L25.0853 4.96743Z"></path>
  <path fill-rule="evenodd" clip-rule="evenodd" fill="#5E6673"
        d="M22.9134 14.0536L7.30309 23.477C7.22288 23.7009 7.18018 23.9401 7.18018 24.1852V40.8988C7.18018 42.0594 8.12106 43.0003 9.28171 43.0003H38.7169C39.8775 43.0003 40.8184 42.0594 40.8184 40.8988V24.1852C40.8184 23.94 40.7757 23.7008 40.6954 23.4767L25.0855 14.0536C24.4176 13.6504 23.5813 13.6504 22.9134 14.0536ZM28 36.5793C28.5523 36.5793 29 36.1316 29 35.5793V33.5793C29 33.0271 28.5523 32.5793 28 32.5793H20C19.4477 32.5793 19 33.0271 19 33.5793V35.5793C19 36.1316 19.4477 36.5793 20 36.5793H28Z"></path>
</svg>
