<svg width="20" height="20" fill="none" xmlns="http://www.w3.org/2000/svg">
  <path fill-rule="evenodd" clip-rule="evenodd"
        d="M12.947 4.189c.236.728.425 1.57.56 2.49h3.412a7.695 7.695 0 0 0-4.623-4.003c.26.45.475.967.651 1.513ZM10 2.327c-.988 0-1.841 1.777-2.242 4.352h4.484C11.841 4.104 10.988 2.327 10 2.327Zm-2.296.35c-.26.449-.475.966-.651 1.512a15.327 15.327 0 0 0-.56 2.49H3.082a7.695 7.695 0 0 1 4.623-4.003ZM3.08 13.32a7.695 7.695 0 0 0 4.623 4.003 7.922 7.922 0 0 1-.651-1.513 15.325 15.325 0 0 1-.56-2.49H3.082Zm9.215 4.003a7.695 7.695 0 0 0 4.623-4.003h-3.413c-.134.92-.323 1.762-.559 2.49a7.923 7.923 0 0 1-.65 1.513Zm-2.296.35c-.988 0-1.841-1.778-2.242-4.353h4.484c-.401 2.575-1.254 4.352-2.242 4.352Z"
        fill="#5E6673"></path>
  <path d="M2.61 7.929a7.68 7.68 0 0 0-.283 2.07c0 .718.099 1.413.283 2.071h3.74A24.356 24.356 0 0 1 6.263 10c0-.71.03-1.405.087-2.071H2.61ZM17.39 12.07a7.679 7.679 0 0 0 .283-2.07c0-.718-.099-1.412-.283-2.071h-3.74c.057.666.086 1.36.086 2.07 0 .711-.03 1.405-.086 2.071h3.74ZM7.513 10c0-.718.032-1.412.092-2.071h4.79c.06.659.091 1.353.091 2.07 0 .718-.032 1.413-.091 2.071h-4.79A23.015 23.015 0 0 1 7.513 10Z"
        fill="#5E6673" fill-opacity=".5"></path>
</svg>
