<svg xmlns="http://www.w3.org/2000/svg" width="20" height="20" viewBox="0 0 20 20" fill="none">
  <path opacity="0.5" d="M6.30555 5.99846L6.30555 9.4207H13.5V14.1651" stroke="#5E6673" stroke-width="1.86667"/>
  <path fill-rule="evenodd" clip-rule="evenodd"
        d="M3.77778 2.5C3.34822 2.5 3 2.84822 3 3.27778V5.77469C3 6.20424 3.34822 6.55246 3.77778 6.55246H16.2218C16.6513 6.55246 16.9996 6.20424 16.9996 5.77469V3.27778C16.9996 2.84822 16.6513 2.5 16.2218 2.5H3.77778ZM3 8.7207C3 8.29115 3.34822 7.94292 3.77778 7.94292H16.2222C16.6518 7.94292 17 8.29115 17 8.7207V10.1284C17 10.558 16.6518 10.9062 16.2222 10.9062H3.77778C3.34822 10.9062 3 10.558 3 10.1284V8.7207ZM3.00038 12.9203C3.00038 12.4908 3.3486 12.1425 3.77816 12.1425H16.2222C16.6517 12.1425 16.9999 12.4908 16.9999 12.9203V16.4979C16.9999 16.9275 16.6517 17.2757 16.2222 17.2757H3.77816C3.3486 17.2757 3.00038 16.9275 3.00038 16.4979V12.9203Z"
        fill="#5E6673"/>
  <ellipse cx="13.7534" cy="14.6288" rx="0.953399" ry="0.92881" fill="#F5F8FD"/>
  <ellipse cx="6.28673" cy="4.26507" rx="0.953399" ry="0.92881" fill="#F5F8FD"/>
</svg>
