<svg class="force-icon force-icon-Other_Purchase c-m-sidebar-prefix-icon" width="1em" height="1em" viewBox="0 0 49 48"
     fill="currentColor" xmlns="http://www.w3.org/2000/svg">
  <path fill-rule="evenodd" clip-rule="evenodd"
        d="M10.7386 8H38.7805C39.8942 8 40.797 8.89543 40.797 10V42.0321C40.797 43.453 39.3449 44.4207 38.0185 43.8838L25.2521 38.3075C24.756 38.1067 24.1998 38.1099 23.7062 38.3165L11.5225 43.8367C10.1932 44.393 8.72217 43.425 8.72217 41.994V10C8.72217 8.89543 9.62497 8 10.7386 8ZM19.7187 20.0198C19.1619 20.0198 18.7105 20.4675 18.7105 21.0198V23.0198C18.7105 23.5721 19.1619 24.0198 19.7187 24.0198H29.8011C30.3579 24.0198 30.8093 23.5721 30.8093 23.0198V21.0198C30.8093 20.4675 30.3579 20.0198 29.8011 20.0198H19.7187Z"></path>
  <path opacity=".5"
        d="M5.75928 15.2V5.6C5.75928 4.71635 6.47562 4 7.35928 4H42.1593C43.0429 4 43.7593 4.71634 43.7593 5.6V15.2C43.7593 16.0837 43.0429 16.8 42.1593 16.8H40.797V9.99995C40.797 8.89538 39.8942 7.99995 38.7805 7.99995H10.7386C9.62497 7.99995 8.72217 8.89538 8.72217 9.99995V16.8H7.35927C6.47562 16.8 5.75928 16.0837 5.75928 15.2Z"></path>
</svg>
