<svg width="16" height="16" fill="none" xmlns="http://www.w3.org/2000/svg">
  <path fill-rule="evenodd" clip-rule="evenodd"
        d="M14.666 8.333a.322.322 0 01-.326.334h-.668a.348.348 0 01-.342-.334A6.006 6.006 0 007.667 2.67a.348.348 0 01-.334-.342V1.66c0-.185.15-.335.334-.326a7.34 7.34 0 017 7zm-2.673 0a.316.316 0 01-.322.334h-.668a.36.36 0 01-.35-.333 3.338 3.338 0 00-2.987-2.988.36.36 0 01-.333-.35V4.33c0-.184.15-.335.334-.322a4.672 4.672 0 014.326 4.326zM4.045 5.805l-1.44 1.44c-1.51 1.51-1.663 3.858-.444 5.494l-.398.399c-.096.095-.12.14-.137.193a.273.273 0 00-.001.16c.015.053.04.097.133.191l.302.302c.094.094.138.118.191.134a.273.273 0 00.16-.002c.054-.016.098-.041.194-.137l.398-.398c1.636 1.22 3.984 1.067 5.495-.444l1.44-1.44c.095-.095.12-.14.137-.193a.273.273 0 00.001-.16c-.016-.053-.04-.097-.133-.191l-.993-.993.368-.368c.095-.096.12-.14.137-.193a.273.273 0 00.001-.161c-.015-.053-.04-.097-.133-.19l-.303-.303c-.093-.094-.137-.118-.19-.133a.273.273 0 00-.16.001c-.054.017-.098.041-.194.137l-.368.368-1.684-1.684.368-.368c.096-.095.12-.14.137-.193a.273.273 0 00.002-.16c-.016-.053-.04-.097-.134-.191l-.302-.302c-.094-.094-.138-.118-.19-.134a.273.273 0 00-.161.002c-.053.016-.098.041-.193.137l-.369.368L4.59 5.8c-.094-.094-.138-.118-.191-.134a.273.273 0 00-.16.002c-.054.016-.098.041-.194.137zm.26 1.424l-.858.857c-1.183 1.183-1.2 3.085-.038 4.247s3.064 1.145 4.247-.038l.858-.857-4.21-4.21z"
        fill="#4E5969"></path>
</svg>
