<svg class="force-icon force-icon-exploration c-m-sidebar-prefix-icon" width="1em" height="1em" viewBox="0 0 48 48"
     fill="currentColor" xmlns="http://www.w3.org/2000/svg">
  <path opacity=".5" fill-rule="evenodd" clip-rule="evenodd" fill="#5E6673"
        d="M38.9833 39.6382C35.0929 43.3671 29.8136 45.6584 23.9992 45.6584C18.1851 45.6584 12.9061 43.3673 9.01575 39.6388C13.4585 37.1862 18.5663 35.7904 24.0001 35.7904C29.4334 35.7904 34.5408 37.186 38.9833 39.6382Z"></path>
  <path fill-rule="evenodd" clip-rule="evenodd" fill="#5E6673"
        d="M45.6566 23.9991C45.6566 30.1463 43.0955 35.6954 38.982 39.6374C34.5398 37.1856 29.4328 35.7903 23.9999 35.7903C18.5668 35.7903 13.4595 37.1858 9.01707 39.6378C4.90337 35.6958 2.34204 30.1465 2.34204 23.9991C2.34204 12.0381 12.0383 2.3418 23.9993 2.3418C35.9603 2.3418 45.6566 12.0381 45.6566 23.9991ZM25.4993 5.60132C25.4993 5.32518 25.2754 5.10132 24.9993 5.10132H22.9993C22.7231 5.10132 22.4993 5.32518 22.4993 5.60132V10.2513C22.4993 10.5275 22.7231 10.7513 22.9993 10.7513H24.9993C25.2754 10.7513 25.4993 10.5275 25.4993 10.2513V5.60132ZM12.1983 10.46C12.003 10.2647 11.6864 10.2647 11.4912 10.46L10.077 11.8742C9.8817 12.0695 9.8817 12.3861 10.077 12.5813L13.365 15.8694C13.5603 16.0646 13.8769 16.0646 14.0721 15.8694L15.4863 14.4552C15.6816 14.2599 15.6816 13.9433 15.4863 13.748L12.1983 10.46ZM5.21338 22.9478C5.21338 22.6716 5.43724 22.4478 5.71338 22.4478H10.3634C10.6395 22.4478 10.8634 22.6716 10.8634 22.9478V24.9478C10.8634 25.2239 10.6395 25.4478 10.3634 25.4478H5.71338C5.43724 25.4478 5.21338 25.2239 5.21338 24.9478V22.9478ZM37.6355 22.4478C37.3594 22.4478 37.1355 22.6716 37.1355 22.9478V24.9478C37.1355 25.2239 37.3594 25.4478 37.6355 25.4478H42.2855C42.5616 25.4478 42.7855 25.2239 42.7855 24.9478V22.9478C42.7855 22.6716 42.5616 22.4478 42.2855 22.4478H37.6355ZM33.5078 12.3988C34.1895 11.8506 35.1746 11.9039 35.7932 12.5224C36.4128 13.142 36.465 14.1292 35.9143 14.8108L26.5958 26.3439C25.3617 27.8712 23.0761 27.9922 21.6876 26.6038C20.297 25.2132 20.4209 22.9233 21.9534 21.6909L33.5078 12.3988Z"></path>
</svg>
