<svg class="cs-icon cs-icon-Tag c-m-sidebar-prefix-icon" width="1em" height="1em" viewBox="0 0 48 48"
     fill="currentColor" xmlns="http://www.w3.org/2000/svg">
  <path fill-rule="evenodd" clip-rule="evenodd" fill="#5E6673"
        d="M9.09326 3.98022H38.9061C40.0107 3.98022 40.9061 4.87566 40.9061 5.98022V42.0123C40.9061 43.4332 39.4659 44.4009 38.1503 43.864L24.4881 38.2877C23.9962 38.0869 23.4445 38.0901 22.9549 38.2967L9.87071 43.817C8.55227 44.3732 7.09326 43.4052 7.09326 41.9743V5.98022C7.09326 4.87565 7.98869 3.98022 9.09326 3.98022ZM19 16C18.4477 16 18 16.4477 18 17V19C18 19.5523 18.4477 20 19 20H29C29.5523 20 30 19.5523 30 19V17C30 16.4477 29.5523 16 29 16H19Z"></path>
</svg>
