<svg width="20" height="20" fill="none" xmlns="http://www.w3.org/2000/svg">
  <path fill-rule="evenodd" clip-rule="evenodd"
        d="M18.335 10a8.335 8.335 0 1 1-16.67 0 8.335 8.335 0 0 1 16.67 0Zm-8.606 6.063a.416.416 0 0 1-.083-.084l-1.667-2.222a.417.417 0 0 1 .333-.667h.798v-1.736c0-.23.187-.416.417-.416h.869c.23 0 .416.186.416.416v1.736h.834a.417.417 0 0 1 .333.667l-1.666 2.222a.417.417 0 0 1-.584.084Zm.583-12.042a.416.416 0 0 0-.666 0L7.979 6.243a.417.417 0 0 0 .333.667h.834v1.736c0 .23.186.417.416.417h.87c.23 0 .416-.186.416-.417V6.91h.798a.417.417 0 0 0 .333-.667l-1.667-2.222Zm.917 5.833a.419.419 0 0 1 .083-.083l2.223-1.667a.417.417 0 0 1 .666.334v.797h1.737c.23 0 .416.187.416.417v.869c0 .23-.186.417-.416.417H14.2v.833a.417.417 0 0 1-.666.333l-2.223-1.666a.417.417 0 0 1-.083-.584Zm-2.541.584a.417.417 0 0 0 0-.667L6.465 8.104a.417.417 0 0 0-.666.334v.833H4.062a.416.416 0 0 0-.416.417v.869c0 .23.186.416.416.416H5.8v.798a.417.417 0 0 0 .666.333l2.223-1.666Z"
        fill="#5E6673"></path>
</svg>
