<svg class="force-icon force-icon-Cloud_monitoring c-m-sidebar-prefix-icon" width="1em" height="1em" viewBox="0 0 49 48"
     fill="currentColor" xmlns="http://www.w3.org/2000/svg">
  <path opacity=".5"
        d="M14.7593 36.7852L14.7593 41.9999C14.7593 43.1045 15.6548 43.9999 16.7593 43.9999H32.7594C33.8639 43.9999 34.7594 43.1045 34.7594 41.9999L34.7593 36.7852H14.7593Z"></path>
  <path fill-rule="evenodd" clip-rule="evenodd"
        d="M13.0259 36.7852V36.7817C12.9373 36.784 12.8484 36.7852 12.7593 36.7852C7.23643 36.7852 2.75928 32.308 2.75928 26.7852C2.75928 22.6234 5.30165 19.0554 8.91802 17.5495C10.2641 9.85128 16.9812 4 25.0649 4C33.381 4 40.2507 10.1924 41.3145 18.2177C44.2149 19.9684 46.1542 23.1503 46.1542 26.7852C46.1542 32.308 41.677 36.7852 36.1542 36.7852H13.0259ZM22.9489 13.8186C23.1288 13.5101 23.5803 13.5279 23.7355 13.8495L28.794 24.3346L30.9994 21.5714H35.5156C35.7618 21.5714 35.9614 21.771 35.9614 22.0172V24.6921C35.9614 24.9384 35.7618 25.138 35.5156 25.138H32.7161L28.4871 30.4365C28.2823 30.6931 27.8798 30.6478 27.7371 30.3521L23.073 20.6845L20.4753 25.138H14.0034C13.7572 25.138 13.5576 24.9384 13.5576 24.6921V22.0172C13.5576 21.771 13.7572 21.5714 14.0034 21.5714H18.4267L22.9489 13.8186Z"></path>
</svg>
