<svg class="force-icon force-icon-Other_ResourceConfig c-m-sidebar-prefix-icon" width="1em" height="1em"
     viewBox="0 0 49 48" fill="currentColor" xmlns="http://www.w3.org/2000/svg">
  <path d="M23.3742 35.2732C24.1389 35.716 25.3787 35.716 26.1435 35.2732L37.5173 28.6881L44.229 32.5746C44.9937 33.0174 44.9937 33.7353 44.229 34.178L26.1435 44.649C25.3787 45.0917 24.1389 45.0917 23.3742 44.6489L5.28933 34.1768C4.52463 33.734 4.52465 33.0161 5.28938 32.5733L12.001 28.6875L23.3742 35.2732Z" fill="#5E6673"></path>
  <path opacity=".5" fill="#5E6673"
        d="M23.3742 27.3218C24.1389 27.7646 25.3787 27.7646 26.1435 27.3219L38.7473 20.0247L44.229 23.1989C44.9937 23.6417 44.9937 24.3596 44.229 24.8024L26.1435 35.2733C25.3787 35.7161 24.1389 35.716 23.3742 35.2732L5.28933 24.8011C4.52463 24.3583 4.52465 23.6404 5.28938 23.1977L10.7711 20.0239L23.3742 27.3218Z"></path>
  <path d="M26.1435 27.322C25.3787 27.7647 24.1389 27.7647 23.3742 27.3219L5.28933 16.8498C4.52463 16.407 4.52465 15.6891 5.28938 15.2463L23.3749 4.7754C24.1396 4.33264 25.3795 4.33268 26.1442 4.77549L44.229 15.2476C44.9937 15.6904 44.9937 16.4083 44.229 16.851L26.1435 27.322Z" fill="#5E6673"></path>
</svg>
