<svg class="cs-icon cs-icon-MQInstance c-m-sidebar-prefix-icon" width="1em" height="1em" viewBox="0 0 21 20" fill="none"
     xmlns="http://www.w3.org/2000/svg">
  <path fill-rule="evenodd" clip-rule="evenodd"
        d="M10.0833 1.75227C10.3411 1.60341 10.6588 1.60341 10.9166 1.75227L17.4344 5.51528C17.6922 5.66414 17.851 5.93924 17.851 6.23696V13.763C17.851 14.0607 17.6922 14.3358 17.4344 14.4847L10.9166 18.2477C10.6588 18.3965 10.3411 18.3965 10.0833 18.2477L3.56559 14.4847C3.30776 14.3358 3.14893 14.0607 3.14893 13.763V6.23696C3.14893 5.93924 3.30776 5.66414 3.56559 5.51528L10.0833 1.75227ZM11.4168 13.5416C11.4168 13.6567 11.3235 13.75 11.2085 13.75H9.79177C9.67671 13.75 9.58344 13.6567 9.58344 13.5416V6.4583C9.58344 6.34324 9.67671 6.24997 9.79177 6.24997H11.2085C11.3235 6.24997 11.4168 6.34324 11.4168 6.4583V13.5416ZM7.74997 11.8542C7.74997 11.9343 7.70411 12.0072 7.63199 12.0419L6.2153 12.7238C6.07698 12.7903 5.91662 12.6895 5.91662 12.536V7.46369C5.91662 7.31018 6.07698 7.20939 6.2153 7.27596L7.63199 7.95778C7.70411 7.99249 7.74997 8.06546 7.74997 8.14551V11.8542ZM14.7846 12.7238C14.9229 12.7903 15.0833 12.6895 15.0833 12.536V7.46369C15.0833 7.31018 14.9229 7.20939 14.7846 7.27596L13.3679 7.95778C13.2958 7.99249 13.2499 8.06546 13.2499 8.14551V11.8542C13.2499 11.9343 13.2958 12.0072 13.3679 12.0419L14.7846 12.7238Z"
        fill="#5E6673"></path>
</svg>
