<svg class="force-icon force-icon-Doc_Log c-m-sidebar-prefix-icon" width="1em" height="1em" viewBox="0 0 49 49"
     fill="currentColor" xmlns="http://www.w3.org/2000/svg">
  <path fill-rule="evenodd" clip-rule="evenodd" fill="#5E6673"
        d="M42.7591 16.9016V42.9001C42.7591 43.7837 42.0428 44.5001 41.1591 44.5001H8.35927C7.47562 44.5001 6.75928 43.7837 6.75928 42.9001V6.1C6.75928 5.21634 7.47562 4.5 8.35928 4.5H30.1071C30.5251 4.5 30.9265 4.66358 31.2255 4.95574L42.2774 15.7573C42.5855 16.0584 42.7591 16.4709 42.7591 16.9016ZM19.7593 20.9509H29.7593C30.3116 20.9509 30.7593 21.3986 30.7593 21.9509V23.9509C30.7593 24.5032 30.3116 24.9509 29.7593 24.9509H19.7593C19.207 24.9509 18.7593 24.5032 18.7593 23.9509V21.9509C18.7593 21.3986 19.207 20.9509 19.7593 20.9509ZM19.7593 30.9509H29.7593C30.3116 30.9509 30.7593 31.3986 30.7593 31.9509V33.9509C30.7593 34.5032 30.3116 34.9509 29.7593 34.9509H19.7593C19.207 34.9509 18.7593 34.5032 18.7593 33.9509V31.9509C18.7593 31.3986 19.207 30.9509 19.7593 30.9509Z"></path>
</svg>
