<svg xmlns="http://www.w3.org/2000/svg" width="20" height="20" fill="none" viewBox="0 0 20 20">
  <path fill="#5E6673" fill-rule="evenodd"
        d="M13.228 6.049V4.083h-6.44v1.965l-2.832 5.689-.004.006-1.807 3.63c-.51 1.025-.07 2.258.984 2.754.289.136.605.206.925.206h11.893c1.171 0 2.12-.923 2.12-2.061 0-.31-.071-.617-.21-.896l-1.805-3.638-.008-.015zM9.635 10.99c1.37-1.11 2.672-.922 3.796-.67l2.5 5.224a.667.667 0 0 1-.6.955H4.666a.667.667 0 0 1-.602-.953l2.024-4.257c.234.104.494.173.817.25.834.198 1.825.184 2.729-.549"
        clip-rule="evenodd" opacity="0.5"></path>
  <path fill="#5E6673" fill-rule="evenodd"
        d="M9.635 10.991c1.37-1.11 2.672-.922 3.796-.67l2.5 5.224a.667.667 0 0 1-.6.955H4.666a.667.667 0 0 1-.602-.953l2.024-4.257c.234.104.494.173.817.25.834.198 1.825.184 2.729-.549M12.083 15a1.25 1.25 0 1 0 0-2.5 1.25 1.25 0 0 0 0 2.5"
        clip-rule="evenodd"></path>
  <path fill="#5E6673"
        d="M6.056 2.235a.417.417 0 0 1 .388-.568h7.124c.293 0 .495.295.388.568l-.727 1.853H6.782z"></path>
</svg>
