<svg class="force-icon force-icon-Shield_Ops c-m-sidebar-prefix-icon" width="1em" height="1em" viewBox="0 0 49 48"
     fill="currentColor" xmlns="http://www.w3.org/2000/svg">
  <path fill-rule="evenodd" clip-rule="evenodd" fill="#5E6673"
        d="M25.5342 4.09238C25.0222 3.86829 24.4399 3.86863 23.9281 4.09334L8.22705 10.9881C7.50041 11.3072 7.03117 12.025 7.03174 12.8186C7.03238 13.7189 7.0335 14.7577 7.03459 15.7771C7.03618 17.2571 7.03772 18.6961 7.03772 19.611C7.03772 26.3961 8.5937 31.5061 12.8504 36.7637C17.0972 42.0084 22.4975 44.1211 24.1951 44.6837C24.5452 44.7998 24.9178 44.7939 25.2679 44.6778C29.3936 43.3097 33.6119 40.5037 36.613 36.8122C39.936 32.7251 42.4863 27.6892 42.4863 19.9845C42.4863 19.2495 42.4873 15.007 42.4879 12.8186C42.4881 12.024 42.0178 11.3073 41.2898 10.9887L25.5342 4.09238ZM17.0531 18.275C16.5003 19.195 16.1931 20.2848 16.2177 21.4586C16.2884 24.843 19.0893 27.644 22.4738 27.7147C23.4399 27.7349 24.3491 27.5304 25.1536 27.1491L30.0974 32.093L32.8521 29.3384L27.9082 24.3945C28.2895 23.59 28.4939 22.6808 28.4738 21.7147C28.403 18.3303 25.6021 15.5293 22.2177 15.4586C21.1629 15.4366 20.1759 15.6823 19.3191 16.1335L23.5588 20.3732L21.355 22.577L17.0531 18.275Z"></path>
</svg>
