<svg class="force-icon force-icon-Doc_Code c-m-sidebar-prefix-icon" width="1em" height="1em" viewBox="0 0 49 48"
     fill="currentColor" xmlns="http://www.w3.org/2000/svg">
  <path fill-rule="evenodd" clip-rule="evenodd"
        d="M42.7591 42.4001V16.4016C42.7591 15.9709 42.5855 15.5584 42.2774 15.2573L31.2255 4.45574C30.9265 4.16358 30.5251 4 30.1071 4H8.35928C7.47562 4 6.75928 4.71634 6.75928 5.6V42.4001C6.75928 43.2837 7.47562 44.0001 8.35927 44.0001H41.1591C42.0428 44.0001 42.7591 43.2837 42.7591 42.4001ZM18.9872 23.9999L15.6085 20.6212C15.2179 20.2307 15.2179 19.5975 15.6085 19.207L17.0227 17.7928C17.4132 17.4023 18.0464 17.4023 18.4369 17.7928L23.9369 23.2928C24.3274 23.6833 24.3274 24.3165 23.9369 24.707L18.4369 30.207C18.0464 30.5975 17.4132 30.5975 17.0227 30.207L15.6085 28.7928C15.2179 28.4023 15.218 27.7691 15.6085 27.3786L18.9872 23.9999ZM25.2026 29.5C25.2026 30.0523 25.6504 30.5 26.2026 30.5H32.2026C32.7549 30.5 33.2026 30.0523 33.2026 29.5V27.5C33.2026 26.9477 32.7549 26.5 32.2026 26.5H26.2026C25.6504 26.5 25.2026 26.9477 25.2026 27.5V29.5Z"></path>
</svg>
