<svg width="20" height="21" fill="none" xmlns="http://www.w3.org/2000/svg" class="c-m-sidebar-prefix-icon">
  <path opacity="0.5"
        d="M6.904 3.859a.48.48 0 0 1 .48-.48H18.24a.48.48 0 0 1 .48.48v10.796a.48.48 0 0 1-.48.48h-3.795a.48.48 0 0 1-.479-.444l-.435-5.803a.48.48 0 0 0-.443-.443l-5.74-.435a.48.48 0 0 1-.444-.478V3.859Z"
        fill="#5E6673"></path>
  <path fill-rule="evenodd" clip-rule="evenodd"
        d="M15.078 7.486a1.01 1.01 0 0 0-1.01-1.01H3.01A1.01 1.01 0 0 0 2 7.487v9.752c0 .557.452 1.009 1.01 1.009h11.059a1.01 1.01 0 0 0 1.009-1.01V7.487ZM8.394 9.153a.33.33 0 0 1 .363-.286l.584.066c.181.02.311.185.291.368v.008l-.847 6.268a.33.33 0 0 1-.363.286l-.584-.066a.333.333 0 0 1-.291-.368v-.008l.847-6.268Zm-2.59 1.374a.326.326 0 0 1 .457-.01l.414.389a.338.338 0 0 1 .011.477L5.55 12.56l1.136 1.176a.338.338 0 0 1-.011.478l-.414.388a.326.326 0 0 1-.457-.01l-1.765-1.797a.336.336 0 0 1 0-.47l1.765-1.798Zm5.468 0a.326.326 0 0 0-.458-.01l-.413.389a.338.338 0 0 0-.012.477l1.137 1.177-1.137 1.176-.006.007a.336.336 0 0 0 .018.471l.413.388c.13.123.332.118.458-.01l1.764-1.797a.337.337 0 0 0 0-.47l-1.764-1.798Z"
        fill="#5E6673"></path>
</svg>
