<svg width="20" height="20" viewBox="0 0 20 20" fill="currentcolor" xmlns="http://www.w3.org/2000/svg"
     style="color: currentcolor;">
  <rect x="0.083374" y="8.90186" width="7.5" height="7.5" rx="0.416667" fill="#5E6673" fill-opacity="0.5"></rect>
  <path d="M15.5 0.56897C15.7301 0.56897 15.9167 0.755518 15.9167 0.985636V14.319C15.9167 14.5491 15.7301 14.7356 15.5 14.7356H2.16667C1.93655 14.7356 1.75 14.5491 1.75 14.319V0.985637C1.75 0.755518 1.93655 0.56897 2.16667 0.56897H15.5Z"
        fill="#5E6673"></path>
  <path fill-rule="evenodd" clip-rule="evenodd"
        d="M6.26925 6.74918L5.18439 7.83405C4.20808 8.81036 4.20808 10.3933 5.18439 11.3696C6.1607 12.3459 7.74361 12.3459 8.71992 11.3696L10.1931 9.89644C11.1694 8.92013 11.1694 7.33722 10.1931 6.36091C9.98645 6.15429 9.75266 5.9914 9.50321 5.87224L8.49486 6.8806C8.79119 6.89701 9.0828 7.01841 9.30918 7.24479C9.79733 7.73295 9.79733 8.5244 9.30918 9.01256L7.83604 10.4857C7.34788 10.9739 6.55643 10.9739 6.06827 10.4857C5.58011 9.99754 5.58012 9.20608 6.06827 8.71793L6.46347 8.32273C6.22801 7.82982 6.16327 7.27573 6.26925 6.74918Z"
        fill="white"></path>
  <path fill-rule="evenodd" clip-rule="evenodd"
        d="M11.271 7.05061L11.6662 6.65538C12.1544 6.16722 12.1544 5.37577 11.6662 4.88761C11.1781 4.39946 10.3866 4.39946 9.89847 4.88761L8.42533 6.36075C7.93717 6.84891 7.93717 7.64036 8.42533 8.12852C8.6517 8.3549 8.94331 8.47629 9.23965 8.49271L8.23129 9.50107C7.98184 9.3819 7.74806 9.21902 7.54144 9.0124C6.56513 8.03609 6.56513 6.45318 7.54144 5.47687L9.01458 4.00373C9.99089 3.02742 11.5738 3.02742 12.5501 4.00373C13.5264 4.98004 13.5264 6.56295 12.5501 7.53926L11.4652 8.62416C11.5712 8.09761 11.5065 7.54352 11.271 7.05061Z"
        fill="white"></path>
</svg>
