<svg xmlns="http://www.w3.org/2000/svg" width="20" height="20" viewBox="0 0 20 20" fill="none">
  <path opacity="0.5"
        d="M5.92999 2.09503C5.41637 2.09503 5 2.5114 5 3.02503V4.16667H15C15.4602 4.16667 15.8333 4.53976 15.8333 5V15.1149H16.9868C17.5004 15.1149 17.9168 14.6986 17.9168 14.185V3.02503C17.9168 2.5114 17.5004 2.09503 16.9868 2.09503H5.92999Z"
        fill="#5E6673"/>
  <path fill-rule="evenodd" clip-rule="evenodd"
        d="M2.91667 4.16666C2.45643 4.16666 2.08333 4.53976 2.08333 5V17.0834C2.08333 17.5436 2.45643 17.9167 2.91667 17.9167H15.0342C15.4944 17.9167 15.8675 17.5436 15.8675 17.0834V5C15.8675 4.53976 15.4944 4.16666 15.0342 4.16666H2.91667Z"
        fill="#5E6673"/>
  <path d="M12.8389 13.5659C12.9694 13.6964 12.877 13.9196 12.6924 13.9196H10.9159C10.8244 13.9196 10.7502 13.9938 10.7502 14.0854V16.3805C10.7879 17.2352 11.482 17.9164 12.3327 17.9164C12.3524 17.9164 12.372 17.916 12.3915 17.9153V17.9167H10.7469V17.9161H9.03986C8.12443 17.9161 7.0019 16.7936 7.0019 15.8781V14.0854C7.0019 13.9938 6.92769 13.9196 6.83615 13.9196H5.10761C4.923 13.9196 4.83057 13.6964 4.96113 13.5659L8.60704 9.9213C8.76885 9.75955 9.03114 9.75955 9.19296 9.9213L12.8389 13.5659Z"
        fill="#F5F8FD"/>
</svg>
