<svg xmlns="http://www.w3.org/2000/svg" width="20" height="20" fill="none">
  <path d="M9.423 14.697c.319.185.835.185 1.154 0l4.739-2.744 2.796 1.62c.319.184.319.483 0 .668l-7.535 4.363c-.319.184-.835.184-1.154 0L1.888 14.24c-.32-.184-.32-.483 0-.668l2.796-1.619 4.739 2.744Z"
        fill="#5E6673"/>
  <path opacity=".5"
        d="M9.423 11.384c.319.184.835.185 1.154 0l5.251-3.04 2.284 1.322c.319.185.319.484 0 .668l-7.535 4.363c-.319.185-.835.185-1.154 0l-7.535-4.363c-.32-.185-.32-.484 0-.668l2.284-1.323 5.25 3.041Z"
        fill="#5E6673"/>
  <path d="M10.577 11.384c-.319.185-.835.185-1.154 0L1.888 7.021c-.32-.185-.32-.484 0-.668L9.423 1.99c.319-.185.835-.185 1.154 0l7.535 4.363c.319.185.319.484 0 .668l-7.535 4.363Z"
        fill="#5E6673"/>
</svg>
