<svg class="cs-icon cs-icon-MQWhiteList c-m-sidebar-prefix-icon" width="1em" height="1em" viewBox="0 0 21 20"
     xmlns="http://www.w3.org/2000/svg" fill="#5E6673">
  <path opacity=".5" d="M8.18129 2.08337L2.5835 7.68117V2.963C2.5835 2.4772 2.97732 2.08337 3.46313 2.08337H8.18129Z"
        fill="#5E6673"></path>
  <g opacity=".5" fill="#5E6673">
    <path fill="#5E6673"
          d="M10.5492 9.63247C10.6842 9.33042 10.7594 8.99479 10.7594 8.64126 10.7594 8.28774 10.6842 7.95211 10.5492 7.65006 10.9192 6.82215 11.7383 6.24658 12.6895 6.24658 13.9876 6.24658 15.04 7.31872 15.04 8.64126 15.04 9.96381 13.9876 11.0359 12.6895 11.0359 11.7383 11.0359 10.9192 10.4604 10.5492 9.63247zM11.2589 15.3306H15.5395V14.1344C15.5395 12.5334 14.2416 11.2355 12.6405 11.2355 11.793 11.2355 11.0303 11.5992 10.5002 12.1791 10.9714 12.6946 11.2589 13.381 11.2589 14.1344V15.3306z"></path>
  </g>
  <path fill-rule="evenodd" clip-rule="evenodd"
        d="M2.58325 17.0371V7.68117L8.18105 2.08337H17.537C18.0228 2.08337 18.4166 2.4772 18.4166 2.963V17.0371C18.4166 17.5229 18.0228 17.9167 17.537 17.9167H3.46288C2.97708 17.9167 2.58325 17.5229 2.58325 17.0371ZM10.759 8.64126C10.759 9.96381 9.70666 11.0359 8.40853 11.0359C7.1104 11.0359 6.05805 9.96381 6.05805 8.64126C6.05805 7.31872 7.1104 6.24658 8.40853 6.24658C9.70666 6.24658 10.759 7.31872 10.759 8.64126ZM5.46065 14.1344C5.46065 12.5334 6.75855 11.2355 8.35959 11.2355C9.96063 11.2355 11.2585 12.5334 11.2585 14.1344V15.3306H5.46065V14.1344ZM10.759 8.64126C10.759 8.99479 10.684 9.33042 10.5491 9.63247C10.919 10.4604 11.7382 11.0359 12.6894 11.0359C13.9875 11.0359 15.0398 9.96381 15.0398 8.64126C15.0398 7.31872 13.9875 6.24658 12.6894 6.24658C11.7382 6.24658 10.919 6.82215 10.5491 7.65006C10.684 7.95211 10.759 8.28774 10.759 8.64126ZM15.5394 15.3306H11.2585V14.1344C11.2585 13.381 10.9713 12.6946 10.5001 12.1791C11.0302 11.5992 11.7928 11.2355 12.6404 11.2355C14.2415 11.2355 15.5394 12.5334 15.5394 14.1344V15.3306Z"
        fill="#5E6673"></path>
</svg>
