<svg xmlns="http://www.w3.org/2000/svg" width="20" height="20" viewBox="0 0 20 20" fill="none">
  <path opacity="0.5"
        d="M5.20311 1.63645H17.0226C17.8351 1.63645 18.4926 2.30131 18.4926 3.11391L18.4994 14.4607C18.4996 14.8395 18.0417 15.0293 17.7738 14.7615L15.5451 12.5327H5.20311C4.39052 12.5327 3.72568 11.8679 3.72568 11.0553V3.11391C3.72568 2.30131 4.39052 1.63645 5.20311 1.63645Z"
        fill="#5E6673"/>
  <path d="M14.9525 4.42626H8.92312H2.89369C2.12715 4.42626 1.50695 5.05343 1.50695 5.81998L1.50056 17.3367C1.50034 17.7154 1.95827 17.9052 2.22608 17.6374L4.28739 15.5761H14.9525C15.7191 15.5761 16.3462 14.9489 16.3462 14.1823V5.81998C16.3462 5.05343 15.7191 4.42626 14.9525 4.42626Z"
        fill="#5E6673"/>
  <path d="M10.55 8.50268C10.55 9.44484 9.76834 10.2054 8.8 10.2054C7.83167 10.2054 7.05 9.44484 7.05 8.50268C7.05 7.56051 7.83167 6.79997 8.8 6.79997C9.76834 6.79997 10.55 7.56051 10.55 8.50268Z"
        fill="#F5F8FD"/>
  <path d="M5.3 12.7027C5.3 11.5675 7.63334 10.9432 8.8 10.9432C9.96667 10.9432 12.3 11.5675 12.3 12.7027V13.2702H5.3V12.7027Z"
        fill="#F5F8FD"/>
</svg>
