<svg class="force-icon force-icon-Shield_Safety c-m-sidebar-prefix-icon" width="1em" height="1em" viewBox="0 0 49 49"
     fill="currentColor" xmlns="http://www.w3.org/2000/svg">
  <path fill="#5E6673" opacity=".5" fill-rule="evenodd" clip-rule="evenodd"
        d="M24.6489 4.42627V45.2664C24.4959 45.2602 24.3435 45.2329 24.1951 45.1837C22.4975 44.6211 17.0972 42.5084 12.8504 37.2637C8.5937 32.0061 7.03772 26.8961 7.03772 20.111C7.03772 19.1961 7.03618 17.7571 7.03459 16.2771C7.0335 15.2577 7.03238 14.2189 7.03174 13.3186C7.03117 12.525 7.50041 11.8071 8.22705 11.4881L23.9281 4.59331C24.1584 4.49222 24.4029 4.43653 24.6489 4.42627Z"></path>
  <path fill="#5E6673" fill-rule="evenodd" clip-rule="evenodd"
        d="M23.9283 4.5931C24.44 4.36839 25.0224 4.36804 25.5344 4.59214L41.29 11.4884C42.0179 11.8071 42.4882 12.5237 42.488 13.3184C42.4875 15.5068 42.4865 19.7493 42.4865 20.4843C42.4865 28.189 39.9361 33.2248 36.6131 37.312C33.612 41.0034 29.3937 43.8095 25.2681 45.1775C25.0663 45.2444 24.857 45.2747 24.6489 45.2662V4.4261C24.403 4.43636 24.1584 4.49205 23.9282 4.59314L23.9283 4.5931ZM8.227 11.4879C8.15894 11.5178 8.09315 11.5512 8.02979 11.5878L8.03005 11.5877C8.09322 11.5512 8.15881 11.5179 8.22665 11.4881L8.227 11.4879ZM8.227 11.4879C8.22704 11.4879 8.22708 11.4879 8.22712 11.4879L8.22719 11.4878L8.227 11.4879Z"></path>
</svg>
