<svg width="20" height="20" fill="none" xmlns="http://www.w3.org/2000/svg">
  <path opacity=".5"
        d="M5.93 2.083a.93.93 0 0 0-.93.93v1.142h10c.46 0 .833.373.833.833v10.115h1.154a.93.93 0 0 0 .93-.93V3.013a.93.93 0 0 0-.93-.93H5.93Z"
        fill="#5E6673"></path>
  <path d="M10.568 9.912a1.818 1.818 0 1 1-3.636 0 1.818 1.818 0 0 1 3.636 0Z" fill="#5E6673"></path>
  <path fill-rule="evenodd" clip-rule="evenodd"
        d="M2.917 4.166a.833.833 0 0 0-.833.833v12.084c0 .46.373.833.833.833H15c.46 0 .834-.373.834-.833V4.999A.833.833 0 0 0 15 4.166H2.917Zm9.469 5.746c0 1.636-2.414 4.571-3.308 5.603a.432.432 0 0 1-.656 0c-.894-1.032-3.308-3.967-3.308-5.603a3.636 3.636 0 1 1 7.272 0Z"
        fill="#5E6673"></path>
</svg>
