<svg xmlns="http://www.w3.org/2000/svg" width="20" height="20" viewBox="0 0 20 20" fill="none">
  <path opacity="0.5"
        d="M5.74338 15.3703H13.9138L14.1912 17.3842C14.2603 17.8856 13.8789 18.3335 13.3829 18.3335H6.27436C5.77832 18.3335 5.3969 17.8856 5.466 17.3842L5.74338 15.3703Z"
        fill="#5E6673"/>
  <path d="M17.1882 2.52126H2.46979C2.01895 2.52126 1.65347 2.89435 1.65347 3.35459V14.5367C1.65347 14.9969 2.01895 15.37 2.46979 15.37H17.1882C17.639 15.37 18.0045 14.9969 18.0045 14.5367V3.35459C18.0045 2.89435 17.639 2.52126 17.1882 2.52126Z"
        fill="#5E6673"/>
  <path fill-rule="evenodd" clip-rule="evenodd" d="M5.98812 5.03416H8.64119V6.28416H7.21261V7.7425H5.98812V5.03416Z"
        fill="#B5BCC9"/>
  <path fill-rule="evenodd" clip-rule="evenodd" d="M5.98812 12.8572H8.64119V11.6072H7.21261V10.1489H5.98812V12.8572Z"
        fill="#B5BCC9"/>
  <path fill-rule="evenodd" clip-rule="evenodd" d="M13.6691 5.03416H11.016V6.28416H12.4446V7.7425H13.6691V5.03416Z"
        fill="#B5BCC9"/>
  <path fill-rule="evenodd" clip-rule="evenodd"
        d="M14.5742 9.82958L11.6319 12.8332L9.49935 10.6563L10.3652 9.77241L11.6319 11.0655L13.7084 8.9457L14.5742 9.82958Z"
        fill="#F5F8FD"/>
</svg>
