<svg width="20" height="20" fill="none" xmlns="http://www.w3.org/2000/svg">
  <path fill-rule="evenodd" clip-rule="evenodd"
        d="M1.666 7.703a1 1 0 0 1 1-1h14.667a1 1 0 0 1 1 1v5.678a1 1 0 0 1-1 1H13.74V11.07a.1.1 0 0 0-.1-.1h-2.3a.1.1 0 0 0-.1.1v3.31H8.805v-3.267a.1.1 0 0 0-.1-.1h-2.37a.1.1 0 0 0-.1.1v3.268H2.666a1 1 0 0 1-1-1V7.703Z"
        fill="#5E6673"></path>
  <path fill-rule="evenodd" clip-rule="evenodd"
        d="M6.305 6.703h2.5V1.767a.1.1 0 0 0-.1-.1h-2.3a.1.1 0 0 0-.1.1v4.936Zm4.935-.006V1.855a.1.1 0 0 1 .157-.082l4.255 2.887a.1.1 0 0 1-.056.183H13.91a.1.1 0 0 0-.1.1v1.754h-2.57Zm.1 4.273a.1.1 0 0 0-.1.1v7.142a.1.1 0 0 0 .1.1h2.3a.1.1 0 0 0 .1-.1V11.07a.1.1 0 0 0-.1-.1h-2.3Zm-2.535 7.153v-7.01a.1.1 0 0 0-.1-.1h-2.37a.1.1 0 0 0-.1.1v3.923a.1.1 0 0 1-.1.1H4.45a.1.1 0 0 0-.056.182l4.255 2.888a.1.1 0 0 0 .156-.083Z"
        fill="#5E6673" fill-opacity=".5"></path>
</svg>
