<svg xmlns="http://www.w3.org/2000/svg" width="20" height="20" fill="none">
  <path fill-rule="evenodd" clip-rule="evenodd"
        d="M9.583 1.752a.833.833 0 0 1 .834 0l6.517 3.763a.833.833 0 0 1 .417.722v7.526a.833.833 0 0 1-.417.722l-6.517 3.763a.834.834 0 0 1-.834 0l-6.517-3.763a.833.833 0 0 1-.417-.722V6.237c0-.298.159-.573.417-.722l6.517-3.763Zm1.334 11.79a.208.208 0 0 1-.208.208H9.292a.208.208 0 0 1-.209-.208V6.458c0-.115.094-.208.209-.208h1.417c.114 0 .208.093.208.208v7.084ZM7.25 11.854c0 .08-.046.153-.118.188l-1.417.682a.208.208 0 0 1-.298-.188V7.464c0-.154.16-.255.298-.188l1.417.682a.208.208 0 0 1 .118.188v3.708Zm7.035.87a.208.208 0 0 0 .298-.188V7.464a.208.208 0 0 0-.298-.188l-1.417.682a.208.208 0 0 0-.118.188v3.708c0 .08.046.153.118.188l1.417.682Z"
        fill="#5E6673"/>
</svg>
