<svg width="20" height="20" viewBox="0 1 20 21" fill="currentColor" xmlns="http://www.w3.org/2000/svg"
     style="color: currentcolor;">
  <path fill-rule="evenodd" clip-rule="evenodd"
        d="M14.6446 3.93018C15.2818 3.93018 15.7984 4.44672 15.7984 5.0839V10.7709L14.4798 10.4938C14.4333 10.484 14.3853 10.484 14.3388 10.4938L13.3449 10.7027L11.1484 7.1997L7.15769 4.51547C6.9417 4.29948 7.09467 3.93018 7.40012 3.93018H14.6446Z"
        fill="#5E6673" fill-opacity="0.5"></path>
  <path fill-rule="evenodd" clip-rule="evenodd"
        d="M8.12178 2.58757C8.05738 2.52247 7.96961 2.48584 7.87804 2.48584H3.15355C2.51636 2.48584 1.99982 3.00238 1.99982 3.63957V17.3773C1.99982 18.0145 2.51636 18.531 3.15355 18.531H12.88C13.0521 18.531 13.2155 18.4933 13.3622 18.4257L11.4614 17.4833C11.0686 17.2886 10.8201 16.8881 10.8201 16.4497V12.1708C10.8201 11.6251 11.2025 11.154 11.7365 11.0417L14.0337 10.5589V8.70468C14.0337 8.61439 13.9981 8.52774 13.9346 8.46355L8.12178 2.58757ZM3.71857 9.27991C3.71857 9.35565 3.77997 9.41705 3.85571 9.41705H11.3659C11.4417 9.41705 11.5031 9.35565 11.5031 9.27991V8.25677C11.5031 8.18103 11.4417 8.11963 11.3659 8.11963H3.85571C3.77997 8.11963 3.71857 8.18103 3.71857 8.25677V9.27991ZM3.71857 12.3062C3.71857 12.382 3.77997 12.4434 3.85571 12.4434H7.04122C7.11696 12.4434 7.17836 12.382 7.17836 12.3062V11.2831C7.17836 11.2074 7.11696 11.146 7.04122 11.146H3.85571C3.77997 11.146 3.71857 11.2074 3.71857 11.2831V12.3062Z"
        fill="#5E6673"></path>
  <path fill-rule="evenodd" clip-rule="evenodd"
        d="M17.3572 17.4832C17.75 17.2884 17.9985 16.8879 17.9985 16.4495V12.1706C17.9985 11.6249 17.6161 11.1538 17.0821 11.0416L14.4799 10.4946C14.4334 10.4849 14.3854 10.4849 14.3389 10.4946L11.7367 11.0416C11.2027 11.1538 10.8203 11.6249 10.8203 12.1706V16.4495C10.8203 16.8879 11.0688 17.2884 11.4616 17.4832L13.897 18.6905C14.2198 18.8506 14.599 18.8506 14.9219 18.6905L17.3572 17.4832ZM14.9234 16.3302C14.9991 16.3302 15.0605 16.2688 15.0605 16.193V15.2491H16.0062C16.082 15.2491 16.1434 15.1877 16.1434 15.112V14.0889C16.1434 14.0131 16.082 13.9517 16.0062 13.9517H15.0605V13.0075C15.0605 12.9318 14.9991 12.8704 14.9234 12.8704H13.9003C13.8245 12.8704 13.7631 12.9318 13.7631 13.0075V13.9517H12.8207C12.745 13.9517 12.6836 14.0131 12.6836 14.0889V15.112C12.6836 15.1877 12.745 15.2491 12.8207 15.2491H13.7631V16.193C13.7631 16.2688 13.8245 16.3302 13.9003 16.3302H14.9234Z"
        fill="#5E6673" fill-opacity="0.5"></path>
</svg>
