<svg xmlns="http://www.w3.org/2000/svg" width="20" height="20" fill="none" viewBox="0 0 20 20">
  <g fill="#5E6673">
    <path fill-rule="evenodd"
          d="M17.5 12.833h-15v4.5c0 .368.298.667.667.667h13.666a.667.667 0 0 0 .667-.667zm-12.917 1.75a.417.417 0 0 0-.416.417v.833c0 .23.186.417.416.417H6.25c.23 0 .417-.187.417-.417V15a.417.417 0 0 0-.417-.417z"
          clip-rule="evenodd"></path>
    <path d="M5.51 2.083c-.279 0-.54.14-.694.374l-2.178 3.29a.83.83 0 0 0-.138.46v.12h15v-.081a.83.83 0 0 0-.136-.457l-2.18-3.33a.83.83 0 0 0-.697-.376z"
          opacity="0.5"></path>
    <path fill-rule="evenodd"
          d="M17.5 6.327h-15v4.5c0 .368.298.667.667.667h13.666a.667.667 0 0 0 .667-.667zM4.583 8.077a.417.417 0 0 0-.416.417v.833c0 .23.186.417.416.417H6.25c.23 0 .417-.187.417-.417v-.833a.417.417 0 0 0-.417-.417z"
          clip-rule="evenodd"></path>
    <path d="m3.141 11.493-.503.76a.83.83 0 0 0-.138.46v.12h15v-.082a.83.83 0 0 0-.136-.456l-.525-.801H3.141"
          opacity="0.5"></path>
  </g>
</svg>
