<svg width="20" height="20" viewBox="0 1 20 20" fill="none" xmlns="http://www.w3.org/2000/svg"
     style="color: currentcolor;">
  <g clip-path="url(#clip0_2022_62792)">
    <path d="M10.3816 1.76645L18.1255 6.09942C18.1927 6.13701 18.2479 6.19364 18.2846 6.26255C18.3899 6.46074 18.3188 6.70905 18.1255 6.81716L10.3816 11.1501C10.1437 11.2832 9.8562 11.2832 9.61832 11.1501L1.87438 6.81716C1.68117 6.70905 1.60997 6.46074 1.71536 6.26255C1.752 6.19364 1.8072 6.13701 1.87438 6.09942L9.61832 1.76645C9.8562 1.63335 10.1437 1.63335 10.3816 1.76645Z"
          fill="#5E6673"></path>
    <path opacity="0.5"
          d="M9.62664 18.2357L2.09079 14.0711C1.70292 13.8568 1.55398 13.3529 1.75812 12.9456C1.95254 12.5577 2.3971 12.3974 2.77406 12.5682L2.83005 12.5963L9.79828 16.4469C9.92369 16.5162 10.0759 16.5162 10.2013 16.4469L17.1699 12.5963C17.5577 12.382 18.0377 12.5384 18.2418 12.9456C18.4459 13.3529 18.297 13.8568 17.9091 14.0711L10.3736 18.2355C10.3587 18.2438 10.3435 18.2517 10.3281 18.259L10.2874 18.277L10.2177 18.3016L-nan -nanL-nan -nanL10.2177 18.3016L10.187 18.3102L-nan -nanL-nan -nanL10.187 18.3102L10.1332 18.3219L-nan -nanL-nan -nanL10.1332 18.3219L10.0652 18.3309L-nan -nanL-nan -nanL10.0652 18.3309L10.0142 18.3336L-nan -nanL-nan -nanL10.0142 18.3336L9.97157 18.3332L-nan -nanL-nan -nanL9.97157 18.3332L9.89699 18.3266L-nan -nanL-nan -nanL9.89699 18.3266L9.85347 18.3194L9.79595 18.3057L9.74133 18.2882L-nan -nanL-nan -nanL9.74133 18.2882L9.68469 18.265L9.62664 18.2357Z"
          fill="#5E6673"></path>
    <path opacity="0.5"
          d="M9.62664 14.6954L2.09079 10.5308C1.70292 10.3165 1.55398 9.81258 1.75812 9.40532C1.95254 9.01746 2.3971 8.85714 2.77406 9.02792L2.83005 9.05603L9.79828 12.9066C9.92369 12.9759 10.0759 12.9759 10.2013 12.9066L17.1699 9.05603C17.5577 8.84168 18.0377 8.99807 18.2418 9.40532C18.4459 9.81258 18.297 10.3165 17.9091 10.5308L10.3736 14.6952C10.3587 14.7036 10.3435 14.7114 10.3281 14.7188L10.2874 14.7368L10.2177 14.7613L-nan -nanL-nan -nanL10.2177 14.7613L10.187 14.77L-nan -nanL-nan -nanL10.187 14.77L10.1332 14.7816L-nan -nanL-nan -nanL10.1332 14.7816L10.0652 14.7906L-nan -nanL-nan -nanL10.0652 14.7906L10.0142 14.7933L-nan -nanL-nan -nanL10.0142 14.7933L9.97157 14.7929L-nan -nanL-nan -nanL9.97157 14.7929L9.89699 14.7863L-nan -nanL-nan -nanL9.89699 14.7863L9.85347 14.7792L9.79595 14.7654L9.74133 14.7479L-nan -nanL-nan -nanL9.74133 14.7479L9.68469 14.7247L9.62664 14.6954Z"
          fill="#5E6673"></path>
  </g>
  <defs>
    <clipPath id="clip0_2022_62792">
      <rect width="20" height="20" fill="white"></rect>
    </clipPath>
  </defs>
</svg>
