<svg width="20" height="20" fill="none" xmlns="http://www.w3.org/2000/svg" class="c-m-sidebar-prefix-icon">
  <path fill-rule="evenodd" clip-rule="evenodd" d="M16.427 12.742a7 7 0 10-11.36-8.174 7.5 7.5 0 0111.36 8.174z"
        fill="#CCCED0"></path>
  <path fill-rule="evenodd" clip-rule="evenodd"
        d="M9.266 3.523a7.266 7.266 0 015.663 11.818l2.281 2.282a.393.393 0 010 .555l-.555.556a.393.393 0 01-.556 0l-2.281-2.282A7.266 7.266 0 119.266 3.523zm3.077 4.082l.68.393a.393.393 0 01.144.537l-2.16 3.741a.393.393 0 01-.496.164l-.04-.02-2.042-1.178-1.57 2.72a.393.393 0 01-.537.144l-.68-.392a.393.393 0 01-.144-.537l2.16-3.741a.393.393 0 01.537-.144l2.04 1.178 1.571-2.72a.393.393 0 01.537-.145z"
        fill="#5E6673"></path>
</svg>
