<svg xmlns="http://www.w3.org/2000/svg" width="20" height="20" fill="none">
  <path opacity=".5" fill-rule="evenodd" clip-rule="evenodd"
        d="M10.452 2.07a.876.876 0 0 0-.905 0L2.09 6.572a.876.876 0 0 0-.423.75v2.536c0 .332.362.536.646.365l7.235-4.368a.876.876 0 0 1 .905 0l7.235 4.368a.426.426 0 0 0 .646-.365V7.321a.876.876 0 0 0-.423-.75L10.452 2.07Z"
        fill="#5E6673"/>
  <path fill-rule="evenodd" clip-rule="evenodd"
        d="M9.547 5.856 3.043 9.782a.875.875 0 0 0-.051.295v6.964c0 .484.392.876.875.876h12.265a.876.876 0 0 0 .876-.876v-6.964a.876.876 0 0 0-.052-.295l-6.504-3.926a.876.876 0 0 0-.905 0Zm2.12 9.385c.23 0 .416-.186.416-.416v-.834a.417.417 0 0 0-.416-.416H8.333a.417.417 0 0 0-.416.416v.834c0 .23.186.416.416.416h3.334Z"
        fill="#5E6673"/>
</svg>
