<svg xmlns="http://www.w3.org/2000/svg" width="20" height="20" fill="none">
  <path d="M5.833 15.417v1.666c0 .46.373.834.834.834h6.666c.46 0 .834-.373.834-.834v-1.666H5.833Z" fill="#5E6673"
        fill-opacity=".5"/>
  <path fill-rule="evenodd" clip-rule="evenodd"
        d="M2.5 2.083a.833.833 0 0 0-.833.834v11.666c0 .46.373.834.833.834h15c.46 0 .833-.373.833-.834V2.917a.833.833 0 0 0-.833-.834h-15Zm7.021 2.73a.208.208 0 0 0-.367-.015L7.04 8.42H4.974a.208.208 0 0 0-.209.208v1.25c0 .115.093.208.209.208h3.024l1.214-2.08 2.18 4.517c.066.138.254.16.35.04l1.976-2.477h1.308a.208.208 0 0 0 .209-.208V8.63a.208.208 0 0 0-.209-.208h-2.11l-1.03 1.291-2.365-4.9Z"
        fill="#5E6673"/>
</svg>
