<svg width="16" height="16" fill="none" xmlns="http://www.w3.org/2000/svg" class="arco-icon"
     style="font-size: 16px; color: transparent;">
  <path fill-rule="evenodd" clip-rule="evenodd"
        d="M7.333.697a7.334 7.334 0 00-5.97 10.427l1.16-.67a6 6 0 014.81-8.417V.697zm1.334 1.34V.697a7.334 7.334 0 015.974 10.419l-1.16-.67a6 6 0 00-4.814-8.41zM3.2 11.602A5.99 5.99 0 008 14a5.99 5.99 0 004.804-2.405l1.162.67A7.324 7.324 0 018 15.334a7.324 7.324 0 01-5.96-3.06l1.161-.67z"
        fill="#4E5969"></path>
  <path fill-rule="evenodd" clip-rule="evenodd"
        d="M7.333 12.62v-1.353a3.335 3.335 0 01-2.478-4.375l-1.17-.675a4.668 4.668 0 003.648 6.402zM4.367 5.07A4.658 4.658 0 018 3.334c1.471 0 2.783.681 3.639 1.745l-1.174.678A3.325 3.325 0 008 4.666c-.973 0-1.85.418-2.459 1.083l-1.174-.678zm6.78 1.83a3.334 3.334 0 01-2.481 4.366v1.353a4.668 4.668 0 003.651-6.393l-1.17.675z"
        fill="#4E5969"></path>
  <path fill-rule="evenodd" clip-rule="evenodd"
        d="M8 10a2 2 0 100-4 2 2 0 000 4zm0-1.333a.667.667 0 100-1.334.667.667 0 000 1.334z" fill="#4E5969"></path>
</svg>
