<svg width="20" height="20" viewBox="0 0 20 20" fill="currentcolor" xmlns="http://www.w3.org/2000/svg"
     style="color: currentcolor;">
  <rect width="8.33307" height="8.33307" transform="matrix(0.86601 0.500028 3.18907e-05 1 2.78308 4.31873)"
        fill="#5E6673" fill-opacity="0.48"></rect>
  <path fill-rule="evenodd" clip-rule="evenodd"
        d="M9.99999 0.152466L2.7832 4.31877L9.99034 8.47951L9.97989 8.48554L9.97962 16.8186L17.1961 12.6518L17.1964 4.33053L17.2168 4.31877L9.99999 0.152466Z"
        fill="#5E6673"></path>
  <path d="M12.4273 5.11382L9.96984 10.6563L8.87218 8.03545C7.64355 8.54436 5.26359 9.39859 5.26359 11.3083C5.26359 13.2181 5.71401 13.696 7.58305 15.484C4.93391 14.1278 3.26382 12.1737 3.35819 10.2156C3.35819 6.97482 5.99071 5.86397 7.70428 5.11382L6.7582 2.90273L12.4273 5.11382Z"
        fill="white"></path>
</svg>
