<svg class="force-icon force-icon-Other_Storage c-m-sidebar-prefix-icon" width="1em" height="1em" viewBox="0 0 48 49"
     fill="currentColor" xmlns="http://www.w3.org/2000/svg">
  <ellipse fill="#5E6673" opacity=".5" cx="24.015" cy="12.541" rx="16.088" ry="7.301"></ellipse>
  <path opacity=".5" fill-rule="evenodd" clip-rule="evenodd"
        fill="#5E6673"
        d="M7.92627 37.2451V25.3314C8.01451 29.3255 15.1776 32.551 24 32.551C32.8224 32.551 39.9847 29.3255 40.0729 25.3314L40.0737 25.259L40.0735 37.2451L40.0737 37.2845C40.0737 41.3122 32.8787 44.5773 24.0032 44.5773C15.1277 44.5773 7.93262 41.3122 7.93262 37.2845L7.93285 37.2451H7.92627ZM14.1914 38.3879C15.296 38.3879 16.1914 37.4925 16.1914 36.3879C16.1914 35.2834 15.296 34.3879 14.1914 34.3879C13.0868 34.3879 12.1914 35.2834 12.1914 36.3879C12.1914 37.4925 13.0868 38.3879 14.1914 38.3879Z"></path>
  <path fill-rule="evenodd" clip-rule="evenodd"
        fill="#5E6673"
        d="M7.92627 25.3312V12.541C7.92627 16.5732 15.1292 19.8419 24.0146 19.8419C32.5721 19.8419 39.5692 16.8099 40.0737 12.9839V25.2566L40.0729 25.3312C39.9847 29.3254 32.8224 32.5508 24 32.5508C15.1776 32.5508 8.01451 29.3254 7.92627 25.3312ZM14.1914 26.1431C15.296 26.1431 16.1914 25.2476 16.1914 24.1431C16.1914 23.0385 15.296 22.1431 14.1914 22.1431C13.0868 22.1431 12.1914 23.0385 12.1914 24.1431C12.1914 25.2476 13.0868 26.1431 14.1914 26.1431Z"></path>
</svg>
