<svg width="20" height="20" fill="none" xmlns="http://www.w3.org/2000/svg">
  <path fill-rule="evenodd" clip-rule="evenodd"
        d="M17.108 12.374V3.89a.833.833 0 0 0-.653-.813l-6.274-1.395a.833.833 0 0 0-.362 0L3.545 3.077a.833.833 0 0 0-.652.813v8.484c0 1.18.623 2.272 1.639 2.871l5.045 2.977a.833.833 0 0 0 .847 0l5.044-2.977a3.333 3.333 0 0 0 1.64-2.87ZM10 6.315c-1.003 0-1.874.57-2.308 1.402a2.08 2.08 0 0 0 .226 4.152h4.512c.958 0 1.735-.778 1.735-1.736 0-.916-.711-1.659-1.614-1.721a2.6 2.6 0 0 0-2.55-2.097Z"
        fill="#5E6673"></path>
</svg>
