<svg width="20" height="20" viewBox="0 1 20 21" fill="none" xmlns="http://www.w3.org/2000/svg"
     style="color: currentcolor;">
  <g clip-path="url(#clip0_1377_24217)">
    <path d="M1.9928 7.50407C1.80747 7.68291 1.80749 7.97772 1.98584 8.16353L2.83585 9.04911C3.0248 9.24598 3.33896 9.24496 3.53748 9.05774C7.20109 5.60281 12.7988 5.60281 16.4624 9.05774C16.661 9.24496 16.9751 9.24598 17.1641 9.04911L18.0143 8.16327C18.1926 7.97756 18.1927 7.68296 18.0076 7.50408C13.4987 3.14643 6.50841 3.14643 1.9928 7.50407ZM4.69772 10.9901C4.69782 10.9901 4.69792 10.9901 4.69799 10.9902L5.86707 12.2082C6.05604 12.4051 6.36989 12.403 6.57588 12.224C8.55489 10.5045 11.4469 10.5044 13.426 12.2239C13.632 12.4029 13.946 12.405 14.1349 12.208L14.9843 11.3224C15.1625 11.1367 15.1632 10.842 14.9743 10.6672C12.0335 7.94679 7.52229 8.0542 4.69745 10.9895C4.69722 10.9897 4.69739 10.9901 4.69772 10.9901Z"
          fill="#5E6673"></path>
    <path opacity="0.5"
          d="M7.8948 13.6416C7.66847 13.8001 7.66963 14.1228 7.8707 14.3123L9.67078 16.0089C9.85567 16.1831 10.1443 16.1831 10.3292 16.0089L12.1304 14.3113C12.331 14.1222 12.3327 13.8002 12.1071 13.6416C10.8639 12.7673 9.14339 12.7673 7.8948 13.6416Z"
          fill="#5E6673"></path>
  </g>
  <defs>
    <clipPath id="clip0_1377_24217">
      <rect width="20" height="20" fill="white" transform="translate(0 0.48584)"></rect>
    </clipPath>
  </defs>
</svg>
