<svg width="20" height="20" viewBox="0 0 20 20" fill="none" xmlns="http://www.w3.org/2000/svg">
  <path fill-rule="evenodd" clip-rule="evenodd"
        d="M18.3332 10.0001C18.3332 11.4953 17.9394 12.8985 17.2499 14.1117C17.0694 13.8134 16.761 13.4245 16.3339 13.1718C15.8456 12.8829 15.3706 12.912 14.9676 12.9368C14.7541 12.9499 14.5607 12.9617 14.3963 12.9244C14.2092 12.8818 14.0963 12.719 13.9514 12.5102C13.7288 12.1893 13.4309 11.76 12.6732 11.4915C12.0727 11.2787 11.2629 11.2824 10.5566 11.553V11.1384H11.2996C11.7501 11.1384 12.138 11.0519 12.4633 10.8788C12.7915 10.7027 13.0437 10.458 13.2197 10.1447C13.3988 9.83142 13.4883 9.4644 13.4883 9.04366C13.4883 8.61696 13.3988 8.238 13.2197 7.90678C13.0437 7.57258 12.7915 7.30999 12.4633 7.11902C12.138 6.92805 11.7501 6.83256 11.2996 6.83256H9.0258V13.3495H9.03473C9.03014 13.3778 9.02599 13.4065 9.02228 13.4354C8.833 14.9178 9.60913 15.6619 10.3164 16.34C10.5114 16.527 10.7012 16.7089 10.8641 16.9C11.3649 17.4873 11.2934 17.9871 11.1468 18.2552C10.7718 18.3068 10.389 18.3335 9.99984 18.3335C5.39746 18.3335 1.6665 14.6025 1.6665 10.0001C1.6665 6.42931 3.91245 3.38307 7.06874 2.1969C4.44334 3.18356 2.44783 5.45721 1.85083 8.24921C1.90698 8.30539 1.97077 8.36223 2.0432 8.41949C2.55688 8.82555 3.3198 8.58953 3.85864 8.42283L3.85864 8.42283C4.08908 8.35154 4.27854 8.29293 4.38998 8.30265C4.56695 8.31808 4.8084 8.57784 5.08974 8.88052C5.39985 9.21415 5.75843 9.59993 6.13255 9.76812C6.26919 9.82955 6.40275 9.88032 6.53271 9.91969V13.3495H8.059V9.65652C8.19314 9.52723 8.31263 9.36148 8.41551 9.1564C8.78594 8.41802 8.6644 7.51842 8.24015 6.75902C8.13986 6.57951 8.0299 6.4551 7.92032 6.33112C7.70909 6.09214 7.49925 5.85473 7.3627 5.22725C7.55137 5.06592 7.69887 5.0219 7.91374 4.95776C8.1316 4.89274 8.41871 4.80704 8.88821 4.55745C9.67411 4.13966 10.1457 2.67603 10.3515 1.67407C14.7907 1.85834 18.3332 5.51554 18.3332 10.0001ZM10.5566 9.92542V8.04553H11.2996C11.4517 8.04553 11.5741 8.09327 11.6666 8.18876C11.7621 8.28126 11.8307 8.4036 11.8725 8.55579C11.9172 8.70797 11.9396 8.87358 11.9396 9.05261C11.9396 9.21971 11.9172 9.3704 11.8725 9.50468C11.8307 9.63597 11.7621 9.73892 11.6666 9.81352C11.5741 9.88811 11.4517 9.92542 11.2996 9.92542H10.5566Z"
        fill="#5E6673"></path>
  <path fill-rule="evenodd" clip-rule="evenodd"
        d="M8.88845 4.55741C9.67436 4.13962 10.1459 2.67598 10.3517 1.67403C10.2351 1.66919 10.1179 1.66675 10.0002 1.66675C5.99838 1.66675 2.65542 4.48749 1.85107 8.24917C1.90723 8.30535 1.97101 8.36219 2.04345 8.41945C2.55712 8.82551 3.32005 8.58949 3.85888 8.42279C4.08932 8.3515 4.27878 8.29289 4.39023 8.30261C4.56719 8.31804 4.80864 8.5778 5.08998 8.88048C5.40009 9.21411 5.75867 9.59989 6.13279 9.76808C6.26935 9.82948 6.40283 9.88022 6.53271 9.91957V6.83252H8.059V9.65671C8.19324 9.52739 8.31282 9.36156 8.41576 9.15636C8.78618 8.41798 8.66464 7.51838 8.2404 6.75898C8.14011 6.57947 8.03015 6.45506 7.92056 6.33108C7.70934 6.0921 7.49949 5.85469 7.36295 5.22721C7.55161 5.06588 7.69911 5.02186 7.91398 4.95772C8.13184 4.8927 8.41896 4.807 8.88845 4.55741ZM16.3341 13.1717C16.7613 13.4245 17.0697 13.8134 17.2502 14.1117C15.9967 16.3172 13.766 17.8947 11.147 18.2551C11.2937 17.9871 11.3651 17.4873 10.8643 16.8999C10.7015 16.7089 10.5117 16.527 10.3167 16.34C9.60938 15.6619 8.83324 14.9177 9.02253 13.4354C9.02623 13.4064 9.03038 13.3778 9.03497 13.3494H10.5566V11.5531C11.263 11.2823 12.0729 11.2786 12.6735 11.4914C13.4311 11.7599 13.729 12.1893 13.9516 12.5101C14.0965 12.719 14.2095 12.8818 14.3966 12.9243C14.561 12.9617 14.7543 12.9498 14.9679 12.9367C15.3709 12.912 15.8459 12.8829 16.3341 13.1717Z"
        fill="#5E6673" fill-opacity="0.5"></path>
</svg>
