<svg xmlns="http://www.w3.org/2000/svg" width="25" height="25" viewBox="0 0 25 25" fill="none">
  <rect x="9.15576" y="6.31665" width="13.5932" height="9.97792" rx="4.98896" fill="#B5BCC9"/>
  <path fill-rule="evenodd" clip-rule="evenodd"
        d="M13.8809 16.2199C17.4865 15.7084 20.2594 12.6091 20.2594 8.86221C20.2594 4.75775 16.932 1.43042 12.8276 1.43042C9.438 1.43042 6.57842 3.69962 5.68512 6.80174C4.00523 7.60456 2.84473 9.31957 2.84473 11.3056C2.84473 14.0609 5.07836 16.2946 7.83368 16.2946H11.449C11.5583 16.2946 11.6667 16.2911 11.7742 16.2841V16.8829H10.7454C10.4692 16.8829 10.2454 17.1067 10.2454 17.3829V18.3316H4.79181C4.51567 18.3316 4.29181 18.5554 4.29181 18.8316L4.29181 20.355C4.29181 20.6312 4.51567 20.855 4.79181 20.855H10.2454V21.5871C10.2454 21.8632 10.4692 22.0871 10.7454 22.0871H14.9496C15.2257 22.0871 15.4496 21.8632 15.4496 21.5871V20.855H20.702C20.9781 20.855 21.202 20.6312 21.202 20.355V18.8316C21.202 18.5554 20.9781 18.3316 20.702 18.3316H15.4496V17.3829C15.4496 17.1067 15.2257 16.8829 14.9496 16.8829H13.8809V16.2199Z"
        fill="url(#paint0_linear_5139_7502)"/>
  <g filter="url(#filter0_d_5139_7502)">
    <path d="M12.4431 13.1505C12.4033 13.1504 12.3638 13.1434 12.3263 13.1298C12.254 13.1034 12.1927 13.0534 12.1522 12.988C12.1117 12.9226 12.0944 12.8454 12.1029 12.769L12.3675 10.3322H10.3432C10.2808 10.3323 10.2195 10.3154 10.166 10.2833C10.1124 10.2512 10.0686 10.2051 10.0393 10.15C10.01 10.0949 9.99621 10.0328 9.9995 9.97045C10.0028 9.9081 10.023 9.84782 10.058 9.7961L12.7696 5.74061C12.8125 5.67714 12.8754 5.62982 12.9482 5.60616C13.0211 5.5825 13.0998 5.58386 13.1718 5.61001C13.241 5.6357 13.3001 5.683 13.3403 5.7449C13.3805 5.8068 13.3998 5.88001 13.3952 5.9537L13.1305 8.40761H15.1548C15.2173 8.40751 15.2785 8.42443 15.3321 8.45654C15.3856 8.48865 15.4294 8.53474 15.4588 8.58986C15.4881 8.64498 15.5018 8.70705 15.4985 8.7694C15.4953 8.83175 15.475 8.89203 15.4401 8.94376L12.7284 12.9992C12.6969 13.0459 12.6544 13.0841 12.6046 13.1104C12.5549 13.1368 12.4994 13.1505 12.4431 13.1505Z"
          fill="white"/>
  </g>
  <defs>
    <filter id="filter0_d_5139_7502" x="7.39312" y="3.63493" width="10.7118" height="12.7728"
            filterUnits="userSpaceOnUse" color-interpolation-filters="sRGB">
      <feFlood flood-opacity="0" result="BackgroundImageFix"/>
      <feColorMatrix in="SourceAlpha" type="matrix" values="0 0 0 0 0 0 0 0 0 0 0 0 0 0 0 0 0 0 127 0"
                     result="hardAlpha"/>
      <feOffset dy="0.651476"/>
      <feGaussianBlur stdDeviation="1.30295"/>
      <feComposite in2="hardAlpha" operator="out"/>
      <feColorMatrix type="matrix" values="0 0 0 0 0 0 0 0 0 0 0 0 0 0 0 0 0 0 0.15 0"/>
      <feBlend mode="normal" in2="BackgroundImageFix" result="effect1_dropShadow_5139_7502"/>
      <feBlend mode="normal" in="SourceGraphic" in2="effect1_dropShadow_5139_7502" result="shape"/>
    </filter>
    <linearGradient id="paint0_linear_5139_7502" x1="12.1394" y1="1.43042" x2="12.1394" y2="22.624"
                    gradientUnits="userSpaceOnUse">
      <stop stop-color="#353D51"/>
      <stop offset="1" stop-color="#818A9C"/>
    </linearGradient>
  </defs>
</svg>
