<svg class="force-icon force-icon-container-registry c-m-sidebar-prefix-icon" width="1em" height="1em"
     viewBox="0 0 48 48" fill="none" xmlns="http://www.w3.org/2000/svg">
  <path d="M23.0809 4.29031C23.6325 3.90323 24.3675 3.90323 24.9191 4.29031L42.3191 16.5008C42.7459 16.8004 43 17.2891 43 17.8105V42.0453C43 42.929 42.2837 43.6453 41.4 43.6453H6.6C5.71634 43.6453 5 42.929 5 42.0453V17.8105C5 17.2891 5.25409 16.8004 5.68092 16.5008L23.0809 4.29031Z"
        fill="url(#svg_e4e2753c72__paint0_linear_7496_35663)"></path>
  <path fill-rule="evenodd" clip-rule="evenodd"
        d="M17.6663 32.0955C17.6663 32.2876 17.544 32.4627 17.3517 32.546L14.5738 34.1824C14.205 34.3422 13.7773 34.1003 13.7773 33.7319V21.5582C13.7773 21.1898 14.205 20.9479 14.5738 21.1077L17.3517 22.7441C17.544 22.8274 17.6663 23.0025 17.6663 23.1946V32.0955ZM34.2218 33.7319C34.2218 34.1003 33.7941 34.3422 33.4253 34.1824L30.6475 32.546C30.4551 32.4627 30.3328 32.2876 30.3328 32.0955V23.1946C30.3328 23.0025 30.4551 22.8274 30.6475 22.7441L33.4253 21.1077C33.7941 20.9479 34.2218 21.1898 34.2218 21.5582V33.7319Z"
        fill="#B5BCC9"></path>
  <g filter="url(#svg_e4e2753c72__filter0_d_7496_35663)">
    <path fill-rule="evenodd" clip-rule="evenodd"
          d="M26 36.1455C26 36.4217 25.7965 36.6455 25.5455 36.6455H22.4545C22.2035 36.6455 22 36.4217 22 36.1455V19.1455C22 18.8694 22.2035 18.6455 22.4545 18.6455H25.5455C25.7965 18.6455 26 18.8694 26 19.1455V36.1455Z"
          fill="#fff"></path>
  </g>
  <defs>
    <linearGradient id="svg_e4e2753c72__paint0_linear_7496_35663" x1="24" y1="4" x2="24" y2="43.645"
                    gradientUnits="userSpaceOnUse">
      <stop stop-color="#818A9C"></stop>
      <stop offset="1" stop-color="#353D51"></stop>
    </linearGradient>
    <filter id="svg_e4e2753c72__filter0_d_7496_35663" x="14" y="12.646" width="20" height="34"
            filterUnits="userSpaceOnUse" color-interpolation-filters="sRGB">
      <feFlood flood-opacity="0" result="BackgroundImageFix"></feFlood>
      <feColorMatrix in="SourceAlpha" values="0 0 0 0 0 0 0 0 0 0 0 0 0 0 0 0 0 0 127 0"
                     result="hardAlpha"></feColorMatrix>
      <feOffset dy="2"></feOffset>
      <feGaussianBlur stdDeviation="4"></feGaussianBlur>
      <feComposite in2="hardAlpha" operator="out"></feComposite>
      <feColorMatrix values="0 0 0 0 0 0 0 0 0 0 0 0 0 0 0 0 0 0 0.15 0"></feColorMatrix>
      <feBlend in2="BackgroundImageFix" result="effect1_dropShadow_7496_35663"></feBlend>
      <feBlend in="SourceGraphic" in2="effect1_dropShadow_7496_35663" result="shape"></feBlend>
    </filter>
  </defs>
</svg>
