<svg xmlns="http://www.w3.org/2000/svg" width="20" height="20" fill="none" viewBox="0 0 20 20">
  <path fill="#AEB2B9"
        d="M5.93 2.095a.93.93 0 0 0-.93.93v1.141h10c.46 0 .833.373.833.834v10.115h1.154a.93.93 0 0 0 .93-.93V3.025a.93.93 0 0 0-.93-.93z"
        opacity="0.5"></path>
  <path fill="#fff"
        d="M6.297 10.278a.417.417 0 1 1 .833 0 .417.417 0 0 1-.833 0M11.199 12.32a.417.417 0 1 1-.834 0 .417.417 0 0 1 .833 0"></path>
  <path fill="#5E6673"
        d="M6.297 10.278a.417.417 0 1 1 .833 0 .417.417 0 0 1-.833 0M11.199 12.32a.417.417 0 1 1-.834 0 .417.417 0 0 1 .833 0"></path>
  <path fill="#5E6673" fill-rule="evenodd"
        d="M2.083 5c0-.46.373-.833.834-.833h12.117c.46 0 .833.373.833.833v12.084c0 .46-.373.833-.833.833H2.917a.833.833 0 0 1-.834-.833zm3.76 2.965v.891a1.666 1.666 0 0 0 0 2.844v2.932c0 .23.187.417.417.417h.833c.23 0 .417-.187.417-.417v-2.89a1.666 1.666 0 0 0 0-2.928v-.849a.417.417 0 0 0-.417-.416H6.26a.417.417 0 0 0-.417.416m5.809 6.667v-.89a1.666 1.666 0 0 0 0-2.844V7.965a.417.417 0 0 0-.417-.416h-.833a.417.417 0 0 0-.417.416v2.89a1.666 1.666 0 0 0 0 2.929v.848c0 .23.187.417.417.417h.833c.23 0 .417-.187.417-.417"
        clip-rule="evenodd"></path>
</svg>
