<svg xmlns="http://www.w3.org/2000/svg" width="20" height="20" fill="none">
  <path opacity=".5"
        d="M5.93 2.095a.93.93 0 0 0-.93.93v1.142h10c.46 0 .833.373.833.833v10.115h1.154a.93.93 0 0 0 .93-.93V3.025a.93.93 0 0 0-.93-.93H5.93Z"
        fill="#5E6673"/>
  <path d="M9.897 11.079c.257-.01.501-.116.685-.297a1.037 1.037 0 1 0-1.58-1.323 1.035 1.035 0 0 0 .895 1.62Z"
        fill="#5E6673"/>
  <path fill-rule="evenodd" clip-rule="evenodd"
        d="M2.917 4.167A.833.833 0 0 0 2.083 5v12.083c0 .46.373.834.834.834H15c.46 0 .833-.373.833-.834V5A.833.833 0 0 0 15 4.167H2.917ZM12.59 7.31c.04.04.07.093.08.15a5.08 5.08 0 0 1-1.973 5.272.505.505 0 0 0-.116.186 4.115 4.115 0 0 1-1.068 1.88c-.25.235-.523.445-.813.628a.32.32 0 0 1-.437-.133.293.293 0 0 1-.004-.239c.135-.389.213-.796.232-1.207a.331.331 0 0 0-.14-.279 10.734 10.734 0 0 1-1.114-.929c-.335-.35-.645-.723-.93-1.115a.331.331 0 0 0-.278-.139 4.282 4.282 0 0 0-1.207.232.33.33 0 0 1-.256-.023.305.305 0 0 1-.116-.418 4.44 4.44 0 0 1 .627-.813A4.026 4.026 0 0 1 6.96 9.296a.32.32 0 0 0 .186-.116 5.143 5.143 0 0 1 5.295-1.95c.057.011.11.04.15.08ZM5.59 14.289c-.23-.229.603-1.457.79-1.644a.595.595 0 0 1 .687 0 .607.607 0 0 1 .167.853c-.188.188-1.415 1.02-1.644.79Z"
        fill="#5E6673"/>
</svg>
