<svg width="20" height="20" viewBox="0 0 20 20" fill="none" xmlns="http://www.w3.org/2000/svg"
     style="color: currentcolor;">
  <path fill-rule="evenodd" clip-rule="evenodd" fill="#5E6673"
        d="M10.3229 1.70517C10.1096 1.61179 9.86691 1.61194 9.65369 1.70556L3.11157 4.57838C2.80881 4.71133 2.61329 5.01042 2.61353 5.34109C2.61379 5.7163 2.61426 6.14921 2.61471 6.57403C2.61537 7.19061 2.61602 7.79011 2.61602 8.17127C2.61602 10.9984 3.26434 13.1276 5.03795 15.3182C6.80747 17.5035 9.05761 18.3838 9.76492 18.6182C9.91081 18.6666 10.066 18.6641 10.2119 18.6157C11.931 18.0457 13.6886 16.8765 14.9391 15.3384C16.3236 13.6354 17.3863 11.5372 17.3863 8.32689L17.3869 5.3411C17.387 5.01 17.191 4.71139 16.8877 4.57863L10.3229 1.70517ZM9.99997 9.27086C10.5753 9.27086 11.0416 8.80449 11.0416 8.2292C11.0416 7.6539 10.5753 7.18753 9.99997 7.18753C9.42467 7.18753 8.9583 7.6539 8.9583 8.2292C8.9583 8.80449 9.42467 9.27086 9.99997 9.27086ZM12.7083 8.2292C12.7083 9.47337 11.8694 10.5216 10.7263 10.839V11.6812H11.3147C11.5448 11.6812 11.7314 11.8677 11.7314 12.0978V12.9312C11.7314 13.1613 11.5448 13.3478 11.3147 13.3478H10.7263V14.0625C10.7263 14.2927 10.5398 14.4792 10.3096 14.4792H9.47631C9.24619 14.4792 9.05964 14.2927 9.05964 14.0625V10.7698C8.02739 10.3876 7.29164 9.39434 7.29164 8.2292C7.29164 6.73342 8.5042 5.52086 9.99997 5.52086C11.4957 5.52086 12.7083 6.73342 12.7083 8.2292Z"
        ></path>
</svg>
