<svg class="force-icon force-icon-Shield_Quality c-m-sidebar-prefix-icon" width="1em" height="1em" viewBox="0 0 48 48"
     fill="currentColor" xmlns="http://www.w3.org/2000/svg">
  <path fill-rule="evenodd" clip-rule="evenodd" fill="#5E6673"
        d="M24.775 4.09263C24.263 3.86853 23.6806 3.86888 23.1689 4.09358L7.46777 10.9883C6.74114 11.3074 6.27189 12.0252 6.27246 12.8189C6.27311 13.7192 6.27422 14.758 6.27531 15.7774C6.2769 17.2574 6.27844 18.6964 6.27844 19.6113C6.27844 26.3963 7.83442 31.5064 12.0911 36.7639C16.3379 42.0087 21.7383 44.1214 23.4358 44.684C23.786 44.8 24.1585 44.7941 24.5086 44.678C28.6343 43.31 32.8526 40.5039 35.8537 36.8125C39.1767 32.7253 41.727 27.6895 41.727 19.9848C41.727 19.2498 41.7281 15.0073 41.7286 12.8189C41.7288 12.0242 41.2585 11.3076 40.5305 10.9889L24.775 4.09263ZM20.8033 14.8C20.8896 14.6352 21.0602 14.532 21.2462 14.532H29.0268C29.444 14.532 29.6777 15.0128 29.4199 15.3409L25.1227 20.8101C24.865 21.1381 25.0987 21.619 25.5159 21.619H30.9384C31.3742 21.619 31.6014 22.1378 31.3058 22.4581L21.2932 33.3051C20.9398 33.6879 20.3097 33.3425 20.4423 32.8387L22.2972 25.7897C22.3807 25.4727 22.1415 25.1625 21.8137 25.1625H16.2017C15.8259 25.1625 15.5844 24.7634 15.7588 24.4305L20.8033 14.8Z"></path>
</svg>
