<svg class="force-icon force-icon-OverlapRect_Publish " width="1em" height="1em" viewBox="0 0 48 48" fill="currentColor"
     xmlns="http://www.w3.org/2000/svg">
  <path opacity=".5"
        fill="#5E6673"
        d="M14.232 5.02832C12.9993 5.02832 12 6.02761 12 7.2603V10.0002H36C37.1046 10.0002 38 10.8957 38 12.0002V36.2761H40.7683C42.0009 36.2761 43.0002 35.2768 43.0002 34.0441V7.26031C43.0002 6.02761 42.0009 5.02832 40.7683 5.02832H14.232Z"></path>
  <path fill="#5E6673"
        d="M23.7531 26.589C24.3703 26.5644 24.9561 26.3109 25.3964 25.8777C25.6478 25.6358 25.8455 25.3436 25.9766 25.0201C26.1077 24.6967 26.1693 24.3494 26.1574 24.0006C26.1454 23.6518 26.0602 23.3095 25.9072 22.9958C25.7542 22.6821 25.537 22.4042 25.2695 22.18C25.0021 21.9558 24.6904 21.7904 24.3549 21.6946C24.0193 21.5988 23.6674 21.5746 23.3219 21.6238C22.9764 21.6729 22.6451 21.7942 22.3495 21.9798C22.054 22.1653 21.8008 22.411 21.6065 22.7009C21.2569 23.2101 21.1095 23.8312 21.1931 24.4431C21.2767 25.055 21.5852 25.6139 22.0585 26.0106C22.5319 26.4074 23.136 26.6136 23.7531 26.589Z"></path>
  <path fill-rule="evenodd" clip-rule="evenodd"
        fill="#5E6673"
        d="M7 10.0002C5.89543 10.0002 5 10.8957 5 12.0002V41.0004C5 42.1049 5.89543 43.0004 7 43.0004H36C37.1046 43.0004 38 42.1049 38 41.0004V12.0002C38 10.8957 37.1046 10.0002 36 10.0002H7ZM30.2173 17.5455C30.3164 17.6446 30.3842 17.7706 30.4124 17.9078C30.9581 20.2487 30.7995 22.6988 29.9566 24.9499C29.1137 27.2009 27.6241 29.1526 25.675 30.5594C25.5507 30.6859 25.4556 30.838 25.3964 31.0053C24.9598 32.7118 24.0746 34.2705 22.8326 35.5197C22.2316 36.0821 21.5784 36.5859 20.8819 37.0245C20.7891 37.0757 20.6867 37.107 20.5812 37.1166C20.4757 37.1262 20.3693 37.1138 20.2688 37.0803C20.1742 37.0519 20.0866 37.0039 20.0118 36.9394C19.9369 36.8749 19.8765 36.7954 19.8345 36.706C19.7924 36.6166 19.7696 36.5194 19.7677 36.4206C19.7657 36.3219 19.7845 36.2238 19.823 36.1328C20.1473 35.1986 20.335 34.2225 20.3803 33.2346C20.3838 33.1042 20.3551 32.975 20.2967 32.8584C20.2384 32.7417 20.1523 32.6413 20.0459 32.5658C19.1049 31.8838 18.2112 31.139 17.3707 30.3364C16.5681 29.496 15.8233 28.6022 15.1413 27.6612C15.0659 27.5549 14.9654 27.4687 14.8487 27.4104C14.7321 27.3521 14.6029 27.3234 14.4725 27.3268C13.4847 27.3721 12.5085 27.5598 11.5744 27.8842C11.4736 27.9164 11.3675 27.9281 11.2622 27.9185C11.1569 27.9089 11.0545 27.8783 10.9613 27.8284C10.8765 27.7814 10.8019 27.7181 10.7419 27.642C10.6819 27.5659 10.6376 27.4786 10.6117 27.3852C10.5858 27.2918 10.5787 27.1942 10.5908 27.0981C10.603 27.0019 10.6342 26.9092 10.6826 26.8252C11.1071 26.119 11.6121 25.4644 12.1874 24.8745C13.4302 23.6241 14.9914 22.7375 16.7019 22.3108C16.8787 22.2734 17.0367 22.1747 17.1477 22.0321C18.579 20.0981 20.5444 18.6247 22.802 17.7929C25.0597 16.9611 27.5112 16.8073 29.8551 17.3504C29.9923 17.3786 30.1183 17.4465 30.2173 17.5455ZM13.4152 34.2937C12.8659 33.7443 14.8635 30.7978 15.313 30.3483C15.5539 30.1777 15.8418 30.0861 16.137 30.0861C16.4322 30.0861 16.7201 30.1777 16.961 30.3483C17.1239 30.4547 17.2638 30.5926 17.3724 30.754C17.481 30.9153 17.5561 31.0968 17.5934 31.2877C17.6306 31.4786 17.6292 31.675 17.5892 31.8654C17.5492 32.0557 17.4715 32.2361 17.3606 32.3959C16.9111 32.8454 13.9646 34.843 13.4152 34.2937Z"></path>
</svg>
