<svg xmlns="http://www.w3.org/2000/svg" width="20" height="20" viewBox="0 0 20 20" fill="none">
  <path fill-rule="evenodd" clip-rule="evenodd"
        d="M4.54997 10.574C4.54997 7.50123 6.99009 5.01027 10.0001 5.01027C13.0102 5.01027 15.4503 7.50123 15.4503 10.574V17.2545H16.3606C16.5704 17.2545 16.7404 17.4282 16.7404 17.6423V18.2841C16.7404 18.4982 16.5704 18.6718 16.3606 18.6718H3.63968C3.42989 18.6718 3.25983 18.4982 3.25983 18.2841V17.6423C3.25983 17.4282 3.42989 17.2545 3.63968 17.2545H4.54997V10.574ZM9.11261 9.27563C9.14126 9.21978 9.19791 9.1848 9.2597 9.1848H11.8436C11.9821 9.1848 12.0597 9.3478 11.9741 9.45901L10.5471 11.3131C10.4614 11.4243 10.5391 11.5873 10.6776 11.5873H12.4784C12.6231 11.5873 12.6985 11.7632 12.6004 11.8718L9.2753 15.549C9.15794 15.6788 8.94866 15.5617 8.99272 15.3909L9.60873 13.0012C9.63644 12.8938 9.55703 12.7886 9.44816 12.7886H7.58445C7.45964 12.7886 7.37945 12.6533 7.43737 12.5404L9.11261 9.27563Z"
        fill="#5E6673"/>
  <path d="M9.25969 9.18478C9.1979 9.18478 9.14125 9.21976 9.11261 9.27561L7.43737 12.5404C7.37945 12.6533 7.45964 12.7886 7.58445 12.7886H9.44816C9.55703 12.7886 9.63644 12.8938 9.60873 13.0012L8.99272 15.3909C8.94866 15.5617 9.15794 15.6788 9.2753 15.549L12.6003 11.8718C12.6985 11.7632 12.6231 11.5873 12.4784 11.5873H10.6776C10.5391 11.5873 10.4614 11.4243 10.5471 11.3131L11.9741 9.45899C12.0597 9.34778 11.9821 9.18478 11.8435 9.18478H9.25969Z"
        fill="#F5F8FD"/>
  <path opacity="0.5"
        d="M9.60064 2C9.49572 2 9.41069 2.0868 9.41069 2.19388V3.94884C9.41069 4.05592 9.49572 4.14273 9.60064 4.14273H10.5586C10.6635 4.14273 10.7486 4.05592 10.7486 3.94884V2.19388C10.7486 2.0868 10.6635 2 10.5586 2H9.60064Z"
        fill="#5E6673"/>
  <path opacity="0.5"
        d="M3.62854 5.04561C3.69298 4.96112 3.81231 4.94594 3.89508 5.01172L5.25164 6.08973C5.3344 6.15551 5.34926 6.27733 5.28486 6.36185L4.69636 7.13354C4.63193 7.21803 4.5126 7.2332 4.42983 7.16742L3.07327 6.08939C2.9905 6.02361 2.97563 5.90183 3.04006 5.81731L3.62854 5.04561Z"
        fill="#5E6673"/>
  <path opacity="0.5"
        d="M16.3561 5.03664C16.2902 4.95332 16.1706 4.9403 16.089 5.00756L14.7514 6.10993C14.6697 6.17719 14.657 6.29928 14.7229 6.38259L15.3246 7.14352C15.3905 7.22686 15.5101 7.23986 15.5917 7.1726L16.9294 6.07024C17.011 6.00298 17.0237 5.88089 16.9578 5.79758L16.3561 5.03664Z"
        fill="#5E6673"/>
</svg>
