<svg xmlns="http://www.w3.org/2000/svg" width="193" height="30" fill="none" viewBox="0 0 193 30" x="130"
     data-name="logo" data-svg-id="52ff782fe6">
  <path fill-rule="evenodd" clip-rule="evenodd"
        d="M52.87 9.758v5.007h5.975v2.278H52.87v4.75h7.648v2.276h-19.28v-2.276h3.405v-8.731h2.285v8.731h3.606V9.758h2.336zm-1.02-6.091c2.742 3.125 6.16 5.796 9.916 7.582l-1.271 2.302c-3.71-1.924-6.87-4.42-9.48-7.51-2.405 2.885-5.588 5.403-9.572 7.533l-1.214-2.267c4.007-1.97 7.424-4.71 9.95-7.64h1.67zM84.055 8.89c-.87 3.916-1.91 7.304-3.239 10.235l-2.078-.73c1.282-2.656 2.249-6.024 3.21-10.1l2.107.596zm-14.328 9.648-2.175.527c-.78-3.573-1.782-6.918-2.972-10.238l2.038-.688a78.81 78.81 0 0 1 3.109 10.399zm3.368-14.733v17.93h2.182V3.804h2.404v17.93h6.892v2.335H64.102v-2.336h6.589V3.804h2.404zm29.751 6.742c.321 1.878.745 3.83 1.203 5.296.503-1.924.754-4.138.846-6.59h-1.773c-.137.55-.139.79-.276 1.294zm-1.166 3.31a24.13 24.13 0 0 1-.985 2.038l-1.305-1.712c0-.023.023-.046.023-.046h-7.03v-1.97h7.328v1.346c1.076-2.565 1.809-5.862 2.221-9.892l2.06.367c-.137 1.053-.274 2.274-.434 3.235h4.222v2.03h-.994c-.114 3.756-.659 6.645-1.666 9.302.778 1.625 1.883 3.365 2.936 4.282l-1.374 2.014c-.916-.915-1.906-2.564-2.616-4.03a15.115 15.115 0 0 1-3.023 3.814l-1.264-1.699c1.282-1.099 2.427-2.622 3.206-4.385a37.196 37.196 0 0 1-1.305-4.694zM97.163 3.68v5.133h1.065V4.917h1.71v5.77h-7.41v-5.77h1.692v3.896h1.093l-.052-5.146 1.902.013zm-.727 17.94c.274-.161.458-.413.527-.733V17.52h-1.786v1.03c-.046 2.748-.83 4.755-2.159 6.128l-1.51-1.564c1.099-1.076 1.447-2.55 1.47-4.564v-2.976h6.068v4.275l1.558-1.316.587 1.806-3.776 3.116-.98-1.837zm-4.387-10.784c-.298.779-.708 1.587-1.098 2.297l-.01 11.761h-1.99v-9.138c-.503.55-1.087 1.265-1.636 1.769l-.992-1.853c1.603-1.603 3.132-3.669 3.888-5.821l1.838.985zm.108-6.085a17.307 17.307 0 0 1-4.765 6.844l-1.054-1.97c1.632-1.49 3.16-3.844 3.94-5.882l1.879 1.008zm27.966 17.699h7.488v-3.383h-7.488v3.383zm9.534-8.987.004 2.06h-11.763l.017-2.06h11.742zm-11.794-1.368h11.764v-2.056h-11.764v2.056zm.052 12.367h11.867v-7.474h-11.867v7.474zm4.523-17.86-.863-2.133 2.191-.592 1.031 2.725h6.547v2.141h-15.091V6.602h6.185zm-11.726 8.376-.906-2.486c2.332-2.41 3.783-5.7 4.73-9.077l2.176 1.013c-.504 1.718-1.1 3.337-1.924 4.895v15.571h-2.245V12.871c-.549.733-1.236 1.42-1.831 2.107z"
        fill="#0082EF"/>
  <mask id="a" maskUnits="userSpaceOnUse" x="23" y="23" width="8" height="7">
    <path fill-rule="evenodd" clip-rule="evenodd"
          d="M23.99 23.895a.495.495 0 0 0 .07.758 6.366 6.366 0 0 1 1.892 3.402 2.063 2.063 0 0 0 .602 1.338 2.071 2.071 0 1 0 1.681-3.525 6.365 6.365 0 0 1-3.544-1.973.492.492 0 0 0-.7 0z"
          fill="#fff"/>
  </mask>
  <g mask="url(#a)">
    <path fill-rule="evenodd" clip-rule="evenodd" d="M23.627 30.218h6.681v-6.686h-6.681v6.686z" fill="#FB6500"/>
  </g>
  <mask id="b" maskUnits="userSpaceOnUse" x="29" y="20" width="7" height="7">
    <path fill-rule="evenodd" clip-rule="evenodd"
          d="M32.411 20.62a2.063 2.063 0 0 0-.595 1.248 6.368 6.368 0 0 1-1.973 3.545.495.495 0 1 0 .758.631 6.363 6.363 0 0 1 3.402-1.892 2.027 2.027 0 0 0 .42-.069 2.072 2.072 0 1 0-2.012-3.462z"
          fill="#fff"/>
  </mask>
  <g mask="url(#b)">
    <path fill-rule="evenodd" clip-rule="evenodd" d="M29.48 26.476h6.686v-6.681H29.48v6.681z" fill="#0082EF"/>
  </g>
  <mask id="c" maskUnits="userSpaceOnUse" x="25" y="14" width="8" height="7">
    <path fill-rule="evenodd" clip-rule="evenodd"
          d="M26.568 14.763a2.073 2.073 0 0 0 1.248 3.525 6.363 6.363 0 0 1 3.545 1.973.496.496 0 1 0 .631-.758 6.367 6.367 0 0 1-1.892-3.402 2.143 2.143 0 0 0-.069-.42 2.069 2.069 0 0 0-1.998-1.525c-.53 0-1.06.203-1.465.607z"
          fill="#fff"/>
  </mask>
  <g mask="url(#c)">
    <path fill-rule="evenodd" clip-rule="evenodd" d="M25.744 20.624h6.68v-6.686h-6.68v6.686z" fill="#2DBC00"/>
  </g>
  <mask id="d" maskUnits="userSpaceOnUse" x="20" y="17" width="7" height="8">
    <path fill-rule="evenodd" clip-rule="evenodd"
          d="M25.547 18.007a.483.483 0 0 0-.096.104 6.36 6.36 0 0 1-3.402 1.892 2.082 2.082 0 0 0-1.338.602 2.072 2.072 0 1 0 3.524 1.683 6.37 6.37 0 0 1 1.974-3.545.495.495 0 0 0-.662-.736z"
          fill="#fff"/>
  </mask>
  <g mask="url(#d)">
    <path fill-rule="evenodd" clip-rule="evenodd" d="M19.886 24.36h6.686v-6.68h-6.686v6.681z" fill="#FC0"/>
  </g>
  <mask id="e" maskUnits="userSpaceOnUse" x="0" y="0" width="30" height="28">
    <path fill-rule="evenodd" clip-rule="evenodd"
          d="M13.022.105C9.302.509 5.919 2.1 3.5 4.587a12.708 12.708 0 0 0-2.313 3.259A11.376 11.376 0 0 0 0 12.9c0 2.257.687 4.48 1.985 6.434.658.989 1.734 2.234 2.724 3.113v.001l-.447 3.516c-.018.048-.037.095-.048.146-.01.045-.014.093-.018.14-.003.036-.01.07-.01.108 0 .039.007.076.01.115.06.578.542 1.031 1.136 1.031.207 0 .398-.059.566-.155l.016-.009c.025-.014.05-.027.073-.043l1.068-.536 3.184-1.598c.915.263 1.824.43 2.78.535a17.234 17.234 0 0 0 3.838-.01 16.705 16.705 0 0 0 3.754-.878 2.07 2.07 0 0 1-1.41-2.165c-.852.271-1.742.465-2.662.57a14.465 14.465 0 0 1-3.214.01c-.107-.013-.216-.03-.324-.044a14.223 14.223 0 0 1-2.107-.442 1.429 1.429 0 0 0-1.133.116c-.03.015-.06.029-.09.046l-2.616 1.541-.113.067-.003.002c-.056.033-.089.045-.117.045a.178.178 0 0 1-.175-.18l.101-.408.117-.443a399.918 399.918 0 0 1 .403-1.537 1.1 1.1 0 0 0-.395-1.221 12.127 12.127 0 0 1-1.093-.918 10.68 10.68 0 0 1-1.55-1.832c-1.028-1.547-1.572-3.301-1.572-5.074 0-1.377.315-2.715.936-3.979A10.207 10.207 0 0 1 5.45 6.352c1.99-2.043 4.786-3.354 7.876-3.69a14.682 14.682 0 0 1 1.571-.088c.531 0 1.084.032 1.643.096 3.075.35 5.855 1.667 7.83 3.708a10.19 10.19 0 0 1 1.846 2.618c.61 1.255.92 2.583.92 3.947 0 .141-.01.282-.016.424a2.068 2.068 0 0 1 2.543.298c.035.035.064.073.096.11a11.378 11.378 0 0 0-1.132-5.889 12.71 12.71 0 0 0-2.3-3.267C23.923 2.135 20.56.535 16.856.113A17.464 17.464 0 0 0 14.897 0c-.604 0-1.236.035-1.875.105z"
          fill="#fff"/>
  </mask>
  <g mask="url(#e)">
    <path fill-rule="evenodd" clip-rule="evenodd" d="M-.218 27.722h30.23V-.218H-.217v27.94z" fill="#0082EF"/>
  </g>
  <path fill-rule="evenodd" clip-rule="evenodd"
        d="m168.42 23.25-1.247 1.881c-3.787-1.41-6.939-3.175-9.433-5.292-2.658 2.352-5.927 4.093-9.809 5.222l-1.199-1.976c3.81-.988 6.939-2.54 9.432-4.68-2.587-2.588-4.398-5.646-5.41-9.128h-3.599v-2.21h9.48a17.238 17.238 0 0 0-2.258-3.2l2.234-.823c.847 1.129 1.647 2.47 2.376 4.022h8.915v2.211h-3.599c-1.129 3.576-2.799 6.563-5.01 8.986 2.446 2 5.504 3.67 9.127 4.987zM152.895 9.277a18.969 18.969 0 0 0 4.822 7.598c1.905-2.093 3.34-4.634 4.281-7.598h-9.103zm38.774 15.713V11.253h-4.799v-7.95h-2.282v7.95h-4.986v2.164h9.856v3.2h-9.268v2.116h9.268v3.223h-10.209v2.188h10.209v.846h2.211zm-15.266-11.502v11.408h-2.235V13.982c-.706 1.976-1.576 3.81-2.611 5.457l-.964-2.423c1.623-2.117 2.799-4.493 3.528-7.174h-2.964v-2.14h3.011v-4.4h2.235v4.4h2.611v2.14h-2.611v1.082a64.466 64.466 0 0 1 3.175 3.693l-1.294 1.882a87.249 87.249 0 0 0-1.881-3.011zm13.431-3.129a28.59 28.59 0 0 0 2.446-4.963l-1.976-.94c-.588 1.622-1.387 3.269-2.375 4.915l1.905.988zm-6.422-.988-1.929.965c-.752-1.788-1.552-3.364-2.399-4.752l1.976-.964c.823 1.435 1.6 3.01 2.352 4.751z"
        fill="#0082EF"/>
  <circle cx="139.5" cy="15.5" r="1.5" fill="#0082EF"/>
</svg>
