<svg xmlns="http://www.w3.org/2000/svg" width="333" height="271" data-sprite-id="7495d8777f435ff2374b5a14b139e9f9"
     data-total="46">
  <svg xmlns="http://www.w3.org/2000/svg" width="24" height="24" fill="none" viewBox="0 0 24 24" x="35" y="180"
       data-name="accountSelect" data-svg-id="0035fbe19f">
    <path d="m6 12 4 4 8-8" stroke="#1A77FE" stroke-width="2"/>
  </svg>
  <svg xmlns="http://www.w3.org/2000/svg" width="14" height="14" fill="none" viewBox="0 0 14 14" x="308" y="215"
       data-name="add" data-svg-id="a995e5c243">
    <path d="M7.5 4a.5.5 0 0 0-1 0v2.5H4a.5.5 0 0 0 0 1h2.5V10a.5.5 0 0 0 1 0V7.5H10a.5.5 0 0 0 0-1H7.5V4z"
          fill="#000"/>
    <path fill-rule="evenodd" clip-rule="evenodd"
          d="M7 0a7 7 0 1 0 0 14A7 7 0 0 0 7 0zM1 7a6 6 0 1 1 12 0A6 6 0 0 1 1 7z" fill="#000"/>
  </svg>
  <svg xmlns="http://www.w3.org/2000/svg" width="10" height="10" viewBox="0 0 10 10" x="104" y="243"
       data-name="close-black" data-svg-id="ef0201bf31">
    <path
        d="M.854.146 5 4.293 9.146.146A.5.5 0 0 1 9.784.09l.07.057a.5.5 0 0 1 0 .708L5.707 5l4.147 4.146a.5.5 0 0 1-.708.708L5 5.707.854 9.854a.5.5 0 0 1-.638.057l-.07-.057a.5.5 0 0 1 0-.708L4.293 5 .146.854A.5.5 0 0 1 .854.146z"
        fill="#888" fill-rule="evenodd"/>
  </svg>
  <svg xmlns="http://www.w3.org/2000/svg" width="10" height="10" viewBox="0 0 10 10" x="124" y="243"
       data-name="close-blue" data-svg-id="bcad20e0bd">
    <path
        d="M.854.146 5 4.293 9.146.146A.5.5 0 0 1 9.784.09l.07.057a.5.5 0 0 1 0 .708L5.707 5l4.147 4.146a.5.5 0 0 1-.708.708L5 5.707.854 9.854a.5.5 0 0 1-.638.057l-.07-.057a.5.5 0 0 1 0-.708L4.293 5 .146.854A.5.5 0 0 1 .854.146z"
        fill="#4892FE" fill-rule="evenodd"/>
  </svg>
  <svg xmlns="http://www.w3.org/2000/svg" width="18" height="18" fill="none" viewBox="0 0 18 18" x="188" y="130"
       data-name="comment" data-svg-id="61862e3e94">
    <path d="M6 8.5a.5.5 0 0 1 .5-.5h5a.5.5 0 0 1 0 1h-5a.5.5 0 0 1-.5-.5z" fill="#333"/>
    <path clip-rule="evenodd"
          d="M7.723 13.584A.5.5 0 0 1 8 13.5h6.5a1 1 0 0 0 1-1v-8a1 1 0 0 0-1-1h-11a1 1 0 0 0-1 1v8a1 1 0 0 0 1 1h.9a.1.1 0 0 1 .1.1v1.97a.3.3 0 0 0 .466.25l2.757-2.236z"
          stroke="#333"/>
  </svg>
  <svg xmlns="http://www.w3.org/2000/svg" width="18" height="18" fill="none" viewBox="0 0 18 18" x="216" y="130"
       data-name="copyweb" data-svg-id="0187aba2bf">
    <path d="M5.5 14.5v-8a1 1 0 0 1 1-1h8a1 1 0 0 1 1 1v8a1 1 0 0 1-1 1h-8a1 1 0 0 1-1-1z" stroke="#333"/>
    <path fill="#333" d="M8 10h5v1H8z"/>
    <path fill="#333" d="M10 8h1v5h-1z"/>
    <path d="M12.5 4v-.5a1 1 0 0 0-1-1h-8a1 1 0 0 0-1 1v8a1 1 0 0 0 1 1H4" stroke="#333"/>
  </svg>
  <svg xmlns="http://www.w3.org/2000/svg" width="18" height="18" fill="none" viewBox="0 0 18 18" x="244" y="130"
       data-name="delete" data-svg-id="249d10e71d">
    <path fill="#333" d="M8 7.5h1v5H8zM1 4h15v1H1z"/>
    <path d="m3.98 15.5-.459-11h9.958l-.459 11H3.98zm2.61-11 .334-2h3.152l.334 2H6.59z" stroke="#333"/>
  </svg>
  <svg xmlns="http://www.w3.org/2000/svg" width="18" height="18" fill="none" viewBox="0 0 18 18" x="272" y="130"
       data-name="deleteCompletely" data-svg-id="ec0f861f6e">
    <path fill="#333" d="M8 7.5h1v5H8zM1 4h15v1H1z"/>
    <path d="m3.98 15.5-.459-11h9.958l-.459 11H3.98zm2.61-11 .334-2h3.152l.334 2H6.59z" stroke="#333"/>
  </svg>
  <svg xmlns="http://www.w3.org/2000/svg" width="18" height="18" fill="none" viewBox="0 0 18 18" x="300" y="130"
       data-name="deleteRecord" data-svg-id="ceaa9898a2">
    <g fill-rule="evenodd" clip-rule="evenodd" fill="#333">
      <path
          d="m13.392 1.075 2.828 2.828-2.828 2.829L15.159 8.5a2 2 0 0 1 0 2.828l-.707.707-.707.707-4.243 4.243L.31 7.792 4.553 3.55l.707-.707.707-.707a2 2 0 0 1 2.828 0l1.768 1.767 2.829-2.828zM11.27 4.61l1.414 1.415 2.122-2.122-1.414-1.414L11.27 4.61zm-6.01-.353L1.724 7.792l7.778 7.779 3.536-3.536L5.26 4.257zm8.485 7.071L5.967 3.55l.707-.707.087-.078a1 1 0 0 1 1.327.078L9.856 4.61l2.828 2.829 1.768 1.768.078.087a1 1 0 0 1-.078 1.327l-.707.707z"/>
      <path
          d="m7.381 9.207.707.707-2.121 2.121-.707-.707 2.12-2.121zM4.553 7.792l.707.708-1.414 1.414-.708-.707 1.415-1.415zm4.95 4.95-.708-.707-1.414 1.414.707.707 1.414-1.414z"/>
    </g>
  </svg>
  <svg xmlns="http://www.w3.org/2000/svg" width="40" height="40" viewBox="0 0 40 40" y="130" data-name="delete_more"
       data-svg-id="34d6a0fb52">
    <g transform="translate(8 7.5)" fill="none" fill-rule="evenodd">
      <path
          d="m19.5 4.25.25 18.25a1.246 1.246 0 0 1-1.25 1.25h-13a1.246 1.246 0 0 1-1.25-1.25v-18l15.25-.25zm-5.25-3c.414 0 .79.168 1.06.44.272.27.44.646.44 1.06V4l-7.25.25-.25-1.5c0-.414.168-.79.44-1.06a1.49 1.49 0 0 1 1.06-.44z"
          stroke="#000" stroke-width="1.5"/>
      <rect fill="#000" x="9" y="9" width="1.5" height="10" rx=".75"/>
      <rect fill="#000" x="13.5" y="9" width="1.5" height="10" rx=".75"/>
      <rect fill="#000" y="3.5" width="24" height="1.5" rx=".75"/>
    </g>
  </svg>
  <svg xmlns="http://www.w3.org/2000/svg" width="18" height="18" fill="none" viewBox="0 0 18 18" x="69" y="180"
       data-name="download" data-svg-id="7234247745">
    <path d="M14.398 7.5 8.5 14.24 2.602 7.5H6.5v-5h4v5h3.898z" stroke="#333"/>
    <path fill="#333" d="M2 16h13v1H2z"/>
  </svg>
  <svg xmlns="http://www.w3.org/2000/svg" width="18" height="18" fill="none" viewBox="0 0 18 18" x="97" y="180"
       data-name="fileAuthManager" data-svg-id="3e5123eab6">
    <rect x="2.5" y="7.5" width="12" height="8" rx="1.5" stroke="#333"/>
    <path d="M8.5 2.6c2.183 0 4 1.865 4 4.279v.625h-8v-.625c0-2.414 1.817-4.279 4-4.279z" stroke="#333"/>
    <rect x="7" y="11" width="3" height="1" rx=".5" fill="#333"/>
  </svg>
  <svg xmlns="http://www.w3.org/2000/svg" width="18" height="18" fill="none" viewBox="0 0 18 18" x="125" y="180"
       data-name="fileOperate" data-svg-id="547b8cf081">
    <path d="M4.5 14.5v-9a1 1 0 0 1 1-1h8a1 1 0 0 1 1 1v9a1 1 0 0 1-1 1h-8a1 1 0 0 1-1-1z" stroke="#333"/>
    <path fill="#333" d="M7 8h5v1H7zm0 3h5v1H7z"/>
    <path d="M2.5 12V3.5a1 1 0 0 1 1-1H10" stroke="#333"/>
  </svg>
  <svg xmlns="http://www.w3.org/2000/svg" width="10" height="12" fill="none" viewBox="0 0 10 12" x="84" y="243"
       data-name="filter" data-svg-id="38a667c96c">
    <path fill-rule="evenodd" clip-rule="evenodd"
          d="M1.284 0h7.432c.126 0 .249 0 .353.008.114.01.25.032.385.101a1 1 0 0 1 .437.437c.07.136.091.27.1.385.009.104.009.227.009.353V3.5a.5.5 0 0 1-.2.4L7 5.75V9a.5.5 0 0 1-.2.4l-3 2.5a.5.5 0 0 1-.8-.4V5.75L.2 3.9a.5.5 0 0 1-.2-.4V1.284c0-.126 0-.249.008-.353C.018.817.04.68.11.546A1 1 0 0 1 .546.109a.987.987 0 0 1 .385-.1C1.035 0 1.158 0 1.284 0zm-.278 1.006v.006C1 1.071 1 1.152 1 1.3v1.95L3.8 5.1a.5.5 0 0 1 .2.4v5l2-1.75V5.5a.5.5 0 0 1 .2-.4L9 3.25V1.3a4.096 4.096 0 0 0-.006-.294h-.006A4.096 4.096 0 0 0 8.7 1H1.3a4.096 4.096 0 0 0-.294.006z"
          fill="#0B111A" fill-opacity=".5"/>
  </svg>
  <svg xmlns="http://www.w3.org/2000/svg" width="18" height="18" fill="none" viewBox="0 0 18 18" x="153" y="180"
       data-name="forwardWeixin" data-svg-id="f27595b69e">
    <path fill-rule="evenodd" clip-rule="evenodd"
          d="M.756 7.385c0-2.908 2.808-5.134 6.092-5.134 2.964 0 5.541 1.815 6.014 4.308 2.423.31 4.382 2.079 4.382 4.334 0 1.328-.686 2.501-1.736 3.288.031.131.075.29.113.43l.029.104.026.096.019.068.004.015.003.015.002.007.003.017.004.024.004.038.008.04a.606.606 0 0 1-.737.695.558.558 0 0 1-.148-.064h-.001l-.003-.002-.009-.005-1.023-.593a.309.309 0 0 0-.039-.016l-.002-.001h-.004a5.84 5.84 0 0 1-1.653.227c-2.123 0-4.021-1.122-4.784-2.772a6.896 6.896 0 0 1-2.439-.261h-.02l-.033-.001a.09.09 0 0 0-.024.004.186.186 0 0 0-.041.019l-.006.004-1.248.718-.013.006-.002.001a.673.673 0 0 1-.303.08.643.643 0 0 1-.611-.84l.018-.054.003-.008.007-.02.034-.1v-.002a27.652 27.652 0 0 0 .211-.79C1.597 10.343.757 8.945.757 7.386zm6.277 4.232a3.82 3.82 0 0 1-.069-.724c0-2.451 2.28-4.302 4.963-4.38-.489-1.874-2.516-3.362-5.08-3.362-2.95 0-5.19 1.972-5.19 4.234 0 1.233.671 2.389 1.757 3.17a.799.799 0 0 1 .34.78c-.002.02-.006.04-.008.05v.029l-.014.054c-.03.122-.07.27-.108.414l.68-.392c.143-.084.325-.148.524-.148h.008c.043 0 .176-.002.3.038a5.964 5.964 0 0 0 1.897.237zm.831-.724c0-1.864 1.822-3.483 4.24-3.483 2.417 0 4.24 1.635 4.24 3.483 0 1.022-.537 1.961-1.43 2.607l-.009.007-.009.007a.781.781 0 0 0-.307.613v.006c0 .029-.001.125.037.235l.04.159-.437-.254-.012-.006a1.005 1.005 0 0 0-.446-.118h-.004c-.023 0-.067 0-.112.004a.65.65 0 0 0-.173.039 4.952 4.952 0 0 1-1.378.184c-2.417 0-4.24-1.634-4.24-3.483zm-2.172-5.02a.72.72 0 0 1-.725.725.72.72 0 0 1-.725-.725.72.72 0 0 1 .725-.725.72.72 0 0 1 .725.725zm3.036.725a.72.72 0 0 0 .725-.725.72.72 0 0 0-.725-.725.72.72 0 0 0-.725.725c0 .405.32.725.725.725zm4.351 3.081c0 .353.282.635.634.635a.632.632 0 0 0 .635-.635.632.632 0 0 0-.635-.634.632.632 0 0 0-.634.634zm-2.493.635a.632.632 0 0 1-.634-.635c0-.352.282-.634.634-.634.353 0 .635.282.635.634a.632.632 0 0 1-.635.635z"
          fill="#333"/>
  </svg>
  <svg xmlns="http://www.w3.org/2000/svg" width="18" height="18" fill="none" viewBox="0 0 18 18" x="181" y="180"
       data-name="genShareCode" data-svg-id="a0be6fb747">
    <path d="M2.5 8.5v-5a1 1 0 0 1 1-1h5a1 1 0 0 1 1 1v5a1 1 0 0 1-1 1h-5a1 1 0 0 1-1-1z" stroke="#333"/>
    <path fill="#333"
          d="M5.4 5.4h1.2v1.2H5.4zm3 6h1.2v1.2H8.4zm0 3h1.2v1.2H8.4zm6-6h1.2v1.2h-1.2zm-3 0h1.2v1.2h-1.2z"/>
    <path
        d="M11.5 5.5v-2a1 1 0 0 1 1-1h2a1 1 0 0 1 1 1v2a1 1 0 0 1-1 1h-2a1 1 0 0 1-1-1zm0 9v-2a1 1 0 0 1 1-1h2a1 1 0 0 1 1 1v2a1 1 0 0 1-1 1h-2a1 1 0 0 1-1-1zm-9 0v-2a1 1 0 0 1 1-1h2a1 1 0 0 1 1 1v2a1 1 0 0 1-1 1h-2a1 1 0 0 1-1-1z"
        stroke="#333"/>
  </svg>
  <svg xmlns="http://www.w3.org/2000/svg" width="18" height="18" fill="none" viewBox="0 0 18 18" x="209" y="180"
       data-name="inviteWxUser" data-svg-id="4ec57268ad">
    <rect x="5" y="7" width="5" height="1" rx=".5" fill="#333"/>
    <rect x="5" y="10" width="3" height="1" rx=".5" fill="#333"/>
    <path d="M16.5 10 12 16l-2.5-2.5" stroke="#333" stroke-linecap="round" stroke-linejoin="round"/>
    <path d="M13.5 8V5.707a.5.5 0 0 0-.146-.353l-2.708-2.708a.5.5 0 0 0-.353-.146H3.5a1 1 0 0 0-1 1v11a1 1 0 0 0 1 1H7"
          stroke="#333" stroke-linecap="round"/>
  </svg>
  <svg xmlns="http://www.w3.org/2000/svg" width="18" height="18" fill="none" viewBox="0 0 18 18" x="237" y="180"
       data-name="link" data-svg-id="096a5b0ef7">
    <path d="M9.354 8.854a.502.502 0 0 0-.708-.708l-1 1a.502.502 0 0 0 .708.708l1-1z" fill="#333"/>
    <path d="M1.5 9a7 7 0 1 1 14 0 7 7 0 0 1-14 0z" stroke="#333"/>
    <path fill-rule="evenodd" clip-rule="evenodd"
          d="M10.948 6.39a1.606 1.606 0 0 0-2.322 0l-.001.002-.583.6a.499.499 0 0 1-.708.01.502.502 0 0 1-.01-.708l.585-.6a2.605 2.605 0 0 1 3.756 0 2.762 2.762 0 0 1 0 3.827l-.583.6a.498.498 0 0 1-.708.01.502.502 0 0 1-.01-.708l.584-.6c.65-.669.65-1.763 0-2.433zm-4.963 5.154c.642.66 1.68.66 2.322 0l.583-.602a.502.502 0 0 1 .718.698l-.583.6a2.607 2.607 0 0 1-3.757 0 2.763 2.763 0 0 1 0-3.828l.582-.6a.5.5 0 0 1 .707-.01.503.503 0 0 1 .012.708l-.584.6a1.763 1.763 0 0 0 0 2.434z"
          fill="#333"/>
  </svg>
  <svg xmlns="http://www.w3.org/2000/svg" width="40" height="40" fill="none" viewBox="0 0 40 40" x="50" y="130"
       data-name="loading" data-svg-id="415d7c931f">
    <path fill-rule="evenodd" clip-rule="evenodd"
          d="M20 5.714C12.11 5.714 5.714 12.11 5.714 20S12.11 34.286 20 34.286 34.286 27.89 34.286 20 27.89 5.714 20 5.714zM0 20C0 8.954 8.954 0 20 0s20 8.954 20 20-8.954 20-20 20S0 31.046 0 20z"
          fill="#EDF4FE"/>
    <path fill-rule="evenodd" clip-rule="evenodd"
          d="M9.898 9.899c-5.579 5.579-5.579 14.624 0 20.203 5.579 5.579 14.624 5.579 20.203 0a2.857 2.857 0 1 1 4.04 4.04c-7.81 7.81-20.473 7.81-28.283 0-7.811-7.81-7.811-20.474 0-28.284a2.857 2.857 0 1 1 4.04 4.04z"
          fill="#4892FE"/>
  </svg>
  <svg xmlns="http://www.w3.org/2000/svg" width="193" height="30" fill="none" viewBox="0 0 193 30" x="130"
       data-name="logo" data-svg-id="52ff782fe6">
    <path fill-rule="evenodd" clip-rule="evenodd"
          d="M52.87 9.758v5.007h5.975v2.278H52.87v4.75h7.648v2.276h-19.28v-2.276h3.405v-8.731h2.285v8.731h3.606V9.758h2.336zm-1.02-6.091c2.742 3.125 6.16 5.796 9.916 7.582l-1.271 2.302c-3.71-1.924-6.87-4.42-9.48-7.51-2.405 2.885-5.588 5.403-9.572 7.533l-1.214-2.267c4.007-1.97 7.424-4.71 9.95-7.64h1.67zM84.055 8.89c-.87 3.916-1.91 7.304-3.239 10.235l-2.078-.73c1.282-2.656 2.249-6.024 3.21-10.1l2.107.596zm-14.328 9.648-2.175.527c-.78-3.573-1.782-6.918-2.972-10.238l2.038-.688a78.81 78.81 0 0 1 3.109 10.399zm3.368-14.733v17.93h2.182V3.804h2.404v17.93h6.892v2.335H64.102v-2.336h6.589V3.804h2.404zm29.751 6.742c.321 1.878.745 3.83 1.203 5.296.503-1.924.754-4.138.846-6.59h-1.773c-.137.55-.139.79-.276 1.294zm-1.166 3.31a24.13 24.13 0 0 1-.985 2.038l-1.305-1.712c0-.023.023-.046.023-.046h-7.03v-1.97h7.328v1.346c1.076-2.565 1.809-5.862 2.221-9.892l2.06.367c-.137 1.053-.274 2.274-.434 3.235h4.222v2.03h-.994c-.114 3.756-.659 6.645-1.666 9.302.778 1.625 1.883 3.365 2.936 4.282l-1.374 2.014c-.916-.915-1.906-2.564-2.616-4.03a15.115 15.115 0 0 1-3.023 3.814l-1.264-1.699c1.282-1.099 2.427-2.622 3.206-4.385a37.196 37.196 0 0 1-1.305-4.694zM97.163 3.68v5.133h1.065V4.917h1.71v5.77h-7.41v-5.77h1.692v3.896h1.093l-.052-5.146 1.902.013zm-.727 17.94c.274-.161.458-.413.527-.733V17.52h-1.786v1.03c-.046 2.748-.83 4.755-2.159 6.128l-1.51-1.564c1.099-1.076 1.447-2.55 1.47-4.564v-2.976h6.068v4.275l1.558-1.316.587 1.806-3.776 3.116-.98-1.837zm-4.387-10.784c-.298.779-.708 1.587-1.098 2.297l-.01 11.761h-1.99v-9.138c-.503.55-1.087 1.265-1.636 1.769l-.992-1.853c1.603-1.603 3.132-3.669 3.888-5.821l1.838.985zm.108-6.085a17.307 17.307 0 0 1-4.765 6.844l-1.054-1.97c1.632-1.49 3.16-3.844 3.94-5.882l1.879 1.008zm27.966 17.699h7.488v-3.383h-7.488v3.383zm9.534-8.987.004 2.06h-11.763l.017-2.06h11.742zm-11.794-1.368h11.764v-2.056h-11.764v2.056zm.052 12.367h11.867v-7.474h-11.867v7.474zm4.523-17.86-.863-2.133 2.191-.592 1.031 2.725h6.547v2.141h-15.091V6.602h6.185zm-11.726 8.376-.906-2.486c2.332-2.41 3.783-5.7 4.73-9.077l2.176 1.013c-.504 1.718-1.1 3.337-1.924 4.895v15.571h-2.245V12.871c-.549.733-1.236 1.42-1.831 2.107z"
          fill="#0082EF"/>
    <mask id="a" maskUnits="userSpaceOnUse" x="23" y="23" width="8" height="7">
      <path fill-rule="evenodd" clip-rule="evenodd"
            d="M23.99 23.895a.495.495 0 0 0 .07.758 6.366 6.366 0 0 1 1.892 3.402 2.063 2.063 0 0 0 .602 1.338 2.071 2.071 0 1 0 1.681-3.525 6.365 6.365 0 0 1-3.544-1.973.492.492 0 0 0-.7 0z"
            fill="#fff"/>
    </mask>
    <g mask="url(#a)">
      <path fill-rule="evenodd" clip-rule="evenodd" d="M23.627 30.218h6.681v-6.686h-6.681v6.686z" fill="#FB6500"/>
    </g>
    <mask id="b" maskUnits="userSpaceOnUse" x="29" y="20" width="7" height="7">
      <path fill-rule="evenodd" clip-rule="evenodd"
            d="M32.411 20.62a2.063 2.063 0 0 0-.595 1.248 6.368 6.368 0 0 1-1.973 3.545.495.495 0 1 0 .758.631 6.363 6.363 0 0 1 3.402-1.892 2.027 2.027 0 0 0 .42-.069 2.072 2.072 0 1 0-2.012-3.462z"
            fill="#fff"/>
    </mask>
    <g mask="url(#b)">
      <path fill-rule="evenodd" clip-rule="evenodd" d="M29.48 26.476h6.686v-6.681H29.48v6.681z" fill="#0082EF"/>
    </g>
    <mask id="c" maskUnits="userSpaceOnUse" x="25" y="14" width="8" height="7">
      <path fill-rule="evenodd" clip-rule="evenodd"
            d="M26.568 14.763a2.073 2.073 0 0 0 1.248 3.525 6.363 6.363 0 0 1 3.545 1.973.496.496 0 1 0 .631-.758 6.367 6.367 0 0 1-1.892-3.402 2.143 2.143 0 0 0-.069-.42 2.069 2.069 0 0 0-1.998-1.525c-.53 0-1.06.203-1.465.607z"
            fill="#fff"/>
    </mask>
    <g mask="url(#c)">
      <path fill-rule="evenodd" clip-rule="evenodd" d="M25.744 20.624h6.68v-6.686h-6.68v6.686z" fill="#2DBC00"/>
    </g>
    <mask id="d" maskUnits="userSpaceOnUse" x="20" y="17" width="7" height="8">
      <path fill-rule="evenodd" clip-rule="evenodd"
            d="M25.547 18.007a.483.483 0 0 0-.096.104 6.36 6.36 0 0 1-3.402 1.892 2.082 2.082 0 0 0-1.338.602 2.072 2.072 0 1 0 3.524 1.683 6.37 6.37 0 0 1 1.974-3.545.495.495 0 0 0-.662-.736z"
            fill="#fff"/>
    </mask>
    <g mask="url(#d)">
      <path fill-rule="evenodd" clip-rule="evenodd" d="M19.886 24.36h6.686v-6.68h-6.686v6.681z" fill="#FC0"/>
    </g>
    <mask id="e" maskUnits="userSpaceOnUse" x="0" y="0" width="30" height="28">
      <path fill-rule="evenodd" clip-rule="evenodd"
            d="M13.022.105C9.302.509 5.919 2.1 3.5 4.587a12.708 12.708 0 0 0-2.313 3.259A11.376 11.376 0 0 0 0 12.9c0 2.257.687 4.48 1.985 6.434.658.989 1.734 2.234 2.724 3.113v.001l-.447 3.516c-.018.048-.037.095-.048.146-.01.045-.014.093-.018.14-.003.036-.01.07-.01.108 0 .039.007.076.01.115.06.578.542 1.031 1.136 1.031.207 0 .398-.059.566-.155l.016-.009c.025-.014.05-.027.073-.043l1.068-.536 3.184-1.598c.915.263 1.824.43 2.78.535a17.234 17.234 0 0 0 3.838-.01 16.705 16.705 0 0 0 3.754-.878 2.07 2.07 0 0 1-1.41-2.165c-.852.271-1.742.465-2.662.57a14.465 14.465 0 0 1-3.214.01c-.107-.013-.216-.03-.324-.044a14.223 14.223 0 0 1-2.107-.442 1.429 1.429 0 0 0-1.133.116c-.03.015-.06.029-.09.046l-2.616 1.541-.113.067-.003.002c-.056.033-.089.045-.117.045a.178.178 0 0 1-.175-.18l.101-.408.117-.443a399.918 399.918 0 0 1 .403-1.537 1.1 1.1 0 0 0-.395-1.221 12.127 12.127 0 0 1-1.093-.918 10.68 10.68 0 0 1-1.55-1.832c-1.028-1.547-1.572-3.301-1.572-5.074 0-1.377.315-2.715.936-3.979A10.207 10.207 0 0 1 5.45 6.352c1.99-2.043 4.786-3.354 7.876-3.69a14.682 14.682 0 0 1 1.571-.088c.531 0 1.084.032 1.643.096 3.075.35 5.855 1.667 7.83 3.708a10.19 10.19 0 0 1 1.846 2.618c.61 1.255.92 2.583.92 3.947 0 .141-.01.282-.016.424a2.068 2.068 0 0 1 2.543.298c.035.035.064.073.096.11a11.378 11.378 0 0 0-1.132-5.889 12.71 12.71 0 0 0-2.3-3.267C23.923 2.135 20.56.535 16.856.113A17.464 17.464 0 0 0 14.897 0c-.604 0-1.236.035-1.875.105z"
            fill="#fff"/>
    </mask>
    <g mask="url(#e)">
      <path fill-rule="evenodd" clip-rule="evenodd" d="M-.218 27.722h30.23V-.218H-.217v27.94z" fill="#0082EF"/>
    </g>
    <path fill-rule="evenodd" clip-rule="evenodd"
          d="m168.42 23.25-1.247 1.881c-3.787-1.41-6.939-3.175-9.433-5.292-2.658 2.352-5.927 4.093-9.809 5.222l-1.199-1.976c3.81-.988 6.939-2.54 9.432-4.68-2.587-2.588-4.398-5.646-5.41-9.128h-3.599v-2.21h9.48a17.238 17.238 0 0 0-2.258-3.2l2.234-.823c.847 1.129 1.647 2.47 2.376 4.022h8.915v2.211h-3.599c-1.129 3.576-2.799 6.563-5.01 8.986 2.446 2 5.504 3.67 9.127 4.987zM152.895 9.277a18.969 18.969 0 0 0 4.822 7.598c1.905-2.093 3.34-4.634 4.281-7.598h-9.103zm38.774 15.713V11.253h-4.799v-7.95h-2.282v7.95h-4.986v2.164h9.856v3.2h-9.268v2.116h9.268v3.223h-10.209v2.188h10.209v.846h2.211zm-15.266-11.502v11.408h-2.235V13.982c-.706 1.976-1.576 3.81-2.611 5.457l-.964-2.423c1.623-2.117 2.799-4.493 3.528-7.174h-2.964v-2.14h3.011v-4.4h2.235v4.4h2.611v2.14h-2.611v1.082a64.466 64.466 0 0 1 3.175 3.693l-1.294 1.882a87.249 87.249 0 0 0-1.881-3.011zm13.431-3.129a28.59 28.59 0 0 0 2.446-4.963l-1.976-.94c-.588 1.622-1.387 3.269-2.375 4.915l1.905.988zm-6.422-.988-1.929.965c-.752-1.788-1.552-3.364-2.399-4.752l1.976-.964c.823 1.435 1.6 3.01 2.352 4.751z"
          fill="#0082EF"/>
    <circle cx="139.5" cy="15.5" r="1.5" fill="#0082EF"/>
  </svg>
  <svg xmlns="http://www.w3.org/2000/svg" width="192" height="30" fill="none" viewBox="0 0 192 30" x="130" y="40"
       data-name="logo-en" data-svg-id="cbcfa5618d">
    <path d="M126.111 15.5a1.356 1.356 0 1 0 0-2.711 1.356 1.356 0 0 0 0 2.712z" fill="#0082F6"/>
    <path fill-rule="evenodd" clip-rule="evenodd"
          d="m27.008 24.557-.116-.025h-.12a6.035 6.035 0 0 1-3.367-1.888.471.471 0 0 0-.697.627l.032.038c.02.02.042.037.066.053l.138.132a6.05 6.05 0 0 1 1.662 3.111c0 .066 0 .129.022.191.022.063.025.138.044.207a1.963 1.963 0 0 0 3.283.856 1.962 1.962 0 0 0 0-2.778 1.937 1.937 0 0 0-.94-.524"
          fill="#FB6500"/>
    <path fill-rule="evenodd" clip-rule="evenodd"
          d="M33.51 19.54a1.966 1.966 0 0 0-3.303.94c0 .041 0 .079-.022.12-.022.04 0 .078 0 .115a6.033 6.033 0 0 1-1.872 3.362.47.47 0 0 0 .627.7l.037-.035a.534.534 0 0 0 .054-.066l.132-.135a6.01 6.01 0 0 1 3.095-1.659c.064-.002.128-.01.191-.022a1.933 1.933 0 0 0 1.076-.549 1.963 1.963 0 0 0 0-2.778"
          fill="#0082F6"/>
    <path fill-rule="evenodd" clip-rule="evenodd"
          d="M25.192 13.985a1.963 1.963 0 0 0 .941 3.303l.116.025h.12A6.05 6.05 0 0 1 29.55 19l.189.198a.47.47 0 0 0 .696-.628l-.032-.037-.065-.054a6.008 6.008 0 0 1-1.794-3.227c0-.062 0-.125-.022-.188a1.988 1.988 0 0 0-.54-1.079 1.962 1.962 0 0 0-2.778 0"
          fill="#2DBC00"/>
    <path fill-rule="evenodd" clip-rule="evenodd"
          d="M22.966 21.24c0-.038 0-.08.015-.12a6.046 6.046 0 0 1 1.675-3.17l.198-.192a.47.47 0 0 0-.628-.696l-.037.034a.506.506 0 0 0-.054.063l-.131.138a6.056 6.056 0 0 1-3.096 1.66l-.191.018-.207.047a1.962 1.962 0 1 0 2.434 2.336c0-.04 0-.078.022-.119"
          fill="#FC0"/>
    <path fill-rule="evenodd" clip-rule="evenodd"
          d="M27.143 7.475a12.037 12.037 0 0 0-2.18-3.099A14.784 14.784 0 0 0 15.981.105a15.78 15.78 0 0 0-3.634 0 14.79 14.79 0 0 0-9.029 4.234 12.08 12.08 0 0 0-2.195 3.089A10.795 10.795 0 0 0 0 12.22c.01 2.175.664 4.297 1.882 6.1a16.776 16.776 0 0 0 2.58 2.954l-.423 3.333a1.01 1.01 0 0 0-.044.138c0 .044 0 .088-.018.132-.02.044 0 .069 0 .104a.654.654 0 0 0 0 .11 1.072 1.072 0 0 0 1.612.83l.069-.04 1.031-.53 3.02-1.515a15.74 15.74 0 0 0 2.635.508c.591.063 1.186.096 1.781.097a16.36 16.36 0 0 0 1.857-.11c1.215-.14 2.41-.418 3.562-.83a1.97 1.97 0 0 1-1.34-2.042 13.273 13.273 0 0 1-4.076.63c-.498.001-.995-.026-1.49-.081-.103 0-.207-.026-.313-.041a13.594 13.594 0 0 1-1.998-.417 1.385 1.385 0 0 0-1.076.11.54.54 0 0 0-.084.043l-2.478 1.452-.106.063a.235.235 0 0 1-.113.044.167.167 0 0 1-.163-.173l.094-.385c.028-.1.066-.245.11-.42.043-.176.119-.446.181-.687l.201-.769a1.05 1.05 0 0 0-.373-1.157c-.135-.097-.27-.204-.414-.313a13.114 13.114 0 0 1-.627-.55 10.1 10.1 0 0 1-1.468-1.737 8.687 8.687 0 0 1-1.493-4.81 8.511 8.511 0 0 1 .888-3.764 9.66 9.66 0 0 1 1.76-2.477 12.23 12.23 0 0 1 7.47-3.5 13.463 13.463 0 0 1 3.057.009 12.206 12.206 0 0 1 7.426 3.516 9.638 9.638 0 0 1 1.728 2.471 8.47 8.47 0 0 1 .872 3.745v.4a1.96 1.96 0 0 1 2.412.283l.09.104a10.79 10.79 0 0 0-1.079-5.573"
          fill="#0081ED"/>
    <path
        d="M56.359 23.823h-2.321l-.028-.103-3.876-13.978-3.902 14.081h-2.32l-.06-.226L38.997 4.6h2.744l.026.107 3.39 14L49.014 4.6h2.24l3.857 14.106L58.529 4.6h2.744l-4.914 19.224zm15.332-7.1c0-4.027-2.139-6.526-5.585-6.526-3.497 0-5.582 2.575-5.582 6.9 0 4.443 2.104 6.899 5.924 6.899 2.367 0 3.637-.797 4.92-2.076l.229-.23-1.737-1.52-.201.197c-1.016 1.02-1.841 1.377-3.161 1.377-2.158 0-3.394-1.364-3.485-3.842h8.678v-1.179zm-8.665-.853a4.595 4.595 0 0 1 .351-1.725 3.005 3.005 0 0 1 5.46 0c.227.549.346 1.135.352 1.728l-6.163-.003zm17.405 8.226a6.98 6.98 0 0 1-4.974-2.023c-1.84-1.844-1.84-3.854-1.84-7.859s0-6.018 1.84-7.859a6.96 6.96 0 0 1 4.974-2.016 6.752 6.752 0 0 1 4.444 1.53 7.106 7.106 0 0 1 2.311 4.262l.066.358H84.61l-.054-.239c-.48-2.21-2.023-3.528-4.124-3.528a4.18 4.18 0 0 0-3 1.214c-1.07 1.094-1.224 2.324-1.224 6.272 0 3.948.154 5.19 1.223 6.272a4.188 4.188 0 0 0 3.001 1.217c2.133 0 3.695-1.32 4.178-3.531l.053-.235h2.593l-.06.35c-.62 3.592-3.207 5.815-6.764 5.815zm18.18-12.346a5.683 5.683 0 0 0-7.805 0c-.819.837-1.656 2.122-1.656 5.33 0 1.804.197 3.849 1.659 5.332a5.673 5.673 0 0 0 7.802 0c.819-.834 1.656-2.123 1.656-5.331 0-1.797-.197-3.842-1.656-5.332zm-1.759 9.094a3.006 3.006 0 0 1-2.142.853 2.92 2.92 0 0 1-2.114-.853c-.843-.84-.96-2.305-.96-3.763 0-1.459.117-2.92.96-3.764a2.924 2.924 0 0 1 2.114-.856 3.004 3.004 0 0 1 2.142.853c.86.863.94 2.393.94 3.764 0 1.37-.08 2.91-.94 3.772v-.006zm23.96 2.998h-2.321v-7.9c0-1.038-.241-1.856-.715-2.43-.474-.574-1.201-.86-2.167-.86a2.871 2.871 0 0 0-2.129.847 3.164 3.164 0 0 0-.835 2.308v8.022h-2.32v-7.887c0-1.038-.239-1.856-.715-2.43-.477-.574-1.202-.86-2.167-.86a2.87 2.87 0 0 0-2.146.847 3.194 3.194 0 0 0-.821 2.308v8.022h-2.318V10.806h2.318v1.462c.343-.532.82-.964 1.383-1.255a5.274 5.274 0 0 1 4.563.028 3.817 3.817 0 0 1 1.508 1.503 4.9 4.9 0 0 1 1.697-1.49 5.331 5.331 0 0 1 2.509-.546c1.518 0 2.687.452 3.475 1.336.787.885 1.185 2.089 1.185 3.57l.016 8.429zm22.407-1.982c-1.185 1.186-2.92 1.819-4.955 1.819h-6.717v-19.6h6.717c2.035 0 3.763.627 4.955 1.815 2.035 2.039 1.926 5.037 1.926 7.762 0 2.725.109 6.169-1.926 8.204zm-1.458-14.48c-1.019-1.047-2.343-1.43-3.854-1.43h-4.269v15.857h4.269c1.511 0 2.822-.386 3.854-1.433 1.348-1.402 1.292-4.322 1.292-6.718s.056-4.87-1.292-6.275zm14.589 14.922a5.666 5.666 0 0 1-7.765 0c-1.377-1.405-1.65-3.305-1.65-5.397s.273-3.992 1.65-5.394a5.644 5.644 0 0 1 7.765 0c1.377 1.402 1.649 3.302 1.649 5.394s-.272 3.992-1.649 5.397zm-1.405-9.58a3.474 3.474 0 0 0-2.478-.992 3.404 3.404 0 0 0-2.449.991c-.991.991-1.101 2.67-1.101 4.184 0 1.515.11 3.192 1.101 4.183a3.407 3.407 0 0 0 2.449.991 3.471 3.471 0 0 0 2.478-.99c.991-.991 1.072-2.67 1.072-4.184 0-1.515-.081-3.193-1.072-4.184zm10.487 11.12c-3.412 0-5.999-2.311-5.999-6.937s2.587-6.921 5.999-6.921c1.882 0 3.058.495 4.46 2.01l-1.349 1.254c-1.019-1.129-1.816-1.514-3.111-1.514a3.67 3.67 0 0 0-3.136 1.543c-.627.878-.881 1.925-.881 3.631 0 1.706.247 2.754.881 3.635a3.66 3.66 0 0 0 3.136 1.54c1.295 0 2.092-.411 3.111-1.54l1.349 1.292c-1.412 1.512-2.588 2.007-4.46 2.007zm11.061 0c-2.283 0-4.077-.524-5.56-1.954l1.32-1.32c1.076 1.126 2.534 1.568 4.212 1.568 2.23 0 3.606-.8 3.606-2.396 0-1.182-.687-1.844-2.258-1.982l-2.229-.191c-2.641-.22-4.046-1.405-4.046-3.635 0-2.478 2.092-3.964 4.983-3.964 1.926 0 3.66.467 4.874 1.458l-1.295 1.295c-.963-.743-2.196-1.072-3.607-1.072-1.982 0-3.029.853-3.029 2.23 0 1.154.661 1.844 2.367 1.982l2.177.191c2.368.22 3.992 1.129 3.992 3.663 0 2.612-2.23 4.127-5.507 4.127z"
        fill="#0081ED"/>
  </svg>
  <svg xmlns="http://www.w3.org/2000/svg" width="182" height="30" fill="none" viewBox="0 0 182 30" x="130" y="80"
       data-name="logo-hk" data-svg-id="676b553b27">
    <g clip-path="url(#f)">
      <path
          d="M50.342 3.013a30.478 30.478 0 0 0 9.686 7.4l-1.243 2.26a30.007 30.007 0 0 1-9.253-7.332c-2.35 2.809-5.466 5.252-9.347 7.329L39 10.458A31.088 31.088 0 0 0 48.712 3l1.63.013zm.998 5.947v4.888h5.834v2.222H51.34v4.64h7.471v2.22H39.988v-2.22h3.325v-8.524h2.231v8.523h3.52V8.96h2.276zm19.765-6.003v17.506h2.13V2.957h2.348v17.506h6.729v2.28H62.326v-2.28h6.432V2.957h2.347zM67.82 17.341l-2.124.514a79.77 79.77 0 0 0-2.906-9.993l1.992-.672a77.045 77.045 0 0 1 3.038 10.151zm13.987-9.418a51.262 51.262 0 0 1-3.16 10.009l-2.032-.713c1.253-2.584 2.196-5.88 3.135-9.86l2.057.564zm7.908-4.039a16.883 16.883 0 0 1-4.65 6.68l-1.03-1.937a16.21 16.21 0 0 0 3.859-5.728l1.821.985zm-.103 5.94a18.96 18.96 0 0 1-1.072 2.242v11.48h-1.938v-8.92c-.493.536-1.062 1.236-1.614 1.727l-.968-1.808c1.562-1.566 3.057-3.584 3.793-5.682l1.799.962zm4.28 10.526a1.076 1.076 0 0 0 .517-.716v-3.278h-1.743v1.004c-.045 2.684-.81 4.643-2.108 5.983l-1.476-1.527c1.075-1.05 1.414-2.49 1.437-4.456v-2.905h5.924v4.161l1.521-1.291.585 1.776-3.688 3.041-.968-1.792zm.711-17.512v5.01h1.04V4.047h1.669v5.63H90.08v-5.63h1.65V7.85h1.068l-.061-5.024 1.866.013zm4.41 9.935c-.322.713-.626 1.385-.968 1.989l-1.272-1.673a.068.068 0 0 1 .02-.042h-6.855V11.11h7.154v1.314c1.05-2.493 1.773-5.702 2.167-9.628l2.011.358c-.132 1.027-.268 2.218-.423 3.158h4.12v1.973h-.968c-.113 3.668-.646 6.486-1.615 9.079.759 1.588 1.837 3.287 2.867 4.18l-1.343 1.967c-.891-.894-1.86-2.502-2.55-3.932a14.805 14.805 0 0 1-2.955 3.722l-1.233-1.66a12.175 12.175 0 0 0 3.132-4.28c-.53-1.5-.96-3.032-1.289-4.588zm1.14-3.23c.284 1.745.675 3.47 1.172 5.167.505-2.106.782-4.26.827-6.425h-1.731c-.132.53-.135.765-.258 1.256l-.01.003zm7.678 4.324-.888-2.428c2.276-2.35 3.694-5.563 4.617-8.86l2.125.989a25.082 25.082 0 0 1-1.88 4.778v15.2h-2.189V11.81c-.532.714-1.204 1.386-1.785 2.057zm11.449-8.165-.846-2.083 2.141-.578 1.007 2.66h6.389v2.093h-14.732V5.702h6.041zm7.167 17.435h-11.584V15.83h11.584v7.307zm-.151-14.08v2.004h-11.485V9.047l11.485.01zm.019 3.331V14.4h-11.468v-2.012h11.468zm-1.998 8.773v-3.303h-7.3v3.303h7.3zm9.159-6.774a1.324 1.324 0 1 0 0-2.648 1.324 1.324 0 0 0 0 2.648z"
          fill="#0082F6"/>
      <path
          d="m149.152 6.71-1.586-3.175 1.653-.723c.575 1.101 1.692 3.277 2.26 4.378l-1.84-.48h9.609v1.652h-3.73a24 24 0 0 1-2.082 5.37 16.521 16.521 0 0 1-2.767 3.67 20.16 20.16 0 0 0 3.626 2.2c1.772.83 3.608 1.52 5.489 2.062l-.75 1.834a51.616 51.616 0 0 1-5.811-2.425 22.583 22.583 0 0 1-3.852-2.515 22.771 22.771 0 0 1-3.829 2.515 50.176 50.176 0 0 1-5.731 2.538l-.839-1.788a45.462 45.462 0 0 0 5.488-2.222 21.552 21.552 0 0 0 3.6-2.221 16.953 16.953 0 0 1-2.809-3.648 23.823 23.823 0 0 1-2.147-5.37h-3.648V6.71h9.696zm2.65 6.343a19.237 19.237 0 0 0 1.792-4.69h-8.633a18.78 18.78 0 0 0 1.856 4.69 14.695 14.695 0 0 0 2.538 3.23 14.092 14.092 0 0 0 2.447-3.23zm13.351-5.53V3.326h1.614v4.197h2.925v1.633h-2.925v1.476c.969 1.03 2.554 2.783 3.49 3.826l-1.133 1.088c-.786-.908-1.571-1.814-2.357-2.718v10.738h-1.614v-10.4a26.946 26.946 0 0 1-2.583 4.985l-.814-1.678a22.875 22.875 0 0 0 1.689-3.103 33.74 33.74 0 0 0 1.63-4.197h-2.741v-1.65h2.819zm9.812 3.022v-7.28h1.614v7.28h4.895V23.61h-1.631v-1.359h-10.477v-1.653h10.471v-3.513h-9.586v-1.614h9.586v-3.28h-10.061v-1.647h5.189zm-4.078-6.328c1.04 1.48 2.059 2.975 3.057 4.484l-1.459.875a223.43 223.43 0 0 0-2.967-4.462l1.369-.897zm9.686.045 1.427.817a83.463 83.463 0 0 1-2.99 4.642l-1.427-.88a68.617 68.617 0 0 0 2.974-4.58h.016z"
          fill="#0081ED"/>
      <path fill-rule="evenodd" clip-rule="evenodd"
            d="m27.805 25.282-.12-.026h-.122a6.212 6.212 0 0 1-3.467-1.943.484.484 0 0 0-.717.645l.032.039c.021.02.044.039.068.055l.142.136a6.228 6.228 0 0 1 1.711 3.202c0 .068 0 .133.023.197.022.065.026.142.045.213a2.021 2.021 0 0 0 3.38.882 2.02 2.02 0 0 0-.968-3.4"
            fill="#FB6500"/>
      <path fill-rule="evenodd" clip-rule="evenodd"
            d="M34.498 20.116a2.025 2.025 0 0 0-3.4.969c0 .042 0 .08-.022.122-.023.042 0 .081 0 .12a6.211 6.211 0 0 1-1.928 3.461.485.485 0 0 0 .646.72l.039-.035a.567.567 0 0 0 .055-.068l.135-.14a6.187 6.187 0 0 1 3.187-1.707 1.37 1.37 0 0 0 .197-.023 1.99 1.99 0 0 0 1.108-.565 2.021 2.021 0 0 0 0-2.86"
            fill="#0082F6"/>
      <path fill-rule="evenodd" clip-rule="evenodd"
            d="M25.936 14.398a2.021 2.021 0 0 0 .968 3.4l.12.026h.123a6.227 6.227 0 0 1 3.277 1.737l.194.203a.484.484 0 0 0 .716-.645l-.032-.04-.068-.054c-.048-.045-.094-.087-.139-.136a6.186 6.186 0 0 1-1.708-3.186c0-.065 0-.13-.022-.194a2.047 2.047 0 0 0-.555-1.11 2.02 2.02 0 0 0-2.861 0"
            fill="#2DBC00"/>
      <path fill-rule="evenodd" clip-rule="evenodd"
            d="M23.643 21.866c0-.039 0-.08.017-.122a6.225 6.225 0 0 1 1.724-3.265l.203-.197a.484.484 0 0 0-.645-.716l-.04.035a.53.53 0 0 0-.054.065l-.136.142a6.235 6.235 0 0 1-3.186 1.708l-.197.02-.213.047a2.022 2.022 0 1 0 2.505 2.405c0-.041 0-.08.023-.122"
            fill="#FC0"/>
      <path fill-rule="evenodd" clip-rule="evenodd"
            d="M27.944 7.695a12.39 12.39 0 0 0-2.244-3.19A15.22 15.22 0 0 0 16.453.109a16.246 16.246 0 0 0-3.742 0 15.226 15.226 0 0 0-9.295 4.359 12.463 12.463 0 0 0-2.26 3.18A11.113 11.113 0 0 0 0 12.58a11.3 11.3 0 0 0 1.937 6.28 17.274 17.274 0 0 0 2.657 3.042l-.435 3.432a1.043 1.043 0 0 0-.046.142c0 .045 0 .09-.02.135-.018.046.001.071.001.107a.675.675 0 0 0 0 .113 1.104 1.104 0 0 0 1.66.855l.07-.041 1.063-.546 3.109-1.56c.887.252 1.795.426 2.712.523.61.066 1.221.1 1.834.1a16.84 16.84 0 0 0 1.911-.113 16.411 16.411 0 0 0 3.668-.855 2.028 2.028 0 0 1-1.379-2.102 13.672 13.672 0 0 1-4.197.65 13.526 13.526 0 0 1-1.534-.085c-.106 0-.213-.026-.322-.042a13.989 13.989 0 0 1-2.057-.43 1.429 1.429 0 0 0-1.107.113.561.561 0 0 0-.088.046l-2.55 1.495-.11.064a.243.243 0 0 1-.116.046.17.17 0 0 1-.168-.178l.097-.397c.029-.103.068-.252.113-.433.045-.18.122-.458.187-.707l.207-.79a1.21 1.21 0 0 0 .051-.324 1.081 1.081 0 0 0-.436-.868c-.138-.1-.277-.21-.426-.323a13.48 13.48 0 0 1-.646-.565 10.4 10.4 0 0 1-1.51-1.789 8.943 8.943 0 0 1-1.537-4.953 8.763 8.763 0 0 1 .913-3.874 9.944 9.944 0 0 1 1.812-2.55 12.592 12.592 0 0 1 7.69-3.604 15.13 15.13 0 0 1 1.534-.084c.54 0 1.079.03 1.614.094a12.566 12.566 0 0 1 7.646 3.62 9.92 9.92 0 0 1 1.779 2.543c.59 1.2.898 2.519.897 3.855v.414a2.018 2.018 0 0 1 2.483.29l.094.107a11.107 11.107 0 0 0-1.11-5.737"
            fill="#0081ED"/>
    </g>
    <defs>
      <clipPath id="f">
        <path fill="#fff" d="M0 0h182v30H0z"/>
      </clipPath>
    </defs>
  </svg>
  <svg xmlns="http://www.w3.org/2000/svg" width="25" height="25" fill="none" viewBox="0 0 25 25" y="180"
       data-name="more" data-svg-id="9a57673037">
    <path fill-rule="evenodd" clip-rule="evenodd" d="M20 8V7H5v1h15zm0 4v1H5v-1h15zm0 5v1H5v-1h15z" fill="#444"/>
  </svg>
  <svg xmlns="http://www.w3.org/2000/svg" width="10" height="10" viewBox="0 0 10 10" x="144" y="243"
       data-name="more-blue" data-svg-id="87b4438358">
    <g fill="none" fill-rule="evenodd">
      <path d="M0 0h10v10H0z"/>
      <path d="M1 4a1 1 0 1 1 0 2 1 1 0 0 1 0-2zm4 0a1 1 0 1 1 0 2 1 1 0 0 1 0-2zm4 0a1 1 0 1 1 0 2 1 1 0 0 1 0-2z"
            fill="#1A77FE"/>
    </g>
  </svg>
  <svg xmlns="http://www.w3.org/2000/svg" width="10" height="10" viewBox="0 0 10 10" x="164" y="243"
       data-name="more-grey" data-svg-id="a3ad6af2a5">
    <g fill="none" fill-rule="evenodd">
      <path d="M0 0h10v10H0z"/>
      <path d="M1 4a1 1 0 1 1 0 2 1 1 0 0 1 0-2zm4 0a1 1 0 1 1 0 2 1 1 0 0 1 0-2zm4 0a1 1 0 1 1 0 2 1 1 0 0 1 0-2z"
            fill="#888"/>
    </g>
  </svg>
  <svg xmlns="http://www.w3.org/2000/svg" width="10" height="10" viewBox="0 0 10 10" x="184" y="243"
       data-name="more-light-blue" data-svg-id="c31173f7c0">
    <g fill="none" fill-rule="evenodd">
      <path d="M0 0h10v10H0z"/>
      <path d="M1 4a1 1 0 1 1 0 2 1 1 0 0 1 0-2zm4 0a1 1 0 1 1 0 2 1 1 0 0 1 0-2zm4 0a1 1 0 1 1 0 2 1 1 0 0 1 0-2z"
            fill="#4892FE"/>
    </g>
  </svg>
  <svg xmlns="http://www.w3.org/2000/svg" width="10" height="10" viewBox="0 0 10 10" x="204" y="243"
       data-name="more-white" data-svg-id="b9174e51ea">
    <g fill="none" fill-rule="evenodd">
      <path d="M0 0h10v10H0z"/>
      <path d="M1 4a1 1 0 1 1 0 2 1 1 0 0 1 0-2zm4 0a1 1 0 1 1 0 2 1 1 0 0 1 0-2zm4 0a1 1 0 1 1 0 2 1 1 0 0 1 0-2z"
            fill="#FFF"/>
    </g>
  </svg>
  <svg xmlns="http://www.w3.org/2000/svg" width="18" height="18" fill="none" viewBox="0 0 18 18" x="265" y="180"
       data-name="move" data-svg-id="6d3bcd6224">
    <path d="M8.5 6v.5h-6v5h6v3.35L14.767 9 8.5 3.15V6z" stroke="#333"/>
  </svg>
  <svg xmlns="http://www.w3.org/2000/svg" width="18" height="18" viewBox="0 0 18 18" x="293" y="180"
       data-name="operation-cancel" data-svg-id="a358b9a1f1">
    <path
        d="M14.657 3.343a.75.75 0 0 1 0 1.06L10.06 9l4.596 4.596a.75.75 0 1 1-1.06 1.06L9 10.062l-4.596 4.596a.75.75 0 1 1-1.06-1.06L7.938 9 3.343 4.404a.75.75 0 0 1 1.06-1.06L9 7.938l4.596-4.596a.75.75 0 0 1 1.06 0z"
        fill="#555" fill-rule="evenodd"/>
  </svg>
  <svg xmlns="http://www.w3.org/2000/svg" width="18" height="18" viewBox="0 0 18 18" y="215"
       data-name="operation-folder" data-svg-id="0c3a69f88c">
    <path
        d="M0 4v10a2 2 0 0 0 2 2h14a2 2 0 0 0 2-2V6l-.005-.15A2 2 0 0 0 16 4H8.621L7.207 2.586A2 2 0 0 0 5.793 2H2a2 2 0 0 0-2 2zm1.5 0a.5.5 0 0 1 .5-.5h3.793a.5.5 0 0 1 .353.146l1.708 1.708a.5.5 0 0 0 .353.146H16a.5.5 0 0 1 .5.5v8a.5.5 0 0 1-.5.5H2a.5.5 0 0 1-.5-.5V4z"
        fill="#555"/>
  </svg>
  <svg xmlns="http://www.w3.org/2000/svg" width="18" height="18" viewBox="0 0 18 18" x="28" y="215"
       data-name="operation-retry" data-svg-id="bc1d2485ac">
    <path
        d="M3.82 3.52a7.75 7.75 0 0 1 10.96 0l-.074-.073 1.506-1.505.53 4.773-4.773-.53 1.677-1.677a6.25 6.25 0 1 0 .073 8.911.75.75 0 0 1 1.061 1.061A7.75 7.75 0 0 1 3.82 3.52z"
        fill="#555" fill-rule="evenodd"/>
  </svg>
  <svg xmlns="http://www.w3.org/2000/svg" width="18" height="18" viewBox="0 0 18 18" x="56" y="215"
       data-name="operation-success" data-svg-id="7580c3b71d">
    <g fill="none" fill-rule="evenodd">
      <path d="M0 9c0 4.968 4.032 9 9 9s9-4.032 9-9-4.032-9-9-9-9 4.032-9 9z" fill="#29D221"/>
      <path
          d="M12.21 5.754a.875.875 0 0 1 1.312 1.153l-.079.09-5.292 5.25a.875.875 0 0 1-1.149.072l-.089-.078-2.66-2.688a.875.875 0 0 1 1.155-1.31l.089.079 2.043 2.064 4.67-4.632z"
          fill="#FFF" fill-rule="nonzero"/>
    </g>
  </svg>
  <svg xmlns="http://www.w3.org/2000/svg" width="18" height="18" viewBox="0 0 18 18" x="84" y="215"
       data-name="operation-sync" data-svg-id="fffa1c5ee1">
    <g fill="none" fill-rule="evenodd">
      <path d="M0 9c0 4.968 4.032 9 9 9s9-4.032 9-9-4.032-9-9-9-9 4.032-9 9z" fill="#1A77FE"/>
      <path
          d="M14.143 9a5.121 5.121 0 0 0-.92-2.937l-1.056.735A3.857 3.857 0 0 1 9 12.858V11.57L6.429 13.5 9 15.429v-1.286A5.143 5.143 0 0 0 14.143 9zM9 2.571v1.286a5.143 5.143 0 0 0-4.22 8.084l1.055-.736A3.857 3.857 0 0 1 9 5.143v1.286L11.571 4.5 9 2.571z"
          fill="#FFF" fill-rule="nonzero"/>
    </g>
  </svg>
  <svg xmlns="http://www.w3.org/2000/svg" width="18" height="18" viewBox="0 0 18 18" x="112" y="215"
       data-name="operation-warn" data-svg-id="dc9ecabf61">
    <g fill="none" fill-rule="evenodd">
      <path d="M9 0C4.032 0 0 4.032 0 9s4.032 9 9 9 9-4.032 9-9-4.032-9-9-9z" fill="#EEA93C"/>
      <path
          d="M9.495 12c.279 0 .505.214.505.505v.99a.497.497 0 0 1-.505.505h-.99A.497.497 0 0 1 8 13.495v-.99c0-.279.214-.505.505-.505h.99zm0-8c.279 0 .505.216.505.5V10c0 .276-.214.5-.505.5h-.99A.497.497 0 0 1 8 10V4.5c0-.276.214-.5.505-.5h.99z"
          fill="#FFF"/>
    </g>
  </svg>
  <svg xmlns="http://www.w3.org/2000/svg" width="18" height="18" fill="none" viewBox="0 0 18 18" x="140" y="215"
       data-name="rename" data-svg-id="35f230ba9c">
    <path fill-rule="evenodd" clip-rule="evenodd"
          d="m12.753 2.894-.707-.707a1.5 1.5 0 0 0-2.121 0l-1.06 1.06-.706.706L2 10.112v2.828h2.828l6.16-6.158.706-.707 1.059-1.06a1.5 1.5 0 0 0 0-2.12zm-1.766 2.473 1.059-1.058a.5.5 0 0 0 .058-.638l-.058-.07-.707-.707a.5.5 0 0 0-.707 0l-1.06 1.06 1.415 1.413zM8.866 4.66 3 10.525v.002l1 .413.42.995 5.86-5.86L8.866 4.66zM16 14H2v1h14v-1z"
          fill="#333"/>
  </svg>
  <svg xmlns="http://www.w3.org/2000/svg" width="40" height="40" viewBox="0 0 40 40" x="100" y="130"
       data-name="rename_more" data-svg-id="d46a3e533d">
    <g fill="none" fill-rule="evenodd">
      <path
          d="m26.458 10.987 2.475 2.122-13.056 13.41a7.783 7.783 0 0 1-4.507 2.215c-.023-1.766.767-3.426 2.032-4.69l13.056-13.057z"
          stroke="#000" stroke-width="1.5"/>
      <path d="M18.5 28h11a.5.5 0 0 1 .5.5v.5a.5.5 0 0 1-.5.5H17l1.5-1.5z" fill="#000"/>
    </g>
  </svg>
  <svg xmlns="http://www.w3.org/2000/svg" width="18" height="18" fill="none" viewBox="0 0 18 18" x="168" y="215"
       data-name="restore" data-svg-id="1e30b11232">
    <path d="M9 2c1.961 0 3.734.806 5.005 2.106A7 7 0 1 1 2 9" stroke="#333" stroke-linecap="round"/>
    <path fill-rule="evenodd" clip-rule="evenodd" d="M0 9h4L2 7 0 9z" fill="#333"/>
  </svg>
  <svg xmlns="http://www.w3.org/2000/svg" width="120" height="120" fill="none" viewBox="0 0 120 120"
       data-name="search" data-svg-id="44ac244146">
    <path opacity=".2" fill-rule="evenodd" clip-rule="evenodd"
          d="M89.413 54.507c0 7.806-3 14.904-7.897 20.181l.01.011.108.108.165.166c1.34 1.349 7.424 7.493 18.251 18.43a3.304 3.304 0 0 1 0 4.637 3.223 3.223 0 0 1-4.59 0l-.815-.824a3.307 3.307 0 0 0-.594-3.813 28368.9 28368.9 0 0 0-18.252-18.43l-.165-.166-.106-.108-.012-.011a29.569 29.569 0 0 0 7.898-20.181c0-15.273-11.483-27.835-26.202-29.354a29.428 29.428 0 0 1 3-.153c16.127 0 29.201 13.211 29.201 29.507zm-18.65 24.684.096.097.055.055.123.124.216.218.166.168c.34.34.774.78 1.309 1.318a28.809 28.809 0 0 1-12.516 2.843 29.18 29.18 0 0 1-3.002-.155 28.835 28.835 0 0 0 13.334-4.888l.22.22zm-13.55-47.435c-11.127 1.483-19.714 11.103-19.714 22.751 0 11.647 8.587 21.267 19.713 22.751-.98.131-1.983.198-3 .198-12.543 0-22.712-10.274-22.712-22.949 0-12.675 10.17-22.95 22.713-22.95 1.017 0 2.018.068 3 .199z"
          fill="#267EF0"/>
    <path fill-rule="evenodd" clip-rule="evenodd"
          d="M89.46 98.04a3.222 3.222 0 0 0 4.59 0 3.302 3.302 0 0 0 0-4.637S75.661 74.831 75.512 74.69v-.001a29.57 29.57 0 0 0 7.9-20.181C83.41 38.21 70.335 25 54.205 25 38.076 25 25 38.21 25 54.507c0 16.296 13.076 29.507 29.206 29.507 6.05 0 11.672-1.86 16.334-5.043L89.46 98.04zm.924-.915a1.922 1.922 0 0 0 2.742 0 2.002 2.002 0 0 0 0-2.807l.021-.022-.021.022-2.888-2.917-6.358-6.42a50761.938 50761.938 0 0 0-9.072-9.158l-.158-.159-.04-.04.01.01a1.3 1.3 0 0 1-.06-1.83 28.269 28.269 0 0 0 7.552-19.297c0-15.591-12.507-28.207-27.906-28.207-15.4 0-27.906 12.616-27.906 28.207 0 15.59 12.506 28.207 27.906 28.207 5.78 0 11.147-1.775 15.601-4.817a1.3 1.3 0 0 1 1.656.158l18.921 19.07zM78.221 54.507c0 13.38-10.74 24.25-24.015 24.25-13.276 0-24.016-10.87-24.016-24.25s10.74-24.25 24.016-24.25c13.276 0 24.015 10.87 24.015 24.25zm-1.3 0c0 12.675-10.17 22.95-22.715 22.95-12.546 0-22.716-10.275-22.716-22.95 0-12.675 10.17-22.95 22.716-22.95 12.545 0 22.715 10.275 22.715 22.95z"
          fill="#267EF0"/>
  </svg>
  <svg xmlns="http://www.w3.org/2000/svg" width="18" height="18" fill="none" viewBox="0 0 18 18" x="196" y="215"
       data-name="share" data-svg-id="023f2bcc3f">
    <path d="M2.5 10.9v2.104a1.5 1.5 0 0 0 1.5 1.5h10a1.5 1.5 0 0 0 1.5-1.5V10.9m-10-.45V9.5a5 5 0 0 1 5-5h2.95"
          stroke="#333" stroke-linecap="round"/>
    <path d="m11.5 6.75 2.25-2.25-2.25-2.25" stroke="#333" stroke-linecap="round" stroke-linejoin="round"/>
  </svg>
  <svg xmlns="http://www.w3.org/2000/svg" width="18" height="18" fill="none" viewBox="0 0 18 18" x="224" y="215"
       data-name="shareByAttach" data-svg-id="222f3ad344">
    <g stroke="#333">
      <rect x="2.5" y="4.5" width="13" height="10" rx="1"/>
      <path d="m2.5 6.5 6.5 3 6.5-3" stroke-linecap="round" stroke-linejoin="round"/>
    </g>
  </svg>
  <svg xmlns="http://www.w3.org/2000/svg" width="18" height="18" fill="none" viewBox="0 0 18 18" x="252" y="215"
       data-name="showHistory" data-svg-id="4f20b76b3b">
    <path d="M9 16.051a7 7 0 1 0-7-7" stroke="#333" stroke-linecap="round"/>
    <path fill-rule="evenodd" clip-rule="evenodd"
          d="M0 9h4l-2 2-2-2zm8.5-3a.5.5 0 0 0-.5.5V10h3.5a.5.5 0 0 0 0-1H9V6.5a.5.5 0 0 0-.5-.5z" fill="#333"/>
  </svg>
  <svg xmlns="http://www.w3.org/2000/svg" width="28" height="23" fill="none" viewBox="0 0 28 23" x="150" y="130"
       data-name="spacearea" data-svg-id="ea31b1f100">
    <path fill-rule="evenodd" clip-rule="evenodd"
          d="M2.25 22.5A2.25 2.25 0 0 1 0 20.25V2.583A2.25 2.25 0 0 1 2.25.333h7.083l2.334 2.334H25.75A2.25 2.25 0 0 1 28 4.917V20.25a2.25 2.25 0 0 1-2.25 2.25H2.25z"
          fill="url(#g)"/>
    <defs>
      <linearGradient id="g" x1="-13.917" y1="11.351" x2="7.53" y2="38.443" gradientUnits="userSpaceOnUse">
        <stop stop-color="#6BBEFE"/>
        <stop offset=".999" stop-color="#59ABFE"/>
      </linearGradient>
    </defs>
  </svg>
  <svg xmlns="http://www.w3.org/2000/svg" width="18" height="18" fill="none" viewBox="0 0 18 18" x="280" y="215"
       data-name="stickFolder" data-svg-id="a16281da60">
    <path clip-rule="evenodd"
          d="m9 13.26-4.12 2.376a.3.3 0 0 1-.443-.322l.987-4.652-3.532-3.184a.3.3 0 0 1 .169-.52l4.729-.5 1.936-4.343a.3.3 0 0 1 .548 0l1.936 4.343 4.73.5a.3.3 0 0 1 .168.52l-3.532 3.184.987 4.652a.3.3 0 0 1-.444.322L9 13.26z"
          stroke="#333"/>
  </svg>
  <svg xmlns="http://www.w3.org/2000/svg" width="18" height="18" fill="none" viewBox="0 0 18 18" y="243"
       data-name="transferOwnership" data-svg-id="d6c80755b2">
    <path d="M13.5 8V5.707a.5.5 0 0 0-.146-.353l-2.708-2.708a.5.5 0 0 0-.353-.146H3.5a1 1 0 0 0-1 1v11a1 1 0 0 0 1 1H9"
          stroke="#333" stroke-linecap="round"/>
    <rect x="5" y="7" width="5" height="1" rx=".5" fill="#333"/>
    <rect x="5" y="10" width="3" height="1" rx=".5" fill="#333"/>
    <rect x="11" y="13" width="5" height="1" rx=".5" fill="#333"/>
    <path d="m13.964 11.379 2.122 2.121-2.121 2.121" stroke="#333" stroke-linecap="round" stroke-linejoin="round"/>
  </svg>
  <svg xmlns="http://www.w3.org/2000/svg" width="18" height="18" fill="none" viewBox="0 0 18 18" x="28" y="243"
       data-name="unStickFolder" data-svg-id="b444a4bd5f">
    <path fill-rule="evenodd" clip-rule="evenodd"
          d="m2.009 6.46 1.468-.155.91.91-1.827.192 3.413 3.077-.953 4.495L9 12.683l2.018 1.164 2.328 2.327a.789.789 0 0 1-.476-.105L9 13.837 5.13 16.07a.8.8 0 0 1-1.182-.859l.927-4.37-3.318-2.99a.8.8 0 0 1 .452-1.39zm13.432.947-2.738 2.468.708.708 3.032-2.733a.8.8 0 0 0-.451-1.39l-4.443-.469-1.818-4.08a.8.8 0 0 0-1.462 0L7.181 4.353l.757.757L9 2.728l1.871 4.197 4.57.482zM3.354 2.647a.5.5 0 1 0-.708.707l13 13a.5.5 0 0 0 .708-.708l-13-13z"
          fill="#333"/>
  </svg>
  <svg xmlns="http://www.w3.org/2000/svg" width="18" height="18" fill="none" viewBox="0 0 18 18" x="56" y="243"
       data-name="viewDetail" data-svg-id="536a3077a3">
    <path fill-rule="evenodd" clip-rule="evenodd" d="M9 5H8v1h1V5zm0 3V7H7v1h1v4H7v1h3v-1H9V8z" fill="#333"/>
    <path d="M1.5 9a7 7 0 1 1 14 0 7 7 0 0 1-14 0z" stroke="#333"/>
  </svg>
</svg>
